<svg width="27" height="30" viewBox="0 0 27 30" fill="none" xmlns="http://www.w3.org/2000/svg">
<path d="M0 27.1875C0 28.7402 1.25977 30 2.8125 30H23.4375C24.9902 30 26.25 28.7402 26.25 27.1875V11.25H0V27.1875ZM3.75 15.9375C3.75 15.4219 4.17188 15 4.6875 15H10.3125C10.8281 15 11.25 15.4219 11.25 15.9375V21.5625C11.25 22.0781 10.8281 22.5 10.3125 22.5H4.6875C4.17188 22.5 3.75 22.0781 3.75 21.5625V15.9375ZM23.4375 3.75H20.625V0.9375C20.625 0.421875 20.2031 0 19.6875 0H17.8125C17.2969 0 16.875 0.421875 16.875 0.9375V3.75H9.375V0.9375C9.375 0.421875 8.95312 0 8.4375 0H6.5625C6.04688 0 5.625 0.421875 5.625 0.9375V3.75H2.8125C1.25977 3.75 0 5.00977 0 6.5625V9.375H26.25V6.5625C26.25 5.00977 24.9902 3.75 23.4375 3.75Z" fill="#D1D1D1"/>
</svg>
