<svg width="30" height="34" viewBox="0 0 30 34" fill="none" xmlns="http://www.w3.org/2000/svg">
<path d="M13.5162 25.8057L5.89 31.5148C5.52857 31.7853 5.099 31.95 4.6493 31.9903C4.1996 32.0306 3.74759 31.9449 3.34384 31.7428C2.94009 31.5408 2.60053 31.2304 2.36318 30.8463C2.12583 30.4622 2.00006 30.0197 2 29.5682V6.8645C2 5.57448 2.5124 4.33728 3.42454 3.42501C4.33669 2.51275 5.57383 2.00016 6.86391 2H23.0797C24.3697 2.00016 25.6069 2.51275 26.519 3.42501C27.4311 4.33728 27.9436 5.57448 27.9436 6.8645V29.5675C27.9435 30.0191 27.8177 30.4616 27.5804 30.8457C27.343 31.2297 27.0035 31.5402 26.5997 31.7422C26.196 31.9443 25.744 32.0299 25.2943 31.9897C24.8446 31.9494 24.415 31.7847 24.0536 31.5141L16.4317 25.8057C16.0109 25.4907 15.4996 25.3205 14.974 25.3205C14.4484 25.3205 13.9369 25.4907 13.5162 25.8057Z" stroke="#E5E5E5" stroke-width="3.5" stroke-linecap="round" stroke-linejoin="round"/>
<path d="M14.2481 8.8692C14.4227 8.36691 14.51 8.11577 14.6391 8.04616C14.7508 7.98592 14.8853 7.98592 14.9971 8.04616C15.1261 8.11577 15.2134 8.36691 15.388 8.8692L16.5423 12.1899C16.592 12.3328 16.6168 12.4043 16.6616 12.4575C16.7012 12.5046 16.7516 12.5412 16.8086 12.5643C16.873 12.5904 16.9487 12.592 17.1 12.5951L20.6148 12.6667C21.1465 12.6775 21.4123 12.6829 21.5184 12.7842C21.6102 12.8718 21.6518 12.9998 21.629 13.1247C21.6028 13.269 21.3909 13.4296 20.9671 13.7509L18.1656 15.8747C18.045 15.9662 17.9847 16.0119 17.9479 16.0709C17.9154 16.1231 17.8962 16.1824 17.8918 16.2437C17.8869 16.313 17.9088 16.3855 17.9526 16.5304L18.9707 19.8953C19.1246 20.4043 19.2016 20.6588 19.1381 20.791C19.0831 20.9054 18.9743 20.9844 18.8485 21.0014C18.7031 21.0209 18.4849 20.8691 18.0484 20.5653L15.1627 18.5574C15.0385 18.4709 14.9764 18.4277 14.9089 18.4109C14.8492 18.3961 14.7869 18.3961 14.7273 18.4109C14.6598 18.4277 14.5976 18.4709 14.4734 18.5574L11.5877 20.5653C11.1512 20.8691 10.933 21.0209 10.7876 21.0014C10.6619 20.9844 10.553 20.9054 10.498 20.791C10.4345 20.6588 10.5115 20.4043 10.6655 19.8953L11.6835 16.5304C11.7273 16.3855 11.7493 16.313 11.7443 16.2437C11.74 16.1824 11.7207 16.1231 11.6882 16.0709C11.6514 16.0119 11.5911 15.9662 11.4705 15.8747L8.66904 13.7509C8.24528 13.4296 8.0334 13.269 8.0071 13.1247C7.98433 12.9998 8.02591 12.8718 8.11773 12.7842C8.22381 12.6829 8.48964 12.6775 9.0213 12.6667L12.5361 12.5951C12.6875 12.592 12.7631 12.5904 12.8276 12.5643C12.8845 12.5412 12.935 12.5046 12.9745 12.4575C13.0193 12.4043 13.0441 12.3328 13.0938 12.1899L14.2481 8.8692Z" stroke="#E5E5E5" stroke-width="1.5" stroke-linecap="round" stroke-linejoin="round"/>
</svg>
