<svg width="50" height="50" viewBox="0 0 50 50" fill="none" xmlns="http://www.w3.org/2000/svg">
<path d="M25 0C11.1895 0 0 11.1895 0 25C0 38.8105 11.1895 50 25 50C38.8105 50 50 38.8105 50 25C50 11.1895 38.8105 0 25 0ZM39.5161 26.303C39.5161 26.9684 38.9718 27.5152 38.3065 27.5152H27.5152V38.3065C27.5152 38.9718 26.9684 39.5161 26.303 39.5161H23.697C23.0316 39.5161 22.4848 38.9718 22.4848 38.3065V27.5152H11.6935C11.0282 27.5152 10.4839 26.9684 10.4839 26.303V23.697C10.4839 23.0316 11.0282 22.4848 11.6935 22.4848H22.4848V11.6935C22.4848 11.0282 23.0316 10.4839 23.697 10.4839H26.303C26.9684 10.4839 27.5152 11.0282 27.5152 11.6935V22.4848H38.3065C38.9718 22.4848 39.5161 23.0316 39.5161 23.697V26.303Z" fill="#1ABFB5"/>
</svg>
