<svg width="43" height="33" viewBox="0 0 43 33" fill="none" xmlns="http://www.w3.org/2000/svg">
<g opacity="0.7">
<path d="M20.6557 8.56107L7.07332 19.7477V31.8213C7.07332 32.1339 7.19751 32.4337 7.41856 32.6548C7.63961 32.8758 7.93941 33 8.25202 33L16.5074 32.9786C16.819 32.9771 17.1172 32.8522 17.337 32.6313C17.5568 32.4104 17.6802 32.1115 17.6802 31.7999V24.7491C17.6802 24.4365 17.8044 24.1367 18.0254 23.9156C18.2465 23.6946 18.5463 23.5704 18.8589 23.5704H23.5737C23.8863 23.5704 24.1861 23.6946 24.4072 23.9156C24.6282 24.1367 24.7524 24.4365 24.7524 24.7491V31.7948C24.7519 31.9499 24.782 32.1035 24.8411 32.247C24.9001 32.3904 24.9868 32.5208 25.0963 32.6306C25.2058 32.7405 25.3359 32.8276 25.4792 32.8871C25.6224 32.9466 25.776 32.9772 25.9311 32.9772L34.1835 33C34.4961 33 34.7959 32.8758 35.017 32.6548C35.238 32.4337 35.3622 32.1339 35.3622 31.8213V19.7396L21.7828 8.56107C21.6232 8.43238 21.4243 8.36221 21.2192 8.36221C21.0142 8.36221 20.8153 8.43238 20.6557 8.56107ZM42.1103 16.1644L35.9515 11.0879V0.884027C35.9515 0.649569 35.8584 0.424713 35.6926 0.258926C35.5268 0.0931385 35.302 0 35.0675 0H30.9421C30.7076 0 30.4827 0.0931385 30.317 0.258926C30.1512 0.424713 30.058 0.649569 30.058 0.884027V6.23313L23.4624 0.806675C22.8295 0.28582 22.0353 0.0010412 21.2155 0.0010412C20.3958 0.0010412 19.6016 0.28582 18.9686 0.806675L0.320827 16.1644C0.23131 16.2384 0.157249 16.3293 0.102876 16.4319C0.0485021 16.5346 0.0148817 16.6469 0.00393551 16.7625C-0.00701067 16.8781 0.00493188 16.9948 0.0390808 17.1058C0.0732297 17.2168 0.128916 17.32 0.202957 17.4094L2.08151 19.6932C2.15535 19.783 2.24618 19.8573 2.34878 19.9119C2.45139 19.9666 2.56377 20.0005 2.67948 20.0116C2.79519 20.0228 2.91197 20.011 3.02312 19.9769C3.13428 19.9429 3.23763 19.8873 3.32726 19.8133L20.6557 5.54064C20.8153 5.41196 21.0142 5.34179 21.2192 5.34179C21.4243 5.34179 21.6232 5.41196 21.7828 5.54064L39.1119 19.8133C39.2014 19.8873 39.3046 19.943 39.4156 19.9771C39.5266 20.0113 39.6432 20.0232 39.7589 20.0123C39.8745 20.0013 39.9868 19.9677 40.0894 19.9133C40.1921 19.859 40.283 19.7849 40.3569 19.6954L42.2355 17.4117C42.3095 17.3217 42.3649 17.2179 42.3987 17.1065C42.4324 16.995 42.4438 16.8779 42.4322 16.762C42.4205 16.6461 42.3861 16.5337 42.3308 16.4311C42.2756 16.3285 42.2006 16.2379 42.1103 16.1644Z" fill="#D1D1D1" fill-opacity="0.8"/>
</g>
</svg>
