<svg width="25" height="33" viewBox="0 0 25 33" fill="none" xmlns="http://www.w3.org/2000/svg">
<path d="M23.1 0.207986L20.625 3.09549L17.1187 0.207986C16.9407 0.0731064 16.7234 0.000110279 16.5 0.000110279C16.2766 0.000110279 16.0593 0.0731064 15.8812 0.207986L12.375 3.09549L8.86875 0.207986C8.69067 0.0731064 8.47339 0.000110279 8.25 0.000110279C8.02661 0.000110279 7.80933 0.0731064 7.63125 0.207986L4.125 3.09549L1.65 0.207986C0.966797 -0.301194 0 0.182205 0 1.03299V31.9705C0 32.8213 0.966797 33.3047 1.65 32.7955L4.125 29.908L7.63125 32.7955C7.80933 32.9304 8.02661 33.0034 8.25 33.0034C8.47339 33.0034 8.69067 32.9304 8.86875 32.7955L12.375 29.908L15.8812 32.7955C16.0593 32.9304 16.2766 33.0034 16.5 33.0034C16.7234 33.0034 16.9407 32.9304 17.1187 32.7955L20.625 29.908L23.1 32.7955C23.7768 33.3047 24.75 32.8213 24.75 31.9705V1.03299C24.75 0.182205 23.7832 -0.301194 23.1 0.207986ZM20.625 23.2049C20.625 23.4885 20.393 23.7205 20.1094 23.7205H4.64062C4.35703 23.7205 4.125 23.4885 4.125 23.2049V22.1736C4.125 21.89 4.35703 21.658 4.64062 21.658H20.1094C20.393 21.658 20.625 21.89 20.625 22.1736V23.2049ZM20.625 17.0174C20.625 17.301 20.393 17.533 20.1094 17.533H4.64062C4.35703 17.533 4.125 17.301 4.125 17.0174V15.9861C4.125 15.7025 4.35703 15.4705 4.64062 15.4705H20.1094C20.393 15.4705 20.625 15.7025 20.625 15.9861V17.0174ZM20.625 10.8299C20.625 11.1135 20.393 11.3455 20.1094 11.3455H4.64062C4.35703 11.3455 4.125 11.1135 4.125 10.8299V9.79861C4.125 9.51502 4.35703 9.28299 4.64062 9.28299H20.1094C20.393 9.28299 20.625 9.51502 20.625 9.79861V10.8299Z" fill="#D1D1D1"/>
</svg>
