<svg width="279" height="201" viewBox="0 0 279 201" fill="none" xmlns="http://www.w3.org/2000/svg">
<g clip-path="url(#clip0_59_926)">
<path opacity="0.1" d="M162.065 35.4479C144.183 34.8264 127.138 29.0533 110.887 22.7382C94.6357 16.4232 78.5284 9.42503 61.065 6.07875C49.8372 3.92409 36.9965 3.62105 27.9515 9.64075C19.2456 15.4319 16.4335 25.4296 14.9208 34.7057C13.7832 41.6859 13.1232 49.0308 16.2332 55.5667C18.3981 60.102 22.24 63.9157 24.898 68.2609C34.1433 83.3795 27.6074 102.024 17.5866 116.799C12.8869 123.733 7.43474 130.33 3.80854 137.703C0.182334 145.076 -1.49722 153.523 1.67699 161.042C4.82295 168.49 12.3168 174.094 20.4372 178.031C36.9297 186.02 56.3628 188.306 75.313 189.615C117.261 192.484 159.435 191.241 201.493 189.998C217.059 189.536 232.693 189.071 248.005 186.66C256.508 185.322 265.288 183.2 271.462 178.079C279.297 171.577 281.241 160.57 275.989 152.416C267.181 138.743 242.827 135.346 236.669 120.671C233.281 112.595 236.761 103.596 241.687 96.1046C252.25 80.0358 269.96 65.9368 270.892 47.5669C271.534 34.9497 263.02 22.3171 249.856 16.3461C236.06 10.0825 216.928 10.8735 206.75 21.2256C196.27 31.8911 177.851 35.9949 162.065 35.4479Z" fill="#1ABFB5"/>
<path d="M62.213 186.2C62.213 186.2 48.0883 175.522 45.42 161.939C44.3379 156.234 41.4355 151.034 37.148 147.118C35.097 145.276 32.8817 143.626 30.53 142.187" stroke="#535461" stroke-width="2" stroke-miterlimit="10"/>
<path d="M28.8016 133.63C30.0394 135.305 30.5993 142.4 30.5993 142.4C30.5993 142.4 23.9812 139.794 22.7408 138.122C22.1452 137.318 21.8932 136.311 22.0404 135.321C22.1875 134.332 22.7217 133.441 23.5254 132.846C24.3291 132.25 25.3365 131.998 26.326 132.145C27.3155 132.292 28.206 132.826 28.8016 133.63Z" fill="#1ABFB5"/>
<path d="M40.6715 139.198C40.7999 141.276 37.4177 147.537 37.4177 147.537C37.4177 147.537 33.2753 141.748 33.1443 139.67C33.0945 138.68 33.437 137.71 34.0975 136.97C34.7581 136.23 35.6835 135.781 36.6733 135.718C37.6631 135.656 38.6375 135.987 39.3854 136.638C40.1333 137.289 40.5945 138.209 40.6689 139.198H40.6715Z" fill="#1ABFB5"/>
<path d="M52.1767 155.203C51.2419 157.062 45.158 160.76 45.158 160.76C45.158 160.76 44.5083 153.672 45.4431 151.813C45.9033 150.938 46.6883 150.279 47.6293 149.978C48.5703 149.677 49.592 149.757 50.4745 150.201C51.3571 150.645 52.0299 151.418 52.3483 152.354C52.6666 153.289 52.605 154.312 52.1767 155.203Z" fill="#1ABFB5"/>
<path d="M58.1579 169.266C57.5493 171.256 52.1793 175.927 52.1793 175.927C52.1793 175.927 50.338 169.052 50.9466 167.06C51.2391 166.103 51.8996 165.302 52.7826 164.833C53.6657 164.364 54.699 164.264 55.6553 164.557C56.6116 164.849 57.4125 165.51 57.8818 166.393C58.3511 167.276 58.4505 168.309 58.1579 169.266Z" fill="#1ABFB5"/>
<path d="M31.2953 152.57C33.3498 152.848 39.8446 149.915 39.8446 149.915C39.8446 149.915 34.3642 145.374 32.2994 145.097C31.3084 144.964 30.3051 145.23 29.5101 145.836C28.7152 146.443 28.1939 147.34 28.0607 148.331C27.9275 149.322 28.1935 150.326 28.8001 151.121C29.4067 151.916 30.3042 152.437 31.2953 152.57Z" fill="#1ABFB5"/>
<path d="M38.4989 168.932C40.5534 168.58 45.8617 163.842 45.8617 163.842C45.8617 163.842 39.2719 161.15 37.2199 161.502C36.7287 161.583 36.2582 161.76 35.8357 162.023C35.4132 162.286 35.0471 162.631 34.7584 163.036C34.4697 163.442 34.2642 163.901 34.1537 164.386C34.0433 164.872 34.0301 165.374 34.1148 165.865C34.1996 166.355 34.3807 166.824 34.6477 167.244C34.9147 167.664 35.2622 168.028 35.6703 168.313C36.0784 168.598 36.5389 168.799 37.0252 168.906C37.5116 169.012 38.0142 169.021 38.504 168.932H38.4989Z" fill="#1ABFB5"/>
<path d="M47.68 183.876C49.7627 183.876 55.7978 180.103 55.7978 180.103C55.7978 180.103 49.7601 176.336 47.6774 176.336C46.6775 176.336 45.7186 176.733 45.0116 177.44C44.3046 178.147 43.9074 179.106 43.9074 180.106C43.9074 181.106 44.3046 182.064 45.0116 182.771C45.7186 183.479 46.6775 183.876 47.6774 183.876H47.68Z" fill="#1ABFB5"/>
<path d="M199.428 93.8421C199.428 93.8421 208.134 78.4205 221.257 73.9776C226.768 72.1475 231.537 68.5801 234.848 63.8104C236.401 61.5301 237.741 59.1118 238.852 56.5862" stroke="#535461" stroke-width="2" stroke-miterlimit="10"/>
<path d="M247.09 53.7613C245.596 55.2097 238.639 56.7095 238.639 56.7095C238.639 56.7095 240.346 49.8012 241.841 48.3502C242.562 47.6748 243.52 47.3096 244.508 47.3334C245.496 47.3571 246.435 47.7679 247.124 48.4773C247.812 49.1866 248.194 50.1378 248.188 51.1261C248.181 52.1144 247.787 53.0607 247.09 53.7613Z" fill="#1ABFB5"/>
<path d="M243.156 66.2501C241.101 66.6559 234.458 64.134 234.458 64.134C234.458 64.134 239.645 59.2545 241.687 58.8565C242.177 58.7477 242.684 58.7379 243.178 58.8277C243.672 58.9176 244.143 59.1052 244.564 59.3796C244.984 59.654 245.346 60.0097 245.627 60.4257C245.908 60.8417 246.104 61.3097 246.201 61.8023C246.299 62.2948 246.298 62.8019 246.197 63.2938C246.096 63.7857 245.898 64.2526 245.614 64.6669C245.331 65.0812 244.967 65.4347 244.545 65.7066C244.123 65.9784 243.65 66.1632 243.156 66.2501Z" fill="#1ABFB5"/>
<path d="M228.836 79.779C226.869 79.0985 222.398 73.5616 222.398 73.5616C222.398 73.5616 229.332 71.9745 231.304 72.655C231.778 72.8122 232.216 73.062 232.592 73.3898C232.969 73.7176 233.277 74.117 233.498 74.5647C233.719 75.0124 233.848 75.4995 233.88 75.9978C233.911 76.4961 233.843 76.9956 233.679 77.4674C233.516 77.9392 233.26 78.3738 232.928 78.746C232.595 79.1182 232.191 79.4206 231.741 79.6357C231.29 79.8507 230.801 79.9741 230.303 79.9987C229.804 80.0234 229.306 79.9487 228.836 79.779Z" fill="#1ABFB5"/>
<path d="M215.677 87.5759C213.622 87.2369 208.291 82.5244 208.291 82.5244C208.291 82.5244 214.863 79.7867 216.915 80.1257C217.902 80.2882 218.785 80.8363 219.368 81.6495C219.952 82.4627 220.188 83.4744 220.026 84.462C219.864 85.4496 219.315 86.3322 218.502 86.9157C217.689 87.4992 216.677 87.7357 215.69 87.5733L215.677 87.5759Z" fill="#1ABFB5"/>
<path d="M228.656 58.7332C228.654 60.8159 232.431 66.8588 232.431 66.8588C232.431 66.8588 236.204 60.8237 236.204 58.7435C236.217 58.2403 236.129 57.7395 235.946 57.2708C235.762 56.8021 235.487 56.3748 235.136 56.0143C234.784 55.6537 234.364 55.3672 233.901 55.1715C233.437 54.9759 232.939 54.8751 232.435 54.8751C231.932 54.8751 231.434 54.9759 230.97 55.1715C230.506 55.3672 230.086 55.6537 229.735 56.0143C229.384 56.3748 229.108 56.8021 228.925 57.2708C228.741 57.7395 228.653 58.2403 228.667 58.7435L228.656 58.7332Z" fill="#1ABFB5"/>
<path d="M213.394 68.0452C214.015 70.033 219.419 74.6684 219.419 74.6684C219.419 74.6684 221.216 67.7807 220.59 65.793C220.265 64.872 219.595 64.1131 218.722 63.6761C217.848 63.239 216.84 63.1579 215.908 63.4498C214.976 63.7417 214.193 64.3838 213.725 65.241C213.258 66.0981 213.14 67.1035 213.399 68.0452H213.394Z" fill="#1ABFB5"/>
<path d="M199.816 79.1319C200.093 81.1864 204.634 86.6745 204.634 86.6745C204.634 86.6745 207.564 80.1899 207.287 78.1277C207.232 77.6281 207.077 77.1445 206.833 76.7054C206.588 76.2662 206.258 75.8805 205.862 75.5708C205.466 75.2611 205.012 75.0338 204.527 74.9021C204.042 74.7704 203.535 74.737 203.037 74.804C202.539 74.8709 202.059 75.0369 201.626 75.292C201.193 75.5471 200.815 75.8862 200.515 76.2895C200.215 76.6927 199.999 77.1519 199.879 77.6401C199.758 78.1282 199.737 78.6354 199.816 79.1319Z" fill="#1ABFB5"/>
<path opacity="0.25" d="M247.09 53.7613C245.596 55.2097 238.639 56.7095 238.639 56.7095C238.639 56.7095 240.346 49.8012 241.841 48.3502C242.562 47.6748 243.52 47.3096 244.508 47.3334C245.496 47.3571 246.435 47.7679 247.124 48.4773C247.812 49.1866 248.194 50.1378 248.188 51.1261C248.181 52.1144 247.787 53.0607 247.09 53.7613Z" fill="black"/>
<path opacity="0.25" d="M243.156 66.2501C241.101 66.6559 234.458 64.134 234.458 64.134C234.458 64.134 239.645 59.2545 241.687 58.8565C242.177 58.7477 242.684 58.7379 243.178 58.8277C243.672 58.9176 244.143 59.1052 244.564 59.3796C244.984 59.654 245.346 60.0097 245.627 60.4257C245.908 60.8417 246.104 61.3097 246.201 61.8023C246.299 62.2948 246.298 62.8019 246.197 63.2938C246.096 63.7857 245.898 64.2526 245.614 64.6669C245.331 65.0812 244.967 65.4347 244.545 65.7066C244.123 65.9784 243.65 66.1632 243.156 66.2501Z" fill="black"/>
<path opacity="0.25" d="M228.836 79.779C226.869 79.0985 222.398 73.5616 222.398 73.5616C222.398 73.5616 229.332 71.9745 231.304 72.655C231.778 72.8122 232.216 73.062 232.592 73.3898C232.969 73.7176 233.277 74.117 233.498 74.5647C233.719 75.0124 233.848 75.4995 233.88 75.9978C233.911 76.4961 233.843 76.9956 233.679 77.4674C233.516 77.9392 233.26 78.3738 232.928 78.746C232.595 79.1182 232.191 79.4206 231.741 79.6357C231.29 79.8507 230.801 79.9741 230.303 79.9987C229.804 80.0234 229.306 79.9487 228.836 79.779Z" fill="black"/>
<path opacity="0.25" d="M215.677 87.5759C213.622 87.2369 208.291 82.5244 208.291 82.5244C208.291 82.5244 214.863 79.7867 216.915 80.1257C217.902 80.2882 218.785 80.8363 219.368 81.6495C219.952 82.4627 220.188 83.4744 220.026 84.462C219.864 85.4496 219.315 86.3322 218.502 86.9157C217.689 87.4992 216.677 87.7357 215.69 87.5733L215.677 87.5759Z" fill="black"/>
<path opacity="0.25" d="M228.656 58.7332C228.654 60.8159 232.431 66.8588 232.431 66.8588C232.431 66.8588 236.204 60.8237 236.204 58.7435C236.217 58.2403 236.129 57.7395 235.946 57.2708C235.762 56.8021 235.487 56.3748 235.136 56.0143C234.784 55.6537 234.364 55.3672 233.901 55.1715C233.437 54.9759 232.939 54.8751 232.435 54.8751C231.932 54.8751 231.434 54.9759 230.97 55.1715C230.506 55.3672 230.086 55.6537 229.735 56.0143C229.384 56.3748 229.108 56.8021 228.925 57.2708C228.741 57.7395 228.653 58.2403 228.667 58.7435L228.656 58.7332Z" fill="black"/>
<path opacity="0.25" d="M213.394 68.0452C214.015 70.033 219.419 74.6684 219.419 74.6684C219.419 74.6684 221.216 67.7807 220.59 65.793C220.265 64.872 219.595 64.1131 218.722 63.6761C217.848 63.239 216.84 63.1579 215.908 63.4498C214.976 63.7417 214.193 64.3838 213.725 65.241C213.258 66.0981 213.14 67.1035 213.399 68.0452H213.394Z" fill="black"/>
<path opacity="0.25" d="M199.816 79.1319C200.093 81.1864 204.634 86.6745 204.634 86.6745C204.634 86.6745 207.564 80.1899 207.287 78.1277C207.232 77.6281 207.077 77.1445 206.833 76.7054C206.588 76.2662 206.258 75.8805 205.862 75.5708C205.466 75.2611 205.012 75.0338 204.527 74.9021C204.042 74.7704 203.535 74.737 203.037 74.804C202.539 74.8709 202.059 75.0369 201.626 75.292C201.193 75.5471 200.815 75.8862 200.515 76.2895C200.215 76.6927 199.999 77.1519 199.879 77.6401C199.758 78.1282 199.737 78.6354 199.816 79.1319Z" fill="black"/>
<path d="M199.929 93.5365C199.929 93.5365 201.639 75.9089 211.825 66.5352C216.121 62.6286 219.035 57.4348 220.13 51.7325C220.629 49.0216 220.877 46.2707 220.872 43.5144" stroke="#535461" stroke-width="2" stroke-miterlimit="10"/>
<path d="M227.257 37.5666C226.486 39.4979 220.723 43.6891 220.723 43.6891C220.723 43.6891 219.485 36.6806 220.264 34.7494C220.638 33.8221 221.366 33.0815 222.286 32.6907C223.207 32.2999 224.245 32.2907 225.173 32.6654C226.1 33.04 226.84 33.7676 227.231 34.6882C227.622 35.6088 227.631 36.647 227.257 37.5743V37.5666Z" fill="#1ABFB5"/>
<path d="M228.723 50.5922C227.02 51.789 219.914 52.1819 219.914 52.1819C219.914 52.1819 222.683 45.6229 224.385 44.4261C224.789 44.1239 225.25 43.9058 225.739 43.7847C226.229 43.6636 226.738 43.642 227.236 43.7211C227.734 43.8002 228.211 43.9785 228.639 44.2454C229.067 44.5122 229.437 44.8622 229.727 45.2747C230.018 45.6872 230.222 46.1537 230.329 46.6466C230.436 47.1396 230.442 47.6489 230.349 48.1445C230.255 48.6401 230.063 49.1119 229.784 49.5319C229.504 49.9519 229.144 50.3116 228.723 50.5896V50.5922Z" fill="#1ABFB5"/>
<path d="M221.106 68.7695C219.031 68.9441 212.698 65.6877 212.698 65.6877C212.698 65.6877 218.399 61.4246 220.474 61.25C221.471 61.1662 222.46 61.4817 223.223 62.127C223.987 62.7724 224.463 63.6948 224.547 64.6913C224.631 65.6877 224.315 66.6767 223.67 67.4405C223.025 68.2043 222.102 68.6805 221.106 68.7643V68.7695Z" fill="#1ABFB5"/>
<path d="M212.243 81.2223C210.227 81.736 203.437 79.6121 203.437 79.6121C203.437 79.6121 208.335 74.4476 210.351 73.9237C211.318 73.6727 212.346 73.8165 213.208 74.3234C214.07 74.8303 214.695 75.6588 214.946 76.6267C215.197 77.5945 215.053 78.6224 214.547 79.4843C214.04 80.3461 213.211 80.9713 212.243 81.2223Z" fill="#1ABFB5"/>
<path d="M212.423 49.5958C213.265 51.4987 219.157 55.5025 219.157 55.5025C219.157 55.5025 220.158 48.4555 219.316 46.5525C218.896 45.6622 218.145 44.9713 217.223 44.6275C216.3 44.2838 215.28 44.3143 214.38 44.7127C213.48 45.1111 212.771 45.8458 212.406 46.7596C212.04 47.6735 212.046 48.6941 212.423 49.6035V49.5958Z" fill="#1ABFB5"/>
<path d="M202.243 64.2906C203.617 65.8546 210.433 67.904 210.433 67.904C210.433 67.904 209.282 60.8801 207.908 59.3161C207.584 58.9362 207.187 58.6245 206.742 58.3991C206.296 58.1738 205.81 58.0393 205.311 58.0034C204.813 57.9676 204.313 58.0311 203.839 58.1903C203.366 58.3495 202.929 58.6012 202.553 58.9308C202.178 59.2604 201.872 59.6613 201.653 60.1102C201.434 60.5591 201.306 61.0471 201.277 61.5458C201.248 62.0445 201.319 62.5439 201.485 63.0151C201.65 63.4864 201.908 63.9199 202.243 64.2906Z" fill="#1ABFB5"/>
<path d="M194.31 79.9357C195.399 81.7077 201.77 84.8793 201.77 84.8793C201.77 84.8793 201.824 77.763 200.743 75.9885C200.205 75.1691 199.369 74.5916 198.412 74.3784C197.455 74.1653 196.453 74.3332 195.618 74.8466C194.783 75.3601 194.18 76.1786 193.939 77.1287C193.697 78.0787 193.835 79.0856 194.323 79.9357H194.31Z" fill="#1ABFB5"/>
<path d="M186.832 24.5025C187.258 22.9386 187.772 21.3669 188.131 19.7823C187.7 21.3669 187.183 22.9437 186.832 24.5025Z" fill="url(#paint0_linear_59_926)"/>
<path d="M184.921 39.5672C184.885 39.5056 184.859 39.4439 184.831 39.3874C184.831 39.3618 184.805 39.3412 184.795 39.3155C184.739 39.3419 184.682 39.3651 184.623 39.3849C184.51 39.4285 184.394 39.4696 184.276 39.503C184.158 39.5364 184.109 39.5544 184.02 39.5749C183.945 39.6006 183.869 39.6203 183.791 39.634L183.812 39.6802C183.907 39.6597 183.999 39.6417 184.094 39.616L184.12 39.9345C184.228 39.9345 184.328 39.919 184.425 39.919C184.471 39.9165 184.518 39.9165 184.564 39.919C184.764 39.919 184.939 39.919 185.078 39.919C185.024 39.8035 184.967 39.6828 184.921 39.5672ZM237.054 122.551C235.847 120.926 233.438 103.478 233.438 103.478C233.438 103.478 228.7 91.0711 229.992 86.1197C231.283 81.1684 226.463 68.4998 226.463 68.4998C226.463 68.4998 223.279 67.1156 223.107 65.0611C223.107 65.0611 210.104 60.952 209.495 57.8703C209.002 55.3433 200.938 53.5301 198.042 52.9575C197.158 49.3929 196.27 46.0672 195.615 44.2515C195.437 43.6865 195.271 43.1986 195.116 42.8133C194.01 39.9884 190.589 39.7316 188.108 39.9576C188 39.4761 187.801 39.02 187.52 38.6144C187.479 38.475 187.398 38.3508 187.286 38.2575C187.233 38.2121 187.176 38.1709 187.117 38.1342C187.072 38.051 187.013 37.9762 186.942 37.9133C186.872 37.8499 186.794 37.7947 186.711 37.749C186.651 37.7167 186.589 37.6884 186.526 37.6642C186.377 37.6075 186.223 37.5654 186.066 37.5384C185.883 37.5008 185.698 37.4767 185.512 37.4665C185.965 37.2682 186.369 36.9727 186.696 36.601C186.918 36.34 187.083 36.0357 187.181 35.7073C187.262 35.4342 187.299 35.1497 187.289 34.865C187.222 34.9823 187.145 35.0932 187.058 35.1963C187.165 34.0586 186.565 32.9029 186.22 31.7704C185.803 30.2959 185.726 28.7462 185.994 27.2376C186.339 24.9622 187.191 22.6612 187.769 20.3447C187.77 20.3319 187.77 20.319 187.769 20.3062C188.072 19.1558 188.26 17.9781 188.329 16.7904C188.429 14.3944 187.815 12.0034 186.829 9.82053C185.953 7.88673 184.662 5.98374 182.684 5.1979C181.215 4.60466 179.569 4.69968 177.987 4.60209C174.438 4.38123 171.053 3.13312 167.678 1.998C164.304 0.862889 160.832 -0.169501 157.28 0.0282455C153.728 0.225992 150.074 1.93894 148.453 5.08233C147.94 6.06336 147.645 7.15481 147.031 8.07677C145.88 9.8154 143.821 10.686 142.102 11.8853C140.384 13.0846 138.872 14.7873 138.25 16.8187C137.911 17.9131 137.863 19.0772 138.112 20.1958C138.167 20.4484 138.24 20.6972 138.327 20.9405C138.571 21.6191 138.951 22.2405 139.444 22.7665C139.816 23.1552 140.244 23.4867 140.713 23.7501C141.302 24.0767 141.933 24.322 142.588 24.4794C142.565 24.5565 142.542 24.6387 142.516 24.7183C142.475 24.8492 142.439 24.9751 142.4 25.1163C142.316 25.4322 142.236 25.7532 142.169 26.0768C142.167 26.0998 142.167 26.1231 142.169 26.1462C141.854 27.6069 141.695 29.0972 141.697 30.5916C141.696 31.2984 141.732 32.0047 141.805 32.7077C142.832 43.1292 151.435 51.3498 162.065 51.884C162.429 51.902 162.796 51.9122 163.169 51.9122C163.338 51.9122 163.505 51.9122 163.682 51.9122C163.849 52.1331 164.014 52.3591 164.17 52.5799C164.327 52.8008 164.471 53.0268 164.607 53.2477L164.235 52.8624L163.862 52.5209C163.761 52.6594 163.649 52.7892 163.526 52.9087C163.283 52.8232 163.035 52.7529 162.784 52.6981C161.718 52.4618 160.095 52.3745 157.958 53.0191C155.993 53.6072 153.592 54.8168 150.783 57.1153L137.092 65.3333L129.686 69.8378L127.017 76.3608C127.017 76.3608 125.012 84.1115 122.78 92.9921C122.693 93.0178 122.608 93.0434 122.523 93.0742C122.342 93.0537 122.16 93.0434 121.979 93.0434C120.684 93.0404 119.438 93.5393 118.503 94.4353C117.569 95.3312 117.017 96.5546 116.966 97.8484C112.528 103.241 112.276 108.635 113.319 111.11C113.413 111.342 113.532 111.563 113.673 111.77C114.356 112.756 115.633 115.299 116.927 118.008C116.894 118.232 116.873 118.419 116.863 118.56C116.861 118.607 116.861 118.653 116.863 118.699C116.863 118.699 117.633 130.335 115.065 133.671C114.503 134.398 114.587 135.353 115.065 136.411C116.786 140.217 123.589 145.3 123.589 145.3C123.589 145.3 131.748 145.256 136.293 144.76C136.281 145.218 136.27 145.672 136.26 146.116C136.157 150.606 136.157 154.368 136.157 154.368L135.988 159.075C135.988 159.075 134.447 168.996 133.676 171.731C133.191 173.447 133.751 189.33 134.239 201.008H214.627C215.572 194.099 214.239 173.11 214.239 173.11C214.239 173.11 212.973 167.684 212.926 162.953C212.924 162.948 212.923 162.942 212.923 162.936C212.923 162.931 212.924 162.925 212.926 162.92C212.926 162.506 212.926 162.103 212.942 161.708L213.525 161.687L214.573 161.651H214.668C214.668 161.651 214.693 161.553 214.752 161.394C214.891 160.998 215.08 160.62 215.315 160.272C215.762 159.612 216.46 158.965 217.511 158.921C218.091 158.898 218.99 158.428 220.004 157.735C220.011 157.736 220.018 157.736 220.025 157.735C222.755 155.888 226.363 152.48 227.239 151.92C228.443 151.15 234.211 146.014 234.211 146.014C234.211 146.014 235.071 144.925 235.988 143.613L236.022 143.566C237.162 141.923 238.374 139.958 238.076 139.339C237.563 138.23 238.42 135.577 238.42 135.577C241.099 130.674 238.261 124.177 237.054 122.551ZM187.394 43.5607C187.419 43.6373 187.434 43.7166 187.44 43.7969C187.376 43.7122 187.312 43.6223 187.248 43.5401L187.186 43.4579L187.142 43.3963L187.24 43.2628C187.24 43.2628 187.24 43.2628 187.24 43.2807C187.308 43.364 187.36 43.4588 187.394 43.5607ZM186.531 41.2853C186.251 41.3418 186.03 41.3932 185.887 41.4317C185.704 41.1081 185.53 40.7845 185.373 40.4558C185.785 40.6946 186.172 40.9724 186.531 41.2853ZM186.048 41.6911C186.048 41.6859 186.048 41.6808 186.048 41.6756L186.069 41.6911C186.174 41.7604 186.277 41.8272 186.372 41.8965C186.457 41.9581 186.534 42.0172 186.611 42.0788C186.559 42.1687 186.503 42.2612 186.446 42.3357C186.357 42.1944 186.272 42.0583 186.19 41.9171C186.138 41.8606 186.092 41.7835 186.048 41.6911ZM184.507 38.522C185.004 38.473 185.503 38.473 186 38.522C186.069 38.522 186.131 38.5348 186.192 38.5451C186.331 38.5666 186.468 38.6019 186.6 38.6504C186.904 39.075 187.091 39.5717 187.142 40.0911L187.004 40.1117L186.868 40.1373C186.611 40.181 186.354 40.2247 186.154 40.2657L185.897 40.3197C185.555 40.3941 185.358 40.4506 185.35 40.4532C185.316 40.3839 185.283 40.3197 185.247 40.2529C185.191 40.1425 185.132 40.0295 185.08 39.919C185.029 39.8086 184.962 39.6828 184.908 39.5672C184.872 39.5056 184.846 39.4439 184.818 39.3874C184.818 39.3618 184.793 39.3412 184.782 39.3155C184.767 39.2883 184.754 39.26 184.744 39.2308C184.587 38.9123 184.443 38.5939 184.305 38.2806C184.289 38.2498 184.276 38.2164 184.264 38.1856L184.459 38.1727V38.2395L184.507 38.522ZM123.234 197.833C123.214 194.01 122.937 189.872 122.166 185.989C121.837 184.338 121.498 182.687 121.154 181.064C121.067 180.658 120.982 180.257 120.897 179.857L120.106 179.962H120.035C117.877 169.789 115.622 160.827 115.622 160.827C115.622 160.827 111.144 143.726 111.662 142.362C111.729 142.185 111.644 141.707 111.454 141.006C110.371 137.118 105.846 126.403 104.264 122.741C104.264 122.726 104.251 122.708 104.246 122.695C103.989 122.081 103.804 121.668 103.747 121.547L104.12 116.082L104.14 115.753L104.189 115.055L104.169 115.037L104.189 114.713C104.189 114.713 100.28 111.508 93.6598 109.194C93.403 109.102 93.1308 109.012 92.8611 108.925C93.1924 106.714 93.6315 104.217 94.2042 101.785C94.2582 101.541 94.3172 101.305 94.3789 101.066C94.4328 100.827 94.4944 100.596 94.5561 100.363C94.6537 99.9825 94.7589 99.6076 94.8668 99.2378C95.2238 99.1248 95.5756 98.9989 95.9223 98.8654L96.0559 98.814C100.327 97.1521 103.851 93.9989 105.976 89.9382C108.101 85.8775 108.682 81.1845 107.612 76.7281C107.003 74.2007 105.876 71.8267 104.305 69.7556C104.187 69.5964 104.061 69.4372 103.935 69.2805C103.809 69.1238 103.658 68.9492 103.516 68.79C104.258 67.1027 105.134 65.4976 105.206 63.8566C105.219 63.6488 105.219 63.4404 105.206 63.2326V63.2069C105.111 62.1514 104.644 61.083 103.555 59.9608C101.965 58.3146 99.7026 57.4799 97.4401 57.0793C95.1776 56.6787 92.8714 56.6684 90.596 56.3987C86.8234 55.9468 83.1484 54.7834 79.3758 54.4264C74.729 53.9961 70.0506 54.7931 65.8084 56.7377C63.0014 58.0218 60.1585 60.2664 59.989 63.3456C59.8503 65.8906 61.6223 68.3303 61.1755 70.8445C60.7312 73.315 58.2144 75.2591 58.4353 77.7579C58.52 78.7338 59.0208 79.607 59.6474 80.3851C59.8632 80.6419 60.0917 80.8987 60.328 81.1555C61.2423 82.1237 62.249 83.0534 62.76 84.2733C62.7806 84.3246 62.8011 84.376 62.8191 84.4273C63.2531 85.6318 63.0579 87.1547 61.9844 87.8455C61.9904 87.8501 61.9949 87.8564 61.9973 87.8635C62.0127 87.8841 62.0281 87.8995 62.0409 87.92C62.0425 87.9159 62.0425 87.9113 62.0409 87.9072C62.4216 88.3584 62.9346 88.6783 63.5073 88.8214L63.7256 88.8882C63.5484 89.0808 63.3815 89.2811 63.212 89.4917L63.1016 89.6381C62.8186 90.0186 62.5612 90.4176 62.3311 90.8323C62.2002 91.0634 62.0743 91.2945 61.969 91.5257C61.617 92.2302 61.3622 92.9792 61.2114 93.7522C60.9366 95.4523 61.3244 97.2243 60.9084 98.8885C60.3948 100.943 58.7691 102.52 57.8523 104.428C56.1163 108.023 57.0999 112.243 57.4491 116.213C57.9242 121.606 57.1538 127.022 56.3859 132.38C55.9784 135.228 55.571 138.08 55.1635 140.934C54.1362 148.097 53.109 155.261 52.0817 162.424C51.7068 165.049 51.2625 167.817 49.5136 169.843H49.5316C49.5316 169.843 49.5316 169.859 49.5136 169.864C50.0386 170.093 50.597 170.237 51.1675 170.29C53.4505 170.519 55.8697 169.415 57.9242 168.208C59.5513 167.267 61.0921 166.185 62.5289 164.974C62.3183 165.745 62.0923 166.584 61.8509 167.488C61.8517 167.497 61.8517 167.506 61.8509 167.514C58.9515 178.557 54.2877 198.802 54.2877 198.802C54.2877 198.802 53.864 199.683 53.3144 200.995H125.736C124.888 199.968 124.1 198.984 123.484 198.19L123.234 197.833ZM69.6118 95.7246C69.6298 95.6937 69.6426 95.6655 69.6606 95.6372C69.6606 95.7194 69.6606 95.799 69.6606 95.8761C69.6606 95.9531 69.6606 96.0225 69.6606 96.0944C69.6606 96.1663 69.6606 96.1586 69.6606 96.1945C69.6606 96.2998 69.6375 96.4051 69.6195 96.5104C69.6195 96.5104 69.6195 96.5232 69.6195 96.5335L69.8763 96.6285L70.1742 96.7518C71.9342 97.4469 73.7165 98.0761 75.5211 98.6394C75.706 98.6985 75.8934 98.755 76.0809 98.8089L76.1194 99.1273C76.1657 99.4535 76.2093 99.7848 76.2504 100.116C76.2504 100.116 76.2504 100.131 76.2504 100.142C76.366 101.059 76.479 101.973 76.5791 102.867C76.5791 102.867 71.864 101.069 71.9231 103.799C71.9204 103.848 71.9204 103.896 71.9231 103.945C71.9179 104.01 71.9179 104.075 71.9231 104.14C71.9668 106.267 72.6319 107.528 72.7655 108.175C72.7575 108.202 72.7434 108.226 72.7244 108.247C72.6104 108.495 72.5712 108.77 72.6114 109.04C72.6069 109.5 72.643 109.959 72.7192 110.412C72.5806 110.496 72.4444 110.581 72.3083 110.669C72.2056 110.733 72.108 110.805 72.0079 110.877C71.3779 108.691 70.5536 106.567 69.545 104.528C68.8388 103.075 68.0452 101.559 68.0529 99.9645C68.0529 99.8618 68.0529 99.7565 68.0658 99.6512C68.0944 99.189 68.1824 98.7324 68.3277 98.2927C68.3868 98.1258 68.451 97.9614 68.5229 97.7996C68.6907 97.4152 68.8785 97.0397 69.0853 96.6748C69.2189 96.4334 69.3601 96.1945 69.4962 95.9531C69.5399 95.8812 69.581 95.8067 69.6221 95.7348L69.6118 95.7246ZM184.921 39.5672C184.885 39.5056 184.859 39.4439 184.831 39.3874C184.831 39.3618 184.805 39.3412 184.795 39.3155C184.739 39.3419 184.682 39.3651 184.623 39.3849C184.51 39.4285 184.394 39.4696 184.276 39.503C184.158 39.5364 184.109 39.5544 184.02 39.5749L183.791 39.634L183.812 39.6802C183.907 39.6597 183.999 39.6417 184.094 39.616L184.12 39.9345C184.228 39.9345 184.328 39.919 184.425 39.919H184.564C184.764 39.919 184.939 39.919 185.078 39.919C185.024 39.8035 184.967 39.6828 184.921 39.5672Z" fill="url(#paint1_linear_59_926)"/>
<path d="M128.807 77.2879L127.266 77.9685C127.266 77.9685 117.222 116.989 117.222 120.142C117.222 123.296 138.52 140.844 138.52 140.844L141.843 118.414C141.843 118.414 137.071 66.9769 128.807 77.2879Z" fill="#E8F5FF"/>
<path d="M175.524 64.8762L166.626 60.233C166.127 58.1082 165.243 56.0931 164.016 54.2878C162.714 52.4079 160.983 50.5614 158.826 49.5983C153.374 47.1535 181.888 34.3205 181.888 34.3205C182.337 35.8621 182.866 37.3794 183.473 38.8661C184.941 42.4923 187.379 47.1817 190.519 48.5172C195.859 50.79 175.524 64.8762 175.524 64.8762Z" fill="#FFC1C7"/>
<path opacity="0.1" d="M183.473 38.8661C182.254 43.151 179.721 46.945 176.229 49.7121C172.738 52.4793 168.466 54.0798 164.016 54.2878C162.714 52.4079 160.983 50.5614 158.826 49.5983C153.374 47.1535 181.888 34.3205 181.888 34.3205C182.337 35.8621 182.866 37.3794 183.473 38.8661Z" fill="black"/>
<path d="M184.274 32.3867C184.275 36.5891 183.03 40.6975 180.695 44.1921C178.361 47.6868 175.043 50.4107 171.161 52.0195C167.279 53.6283 163.007 54.0496 158.885 53.2302C154.763 52.4108 150.977 50.3875 148.005 47.4161C145.033 44.4447 143.01 40.6588 142.19 36.5371C141.37 32.4154 141.791 28.1432 143.399 24.2607C145.007 20.3782 147.731 17.0599 151.225 14.7254C154.72 12.391 158.828 11.1452 163.03 11.1457C165.823 11.1328 168.591 11.6734 171.174 12.7362C173.757 13.7991 176.104 15.3631 178.08 17.3381C180.055 19.313 181.619 21.6598 182.682 24.2427C183.745 26.8256 184.286 29.5936 184.274 32.3867Z" fill="#FFC1C7"/>
<path d="M187.34 62.1488L181.546 75.6674L176.436 84.6405H160.077L155.305 72.3725L157.239 59.65H169.733L177.8 59.1954L180.524 58.2863L182.281 59.2827L187.34 62.1488Z" fill="#575A89"/>
<path opacity="0.1" d="M185.345 44.1282C185.345 44.1282 188.958 44.8987 185.722 47.5515C182.486 50.2044 171.323 58.6407 171.323 58.6407C171.323 58.6407 175.244 62.1334 174.433 66.2244L187.425 58.9823L189.736 47.3949C189.736 47.3949 189.996 43.9125 185.345 44.1282Z" fill="black"/>
<path opacity="0.1" d="M173.878 58.6407L165.614 60.0044C165.614 60.0044 167.319 66.3092 166.466 68.0992C166.441 68.1548 166.419 68.2123 166.402 68.2712L163.03 77.3855L165.557 84.5429L174.304 72.614L171.323 68.0992C171.323 68.0992 174.474 63.9234 176.349 62.475C178.223 61.0265 173.878 58.6407 173.878 58.6407Z" fill="black"/>
<path d="M173.878 58.2889L165.614 59.65C165.614 59.65 167.319 65.9548 166.466 67.7448C166.441 67.8004 166.419 67.8579 166.402 67.9168L163.03 77.0311L165.557 84.1885L174.304 72.2518L171.323 67.7371C171.323 67.7371 174.474 63.5613 176.349 62.1129C178.223 60.6644 173.878 58.2889 173.878 58.2889Z" fill="#DCE6F2"/>
<path d="M185.691 43.4477C185.691 43.4477 189.305 44.2181 186.066 46.871C182.828 49.5239 171.323 58.6407 171.323 58.6407C171.323 58.6407 175.583 61.4528 174.774 65.5413L187.766 58.3018L190.078 46.7143C190.078 46.7143 190.335 43.232 185.691 43.4477Z" fill="#575A89"/>
<path opacity="0.1" d="M164.584 55.0916C164.584 55.0916 165.372 56.5657 168.852 59.2237C168.852 59.2237 163.058 62.3054 165.275 66.6379L156.412 64.3266L155.048 60.066L164.584 55.0916Z" fill="black"/>
<path d="M164.242 54.7526C164.242 54.7526 165.031 56.2267 168.511 58.8847C168.511 58.8847 162.717 61.951 164.933 66.2963L156.073 63.985L154.709 59.727L164.242 54.7526Z" fill="#575A89"/>
<path opacity="0.1" d="M187.34 62.1488L181.546 75.6675L176.446 84.6405H160.077L155.305 72.3725L157.236 59.65H160.711C160.655 62.6188 161.738 66.1063 161.669 67.4032C161.551 69.5348 164.848 81.0349 164.848 81.0349C164.848 81.0349 171.749 69.8738 174.474 68.8799C176.187 68.2558 179.816 63.0631 182.278 59.2828L187.34 62.1488Z" fill="black"/>
<path d="M210.163 133.289L209.575 134.028C209.575 134.028 213.836 155.413 212.657 160.269C212.456 161.145 212.342 162.038 212.315 162.935V162.974C212.107 167.915 213.599 174.327 213.599 174.327C213.599 174.327 214.791 193.229 214.113 201.003H134.342C133.874 189.508 133.371 174.615 133.828 172.964C134.598 170.239 136.139 160.354 136.139 160.354L136.309 155.67C136.309 155.67 136.309 151.142 136.447 146.098C136.507 143.831 136.594 141.45 136.72 139.339C136.881 136.684 137.107 134.447 137.418 133.348C137.61 132.515 137.72 131.665 137.747 130.81C137.747 130.731 137.747 130.649 137.762 130.566C137.762 130.31 137.788 130.032 137.798 129.747C137.798 129.668 137.798 129.588 137.798 129.49C137.847 127.836 137.829 125.874 137.775 123.84C137.775 123.73 137.775 123.617 137.775 123.504C137.731 121.979 137.667 120.422 137.595 118.943C137.372 114.32 137.082 110.412 137.082 110.412L127.284 77.9505L129.924 71.448L137.251 66.9589L150.798 58.7794C157.406 53.3478 161.756 54.0001 163.415 54.5959C163.577 54.6509 163.734 54.7152 163.888 54.7885C163.939 54.8142 163.98 54.8348 164.019 54.8579C164.072 54.8829 164.122 54.9121 164.17 54.9452C163.716 55.1637 163.321 55.4888 163.02 55.8928C162.68 56.3526 162.438 56.8769 162.309 57.4337C162.222 57.7788 162.161 58.1299 162.126 58.4841C162.093 58.8565 162.08 59.2417 162.08 59.6295C162.098 60.4799 162.171 61.3283 162.298 62.1693C162.298 62.1847 162.298 62.2053 162.298 62.2258C162.383 62.8268 162.488 63.4149 162.591 63.967C162.59 63.9764 162.59 63.9859 162.591 63.9953C162.709 64.6399 162.827 65.2357 162.907 65.7493C162.922 65.8418 162.935 65.9265 162.948 66.0061C163.005 66.3455 163.031 66.6893 163.028 67.0334C163.057 67.8643 163.168 68.6902 163.361 69.4988C163.428 69.8378 163.505 70.1999 163.59 70.5774C163.706 71.091 163.831 71.6509 163.968 72.221C164.042 72.5343 164.122 72.8579 164.204 73.1789C164.235 73.3073 164.268 73.4357 164.299 73.5667L164.35 73.7696C164.897 75.9448 165.49 78.1097 165.855 79.4195C166.071 80.1899 166.207 80.665 166.207 80.665C166.207 80.665 170.075 74.4116 173.161 70.8522C173.208 70.8008 173.249 70.752 173.292 70.7058C173.598 70.354 173.899 70.033 174.186 69.7505C174.815 69.1238 175.38 68.677 175.835 68.5126C175.932 68.4771 176.025 68.4333 176.115 68.3816C177.378 67.6651 179.417 65.0636 181.326 62.3388C181.513 62.082 181.695 61.8021 181.88 61.5376C182.304 60.9264 182.715 60.3126 183.103 59.7245C183.401 59.2751 183.686 58.8385 183.955 58.4224C185.239 56.4244 186.143 54.9349 186.143 54.9349L187.926 54.8553L188.236 54.8399H188.444L196.537 54.4649C196.537 54.4649 196.886 54.524 197.461 54.6396C197.492 54.6396 197.523 54.6396 197.556 54.6601C200.427 55.2302 208.404 57.0356 208.892 59.5396C209.488 62.6059 222.354 66.697 222.354 66.697C222.524 68.7515 225.675 70.1049 225.675 70.1049C225.675 70.1049 230.446 82.7144 229.17 87.6555C227.909 92.5349 232.452 104.605 232.573 104.944L231.702 106.043L210.163 133.289Z" fill="#E8F5FF"/>
<path opacity="0.1" d="M185.342 43.2319C185.342 43.2319 193.219 40.9977 195.009 45.5972C196.799 50.1967 200.802 68.772 200.802 68.772C200.802 68.772 190.406 70.7315 187.682 68.772C186.083 67.6091 184.105 67.0918 182.142 67.3236L176.264 71.3273L174.528 70.8137C174.528 70.8137 183.932 56.8328 185.976 52.0817C188.021 47.3307 188.712 45.2068 185.342 43.2319Z" fill="black"/>
<path d="M185.001 42.2047C185.001 42.2047 192.882 39.9704 194.68 44.5699C196.478 49.1695 200.474 67.7448 200.474 67.7448C200.474 67.7448 190.08 69.7043 187.353 67.7448C185.756 66.5818 183.778 66.0645 181.816 66.2963L175.932 70.3001L174.196 69.7864C174.196 69.7864 183.601 55.8055 185.645 51.0545C187.689 46.3034 188.37 44.1847 185.001 42.2047Z" fill="#E8F5FF"/>
<path opacity="0.1" d="M132.13 116.308C132.13 116.308 138.009 117.757 139.118 121.08C140.228 124.403 134.773 124.488 134.773 124.488C134.773 124.488 131.45 118.609 132.13 116.308Z" fill="black"/>
<path opacity="0.1" d="M154.026 140.844C154.026 140.844 139.629 170.324 142.953 173.136C146.276 175.948 154.026 140.844 154.026 140.844Z" fill="black"/>
<path opacity="0.1" d="M173.878 119.12C173.878 119.12 185.381 147.755 183.08 152.177C180.779 156.6 188.021 152.177 188.021 152.177L173.878 119.12Z" fill="black"/>
<path d="M189.895 147.406C189.895 147.406 151.045 149.28 162.378 161.379C173.711 173.477 196.968 161.892 196.968 161.892L189.895 147.406Z" fill="#FFC1C7"/>
<path opacity="0.1" d="M184.274 32.3867C184.277 35.1732 183.73 37.9329 182.664 40.5071C182.307 40.5482 181.95 40.5739 181.605 40.5893C181.092 39.4619 181.367 38.1599 181.377 36.9195C181.387 35.6791 180.93 34.2204 179.736 33.8865C177.355 33.2162 175.712 37.6668 173.364 36.863C171.567 36.2517 172.037 33.5244 171.002 31.9501C170.182 30.7046 168.541 30.3527 167.265 29.572C164.551 27.9053 164.633 25.2396 163.372 22.7177C162.052 20.0751 159.263 20.8558 156.841 22.4146C155.002 23.6011 153.415 25.1908 151.448 26.1359C149.745 26.9577 147.832 27.2556 145.944 27.2992C144.782 27.3443 143.62 27.2214 142.493 26.9346C143.818 21.9508 146.912 17.6194 151.195 14.7479C155.479 11.8765 160.661 10.6611 165.774 11.3285C170.888 11.9958 175.584 14.5003 178.988 18.3749C182.391 22.2495 184.269 27.2297 184.271 32.3867H184.274Z" fill="black"/>
<path d="M156.849 21.7341C155.007 22.9206 153.423 24.5077 151.456 25.4579C149.753 26.2771 147.84 26.575 145.952 26.6187C143.641 26.67 141.152 26.2643 139.573 24.595C138.122 23.0541 137.775 20.6837 138.389 18.6626C139.003 16.6415 140.474 14.9645 142.203 13.7498C143.931 12.535 145.937 11.6953 147.082 9.95664C147.688 9.03724 147.981 7.95349 148.484 6.97503C150.094 3.84448 153.716 2.14951 157.216 1.93893C160.716 1.72834 164.186 2.771 167.519 3.90098C170.853 5.03096 174.212 6.27393 177.73 6.50763C179.297 6.60522 180.925 6.50763 182.378 7.10087C184.333 7.89442 185.614 9.79227 186.487 11.7235C187.466 13.9013 188.075 16.2794 187.972 18.6575C187.756 23.7347 184.402 28.7168 185.876 33.5809C186.267 34.8778 186.999 36.2081 186.608 37.505C186.038 39.3977 183.596 39.8292 181.621 39.919C181.107 38.7916 181.382 37.487 181.392 36.2492C181.403 35.0113 180.945 33.5501 179.754 33.2162C177.371 32.5511 175.727 36.9939 173.385 36.1927C171.6 35.5789 172.062 32.8541 171.025 31.2798C170.206 30.0317 168.562 29.6825 167.288 28.9017C164.574 27.235 164.656 24.5693 163.395 22.0474C162.065 19.392 159.273 20.1727 156.849 21.7341Z" fill="#99607E"/>
<path d="M119.177 119.459L117.217 120.142C117.217 120.142 117.988 131.73 115.42 135.053C112.851 138.376 123.853 146.638 123.853 146.638C123.853 146.638 138.933 146.553 139.36 145.354C139.786 144.154 138.589 123.884 138.589 123.884C138.589 123.884 130.494 120.73 131.175 115.705C131.175 115.705 128.705 127.546 125.042 127.035C121.38 126.524 117.222 123.466 119.177 119.459Z" fill="#E8F5FF"/>
<path opacity="0.1" d="M125.713 130.62C128.568 130.62 130.882 128.504 130.882 125.892C130.882 123.281 128.568 121.164 125.713 121.164C122.858 121.164 120.543 123.281 120.543 125.892C120.543 128.504 122.858 130.62 125.713 130.62Z" fill="black"/>
<path d="M131.365 119.801C131.365 119.801 130.338 88.449 121.396 95.4344C112.453 102.42 112.366 110.774 114.069 113.242C115.771 115.71 121.231 128.065 121.231 128.065C122.085 128.56 123.044 128.846 124.03 128.898C125.016 128.951 126 128.77 126.902 128.369C127.804 127.968 128.598 127.359 129.22 126.592C129.841 125.825 130.272 124.922 130.477 123.956L131.365 119.801Z" fill="#FFC1C7"/>
<path opacity="0.1" d="M187.147 40.3864C187.106 40.2487 187.026 40.1257 186.916 40.032C186.475 39.6288 185.524 39.4876 184.091 39.6109L184.15 40.2889C186.061 40.1245 186.439 40.5046 186.487 40.5688V40.633L186.547 40.7177C186.785 41.0379 186.954 41.4043 187.042 41.7935C187.13 42.1826 187.137 42.586 187.06 42.9777C186.642 45.0707 184.071 46.7374 184.045 46.7554L183.984 46.7914L183.945 46.8504C182.836 48.4966 176.562 53.1424 174.921 54.3442L174.777 54.1799C174.042 54.8168 167.586 60.4692 167.237 62.6342C167.011 63.9927 165.48 64.5192 164.925 64.6656C164.34 64.2213 162.439 62.7086 161.451 61.0137C160.524 59.4189 164.255 56.3063 164.584 55.0916L164.07 54.5651C164.016 54.7603 159.224 59.2391 160.557 61.5273C161.625 63.3635 163.577 64.9352 164.26 65.454C164.042 67.4366 162.683 79.0779 160.596 81.8361C158.002 85.2646 155.821 102.543 156.063 108.575C156.276 113.935 154.876 124.059 150.202 128.407C149.393 129.192 148.417 129.785 147.347 130.141C146.276 130.497 145.139 130.606 144.021 130.461H143.964H143.908C143.841 130.461 137.061 131.155 131.365 126.352C126.704 122.431 124.064 116.031 123.514 107.325H123.401L123.355 104.79C124.619 104.593 125.757 103.913 126.53 102.895C127.304 101.876 127.652 100.597 127.502 99.3265C127.353 98.0562 126.716 96.8934 125.727 96.0825C124.738 95.2715 123.473 94.8755 122.198 94.9777C120.923 95.0799 119.737 95.6723 118.89 96.6304C118.042 97.5885 117.599 98.8378 117.654 100.116C117.708 101.394 118.256 102.601 119.181 103.484C120.107 104.366 121.339 104.856 122.618 104.849H122.675L122.721 107.368L122.495 107.384C123.06 116.372 125.833 123.021 130.713 127.128C134.422 130.201 139.159 131.751 143.967 131.465C144.308 131.503 144.651 131.521 144.994 131.522C147.198 131.533 149.319 130.68 150.901 129.146C155.824 124.562 157.321 114.066 157.088 108.524C156.831 102.132 159.119 85.4751 161.415 82.4422C163.664 79.4657 165.028 67.868 165.267 65.6209C166.081 65.3923 167.922 64.6707 168.236 62.796C168.462 61.44 172.774 57.2616 175.427 54.9478L175.347 54.8553C176.775 53.8126 181.215 50.5254 183.416 48.4144C184.099 47.7595 184.777 47.1047 185.486 46.4806C186.339 45.7256 187.422 44.5263 187.707 43.1087C187.805 42.6407 187.805 42.1578 187.709 41.6897C187.612 41.2216 187.421 40.7781 187.147 40.3864Z" fill="black"/>
<path d="M164.173 65.2922C164.065 65.2177 161.507 63.3866 160.226 61.1832C158.895 58.895 163.688 54.4187 163.739 54.2235L164.253 54.75C163.926 55.9622 160.195 59.0773 161.122 60.6696C162.291 62.6804 164.751 64.4396 164.776 64.4576L164.173 65.2922Z" fill="#353146"/>
<path d="M174.587 54.8425L174.186 54.2903C174.268 54.2312 182.335 48.3965 183.606 46.5089L183.647 46.4524L183.706 46.4139C183.732 46.3959 186.303 44.7317 186.721 42.6361C186.798 42.2449 186.793 41.8418 186.704 41.4529C186.616 41.064 186.446 40.6981 186.208 40.3787L186.149 40.2914V40.2298C186.097 40.163 185.72 39.7855 183.809 39.9499L183.75 39.2693C185.185 39.146 186.133 39.2873 186.575 39.6905C186.685 39.7851 186.766 39.9088 186.809 40.0475C187.086 40.4379 187.281 40.8811 187.381 41.3498C187.481 41.8184 187.483 42.3025 187.389 42.7722C187.104 44.1924 186.023 45.3917 185.167 46.1442C184.461 46.7683 183.781 47.4283 183.1 48.078C180.519 50.5511 174.869 54.6396 174.587 54.8425Z" fill="#E8F5FF"/>
<path d="M123.024 103.896L122.343 103.908L122.419 108.045L123.1 108.033L123.024 103.896Z" fill="#E8F5FF"/>
<path d="M122.287 104.523C125.031 104.523 127.256 102.298 127.256 99.5536C127.256 96.8091 125.031 94.5843 122.287 94.5843C119.542 94.5843 117.317 96.8091 117.317 99.5536C117.317 102.298 119.542 104.523 122.287 104.523Z" fill="#1ABFB5"/>
<path d="M122.287 103.681C124.566 103.681 126.414 101.833 126.414 99.5536C126.414 97.2744 124.566 95.4266 122.287 95.4266C120.007 95.4266 118.16 97.2744 118.16 99.5536C118.16 101.833 120.007 103.681 122.287 103.681Z" fill="#E8F5FF"/>
<path d="M144.671 131.19C144.327 131.191 143.985 131.173 143.643 131.137C138.836 131.42 134.099 129.87 130.389 126.799C125.51 122.69 122.741 116.049 122.171 107.053L123.198 106.988C123.748 115.694 126.388 122.097 131.052 126.016C136.748 130.805 143.525 130.125 143.592 130.125H143.648H143.705C144.824 130.269 145.961 130.159 147.032 129.803C148.102 129.448 149.079 128.855 149.889 128.07C154.56 123.722 155.96 113.599 155.747 108.239C155.49 102.201 157.67 84.923 160.267 81.4971C162.54 78.495 163.95 64.9635 163.965 64.8274L164.003 64.4421L164.384 64.3754C164.407 64.3754 166.626 63.9542 166.903 62.2952C167.262 60.1328 173.708 54.4803 174.44 53.8409L175.111 54.6113C172.448 56.9226 168.136 61.1036 167.92 62.4621C167.607 64.342 165.765 65.0611 164.954 65.287C164.697 67.5367 163.343 79.1318 161.102 82.1083C158.806 85.1413 156.517 101.798 156.774 108.19C156.995 113.732 155.513 124.231 150.59 128.812C149.005 130.35 146.879 131.204 144.671 131.19Z" fill="#353146"/>
<g opacity="0.1">
<path d="M186.462 26.3156C186.883 24.7594 187.391 23.1928 187.746 21.616C187.322 23.2005 186.811 24.7594 186.462 26.3156Z" fill="black"/>
<path d="M182.165 38.5451C181.652 37.4177 181.926 36.1131 181.937 34.8752C181.947 33.6374 181.49 32.189 180.298 31.8423C177.915 31.1771 176.271 35.6226 173.929 34.8187C172.132 34.205 172.607 31.4802 171.569 29.9059C170.75 28.6578 169.109 28.3085 167.835 27.5278C165.118 25.8611 165.2 23.1954 163.942 20.6735C162.619 18.0283 159.833 18.809 157.409 20.3704C155.567 21.5569 153.983 23.1466 152.015 24.0942C150.313 24.9134 148.4 25.2114 146.512 25.255C144.213 25.3089 141.712 24.9006 140.133 23.2313C138.915 21.9473 138.476 20.0648 138.728 18.3005C138.684 18.4212 138.646 18.5419 138.607 18.6626C137.991 20.6837 138.35 23.0593 139.791 24.595C141.371 26.2643 143.872 26.67 146.17 26.6187C148.061 26.575 149.971 26.2771 151.676 25.4579C153.649 24.5077 155.233 22.9206 157.07 21.7341C159.494 20.1727 162.283 19.392 163.603 22.0371C164.861 24.559 164.782 27.2248 167.496 28.8915C168.78 29.6619 170.411 30.0215 171.233 31.2696C172.26 32.849 171.805 35.5686 173.593 36.1824C175.932 36.9837 177.576 32.5408 179.959 33.2059C181.151 33.5398 181.611 35.0036 181.598 36.2389C181.585 37.4742 181.318 38.7814 181.826 39.9088C183.801 39.8189 186.244 39.3951 186.816 37.4947C186.895 37.222 186.931 36.9388 186.924 36.6549C186.089 38.0957 183.942 38.4655 182.165 38.5451Z" fill="black"/>
</g>
<path opacity="0.1" d="M228.579 101.824L231.561 104.978C231.561 104.978 233.947 122.356 235.138 123.982C236.33 125.607 239.144 132.074 236.502 136.93C236.502 136.93 235.649 139.573 236.16 140.68C236.671 141.787 232.329 147.326 232.329 147.326C232.329 147.326 226.62 152.437 225.426 153.204C224.231 153.972 217.929 160.105 215.8 160.19C213.671 160.275 212.975 162.917 212.975 162.917L200.961 163.343C200.961 163.343 194.325 162.997 192.882 163.934C192.882 163.934 193.653 153.795 186.238 147.149L195.694 143.741C195.694 143.741 199.274 142.2 200.381 140.59C201.077 139.603 202.065 138.858 203.206 138.461C203.206 138.461 205.846 136.586 205.931 135.564C206.016 134.542 209.159 133.289 209.159 133.289L207.379 118.098L208.317 92.8791C208.317 92.8791 211.298 71.7485 217.603 72.9427C223.908 74.1368 228.579 101.824 228.579 101.824Z" fill="black"/>
<path d="M229.606 101.824L232.588 104.978C232.588 104.978 234.974 122.356 236.165 123.982C237.357 125.607 240.172 132.074 237.529 136.93C237.529 136.93 236.679 139.573 237.19 140.68C237.701 141.787 233.356 147.326 233.356 147.326C233.356 147.326 227.647 152.437 226.453 153.204C225.259 153.972 218.956 160.105 216.827 160.19C214.698 160.275 214.002 162.917 214.002 162.917L201.989 163.343C201.989 163.343 195.348 162.997 193.909 163.934C193.909 163.934 194.68 153.795 187.266 147.149L196.722 143.741C196.722 143.741 200.301 142.2 201.408 140.59C202.105 139.603 203.092 138.858 204.233 138.461C204.233 138.461 206.873 136.586 206.958 135.564C207.043 134.542 210.186 133.289 210.186 133.289L208.407 118.098L209.344 92.8791C209.344 92.8791 212.325 71.7485 218.63 72.9427C224.935 74.1368 229.606 101.824 229.606 101.824Z" fill="#E8F5FF"/>
<path opacity="0.1" d="M218.522 127.3C218.522 127.3 227.298 124.988 229.599 127.813C231.9 130.638 218.522 127.3 218.522 127.3Z" fill="black"/>
<path opacity="0.1" d="M216.478 131.175C219.46 133.263 228.661 133.348 228.661 133.348L216.478 131.175Z" fill="black"/>
<path opacity="0.1" d="M220.993 141.612C221.25 141.697 227.318 148.174 229.866 146.214C232.413 144.255 220.993 141.612 220.993 141.612Z" fill="black"/>
<path opacity="0.1" d="M139.265 87.2549C139.265 87.2549 141.047 99.5254 140.169 104.523C139.29 109.521 142.495 115.712 142.495 115.712L139.265 87.2549Z" fill="black"/>
<path d="M99.8079 92.2447C97.7534 93.855 96.2536 97.6661 95.1673 101.855C93.272 109.161 92.6531 117.633 92.6531 117.633C92.6531 117.633 76.2941 113.884 77.4857 112.181C78.2356 111.11 77.2289 103.041 76.3891 97.191C75.8883 93.7343 75.4415 91.0506 75.4415 91.0506C75.4415 91.0506 105.432 87.8121 99.8079 92.2447Z" fill="#FFCCD0"/>
<path opacity="0.1" d="M99.8079 91.9032C97.7534 93.516 96.2536 97.3245 95.1673 101.513C91.9079 102.503 88.4415 102.592 85.1356 101.771C81.8296 100.951 78.8073 99.251 76.3891 96.852C75.8883 93.3927 75.4415 90.709 75.4415 90.709C75.4415 90.709 105.432 87.4732 99.8079 91.9032Z" fill="black"/>
<path d="M108.601 82.7247C108.603 87.1915 107.024 91.5149 104.145 94.9297C101.265 98.3445 97.2707 100.631 92.8677 101.383C88.4648 102.136 83.9376 101.307 80.0872 99.0425C76.2369 96.7782 73.3117 93.2247 71.8294 89.011C70.3471 84.7973 70.4033 80.1951 71.988 76.0189C73.5727 71.8426 76.5837 68.3616 80.4882 66.192C84.3926 64.0223 88.9388 63.3039 93.322 64.1638C97.7053 65.0238 101.643 67.4066 104.438 70.8907C107.132 74.2468 108.6 78.4213 108.601 82.7247Z" fill="#FFCCD0"/>
<path opacity="0.1" d="M123.517 201.003H118.124L117.669 191.477L117.194 181.618C117.194 181.618 118.419 181.436 120.371 181.164L121.159 181.058H121.224C121.65 183.059 122.071 185.114 122.477 187.165C123.152 190.808 123.504 194.504 123.527 198.208C123.527 198.465 123.527 198.722 123.527 198.963C123.543 199.649 123.527 200.335 123.517 201.003Z" fill="black"/>
<path d="M122.482 201.003H54.8476C55.1404 200.337 55.3355 199.934 55.3355 199.934C55.3355 199.934 60.7466 176.261 63.4971 166.245C63.4979 166.237 63.4979 166.228 63.4971 166.22C63.8407 164.859 64.2556 163.518 64.74 162.201C64.7713 162.111 64.8118 162.025 64.8607 161.944C66.2219 159.73 67.9271 157.344 65.5413 153.936C63.1555 150.528 64.0004 135.533 64.0004 135.533C64.0004 135.533 66.8973 122.752 69.9636 115.936C70.429 114.88 71.0894 113.922 71.9103 113.111C72.1771 112.85 72.4621 112.608 72.7629 112.387C72.9916 112.215 73.23 112.056 73.4768 111.911L73.5256 111.881C74.8137 111.15 76.2441 110.706 77.7194 110.579C78.7673 110.469 79.8251 110.498 80.8654 110.666C85.8373 111.395 89.8179 112.615 92.9818 114.005C101.557 117.772 104.153 122.821 104.205 122.926L104.225 122.97C104.569 123.774 109.603 135.525 111.416 141.008C111.886 142.436 112.143 143.44 112.04 143.715C111.526 145.076 115.959 162.116 115.959 162.116C115.959 162.116 118.013 170.334 120.068 179.967C120.158 180.368 120.243 180.768 120.325 181.174C120.692 182.923 121.057 184.705 121.408 186.485C122.09 190.153 122.442 193.874 122.459 197.605C122.496 198.767 122.504 199.9 122.482 201.003Z" fill="#FF748E"/>
<path opacity="0.1" d="M77.3162 104.718C77.3162 104.718 72.6499 102.92 72.7064 105.648C72.7629 108.375 73.8441 109.68 73.5025 110.078C73.1609 110.476 73.672 112.862 73.672 112.862C73.672 112.862 79.9768 112.862 82.8736 114.166C85.7705 115.471 96.4488 118.085 97.8125 118.881C99.1761 119.678 104.233 123.247 104.233 123.247L104.687 116.488C104.687 116.488 99.4612 112.171 90.8862 109.957C82.3112 107.743 77.3162 104.718 77.3162 104.718Z" fill="black"/>
<path d="M77.3162 104.377C77.3162 104.377 72.6499 102.579 72.7064 105.306C72.7629 108.034 73.8441 109.338 73.5025 109.736C73.1609 110.134 73.672 112.52 73.672 112.52C73.672 112.52 79.9768 112.52 82.8736 113.827C85.7705 115.134 96.4488 117.746 97.8125 118.54C99.1761 119.333 104.233 122.906 104.233 122.906L104.692 116.167C104.692 116.167 99.4663 111.85 90.8913 109.636C82.3163 107.422 77.3162 104.377 77.3162 104.377Z" fill="#FF748E"/>
<path opacity="0.1" d="M91.4024 120.643C91.4024 120.643 100.319 130.297 99.8644 132.97C99.4098 135.644 91.4024 120.643 91.4024 120.643Z" fill="black"/>
<path opacity="0.1" d="M76.9181 155.516C76.9181 155.516 70.3822 161.538 68.4561 161.88C66.53 162.221 69.9328 163.356 72.1465 162.45C74.3603 161.543 79.0805 159.157 79.0805 159.157L76.9181 155.516Z" fill="black"/>
<path d="M125.137 201.003H109.896C107.764 199.154 105.748 197.441 104.464 196.411C102.409 194.762 100.928 192.335 99.9825 190.383C99.7694 189.939 99.5845 189.523 99.4278 189.146C99.1473 188.495 98.9004 187.831 98.6882 187.155L109.975 180.452C110.599 180.983 111.185 181.556 111.729 182.168L111.865 182.325C112.492 183.064 113.044 183.904 113.093 184.592C113.149 185.393 115.378 188.493 117.656 191.47C119.968 194.497 122.336 197.392 122.492 197.587C122.492 197.587 122.883 198.119 123.519 198.935C123.969 199.526 124.524 200.235 125.137 201.003Z" fill="#FFCCD0"/>
<path opacity="0.1" d="M104.438 70.8907C103.896 72.1132 103.411 73.3818 103.339 74.7429C103.136 78.6722 103.465 87.4577 99.1145 89.4301C96.9598 90.4008 94.6536 88.2693 92.291 88.2179C90.5909 88.182 89.032 89.2606 87.9945 90.6088C86.957 91.9571 86.3124 93.5571 85.5599 95.0825C84.8749 96.4671 84.086 97.7978 83.1998 99.0631C82.9349 99.4504 82.6431 99.8185 82.3266 100.165C79.6739 99.0455 77.3117 97.3354 75.42 95.1648C73.5283 92.9943 72.157 90.4205 71.4107 87.6397C70.6643 84.8589 70.5626 81.9444 71.1132 79.1184C71.6639 76.2923 72.8523 73.6292 74.5881 71.332C76.3238 69.0348 78.561 67.1642 81.1292 65.8626C83.6975 64.561 86.5289 63.8628 89.4078 63.8212C92.2867 63.7796 95.1371 64.3958 97.7419 65.6227C100.347 66.8496 102.637 68.6549 104.438 70.901V70.8907Z" fill="black"/>
<path d="M102.998 74.0495C102.792 77.9788 103.123 86.7643 98.7704 88.7341C96.6157 89.7049 94.3095 87.5759 91.9468 87.5245C90.2467 87.486 88.6904 88.5672 87.6504 89.9129C86.6103 91.2586 85.9708 92.8611 85.2158 94.3891C84.5306 95.7736 83.7416 97.1043 82.8557 98.3697C82.3266 99.1196 81.7411 99.8721 80.927 100.293C79.5094 101.033 77.7913 100.617 76.271 100.142C74.2986 99.5203 72.3554 98.82 70.4413 98.041C70.4852 97.752 70.5075 97.4602 70.5081 97.1679C70.4516 97.2757 70.3899 97.3759 70.3283 97.4837L70.2076 97.6943C69.9893 98.0795 69.7762 98.4648 69.581 98.8602C69.5065 99.0118 69.4346 99.1684 69.3704 99.3251C69.1121 99.9081 68.9499 100.529 68.8902 101.164C68.7592 102.877 69.6041 104.502 70.354 106.043C73.238 112.004 75.0203 118.974 72.8502 125.227C71.9103 127.947 70.2821 130.364 69.093 132.991C67.0145 137.644 66.4026 142.82 67.339 147.829C67.9322 150.942 69.1213 154.024 68.8285 157.18C68.3149 162.612 63.6306 166.654 58.9386 169.433C56.4039 170.927 53.3016 172.257 50.6102 171.076C52.3257 169.073 52.7674 166.302 53.1372 163.688C54.1491 156.557 55.1635 149.423 56.1805 142.285C56.5862 139.444 56.9911 136.604 57.3952 133.764C58.1502 128.427 58.9155 123.032 58.443 117.662C58.0989 113.704 57.1281 109.503 58.8436 105.92C59.7502 104.022 61.3655 102.451 61.8689 100.406C62.2823 98.7447 61.8971 96.9778 62.1693 95.2854C62.3183 94.5154 62.5706 93.7691 62.9192 93.0665C63.3632 92.1133 63.9428 91.2292 64.6399 90.4419C63.9516 90.2416 63.3096 89.9668 62.9192 89.3915C64.0235 88.6725 64.1905 87.052 63.6897 85.8347C63.1889 84.6174 62.1873 83.6903 61.2859 82.7298C60.3845 81.7693 59.5165 80.6496 59.4035 79.3399C59.1852 76.8462 61.6763 74.915 62.1154 72.4547C62.5597 69.9508 60.8031 67.5162 60.9443 64.9815C61.1087 61.9177 63.9234 59.6911 66.7021 58.3993C70.8953 56.4582 75.5274 55.6608 80.1283 56.088C83.8726 56.4424 87.4963 57.6006 91.2303 58.0501C93.4826 58.3069 95.7657 58.3326 98.0025 58.728C100.239 59.1235 102.481 59.9582 104.056 61.5992C108.206 65.9265 103.234 69.4885 102.998 74.0495Z" fill="#FFE0D0"/>
<path opacity="0.1" d="M99.5254 190.386C98.2157 189.818 95.8324 190.157 91.7414 188.912C87.6504 187.666 86.8619 182.037 86.8619 182.037V182.019C86.8131 181.891 86.4331 181.053 83.8598 178.121C81.0169 174.882 74.8713 158.526 74.8713 158.526C74.8713 158.526 69.4217 152.673 69.5938 150.516C69.7659 148.358 68.6256 142.619 68.7386 136.198C68.8516 129.778 81.0066 125.52 81.0066 125.52C104.41 121.372 98.8988 148.353 98.2747 150.398C97.6507 152.442 100.889 157.963 100.889 157.963C100.432 160.367 102.764 164.088 102.764 164.088C102.764 164.088 103.329 167.381 103.444 168.631C103.451 168.689 103.464 168.746 103.483 168.801C103.858 169.98 106.914 171.048 108.157 171.698C109.464 172.381 113.668 178.344 113.668 178.344C114.575 182.723 100.83 190.961 99.5254 190.386Z" fill="black"/>
<path d="M100.206 189.359C98.8988 188.789 96.513 189.13 92.4245 187.882C88.336 186.634 87.5451 181.01 87.5451 181.01V180.992C87.4988 180.861 87.1162 180.026 84.5429 177.093C81.7 173.855 75.5545 157.496 75.5545 157.496C75.5545 157.496 70.1049 151.646 70.2744 149.488C70.4439 147.331 69.3088 141.591 69.4218 135.176C69.5348 128.761 81.682 124.506 81.682 124.506C105.085 120.358 99.5742 147.339 98.9501 149.383C98.3261 151.427 101.564 156.949 101.564 156.949C101.107 159.353 103.439 163.074 103.439 163.074C103.439 163.074 104.004 166.366 104.122 167.617C104.127 167.675 104.139 167.732 104.158 167.786C104.533 168.965 107.589 170.033 108.835 170.683C110.139 171.364 114.346 177.33 114.346 177.33C115.258 181.7 101.513 189.939 100.206 189.359Z" fill="#FF748E"/>
<path opacity="0.1" d="M82.1443 138.592C82.1443 138.592 92.368 149.378 95.0363 149.378C97.7046 149.378 82.1443 138.592 82.1443 138.592Z" fill="black"/>
<path d="M100.206 189.359C98.8988 188.789 96.513 189.13 92.4245 187.882C88.336 186.634 87.5451 181.01 87.5451 181.01V180.992C90.2544 179.194 97.1165 174.117 99.8207 172.26C101.724 170.958 103.277 169.045 104.187 167.776C104.562 168.955 107.618 170.023 108.863 170.673C110.168 171.353 114.374 177.319 114.374 177.319C115.258 181.7 101.513 189.939 100.206 189.359Z" fill="#FF748E"/>
<g opacity="0.1">
<path d="M62.9347 89.4198C62.9475 89.4403 62.9655 89.4583 62.9809 89.4789C63.0579 89.3813 63.1375 89.2837 63.2197 89.1912C63.1322 89.2763 63.0367 89.3529 62.9347 89.4198Z" fill="black"/>
<path d="M68.8927 101.192C69.0006 99.7668 69.7633 98.511 70.4773 97.2577C70.0099 97.0779 69.5425 96.8956 69.0802 96.7056C69.1242 96.4174 69.1465 96.1264 69.147 95.835C68.4253 97.119 67.6395 98.3826 67.529 99.8284C67.3981 101.544 68.243 103.167 68.9929 104.708C71.8795 110.666 73.6592 117.636 71.4891 123.892C70.5466 126.609 68.921 129.028 67.7319 131.655C65.6541 136.308 65.0432 141.483 65.9805 146.491C66.5686 149.607 67.7602 152.686 67.4674 155.842C66.9538 161.274 62.2721 165.316 57.5775 168.092C55.6591 169.227 53.4172 170.267 51.2728 170.193C51.0743 170.512 50.8528 170.817 50.6102 171.104C53.3042 172.293 56.4039 170.955 58.9386 169.456C63.6358 166.682 68.3277 162.65 68.8414 157.208C69.1341 154.052 67.9425 150.973 67.3518 147.858C66.4143 142.85 67.0234 137.675 69.0982 133.022C70.2795 130.397 71.9231 127.975 72.8553 125.258C75.0254 119.002 73.2431 112.032 70.3591 106.074C69.6118 104.523 68.7617 102.908 68.8927 101.192Z" fill="black"/>
<path d="M104.05 61.63C103.798 61.3709 103.527 61.1305 103.239 60.9109C106.351 64.9481 101.857 68.3791 101.634 72.7244C101.434 76.6536 101.762 85.4417 97.4093 87.4089C95.2572 88.3823 92.9484 86.2507 90.5883 86.1993C88.8856 86.1634 87.3293 87.2446 86.2892 88.5903C85.2492 89.936 84.6097 91.5385 83.8572 93.064C83.1708 94.4483 82.381 95.7789 81.4945 97.0446C80.9809 97.797 80.38 98.5469 79.5633 98.9707C78.1508 99.7077 76.4328 99.2943 74.9099 98.8166C73.4289 98.3509 71.9616 97.8373 70.5081 97.2757C70.5051 97.5432 70.4828 97.8101 70.4413 98.0744C72.3571 98.8551 74.3012 99.5554 76.2735 100.175C77.7939 100.653 79.5119 101.066 80.927 100.329C81.7411 99.9055 82.3318 99.153 82.8582 98.4005C83.7453 97.1367 84.5343 95.8068 85.2183 94.4225C85.9734 92.897 86.6103 91.292 87.6529 89.9463C88.6956 88.6006 90.2493 87.5219 91.9494 87.5579C94.3121 87.6093 96.6208 89.7408 98.7729 88.7675C103.126 86.8003 102.795 78.0121 102.998 74.0829C103.234 69.5142 108.206 65.9548 104.05 61.63Z" fill="black"/>
</g>
<path opacity="0.1" d="M70.2102 97.6969C69.9919 98.0821 69.7787 98.4673 69.5835 98.8628C69.5091 99.0143 69.4372 99.171 69.373 99.3276C68.0273 97.9717 64.7503 94.7487 62.9218 93.7497C63.3664 92.7967 63.9459 91.9128 64.6425 91.125C64.6425 91.125 69.0006 93.4286 70.2102 97.6969Z" fill="black"/>
<path d="M70.3309 97.4863C69.3216 92.9176 64.6425 90.4445 64.6425 90.4445C63.9453 91.2318 63.3658 92.1158 62.9218 93.0691C64.8505 94.1246 68.4048 97.6635 69.5835 98.8628L70.3309 97.4863Z" fill="#FF748E"/>
</g>
<defs>
<linearGradient id="paint0_linear_59_926" x1="187.481" y1="24.5025" x2="187.481" y2="19.7823" gradientUnits="userSpaceOnUse">
<stop stop-color="#808080" stop-opacity="0.25"/>
<stop offset="0.54" stop-color="#808080" stop-opacity="0.12"/>
<stop offset="1" stop-color="#808080" stop-opacity="0.1"/>
</linearGradient>
<linearGradient id="paint1_linear_59_926" x1="144.542" y1="201.003" x2="144.542" y2="-1.71752e-06" gradientUnits="userSpaceOnUse">
<stop stop-color="#808080" stop-opacity="0.25"/>
<stop offset="0.54" stop-color="#808080" stop-opacity="0.12"/>
<stop offset="1" stop-color="#808080" stop-opacity="0.1"/>
</linearGradient>
<clipPath id="clip0_59_926">
<rect width="278.933" height="201" fill="white"/>
</clipPath>
</defs>
</svg>
