<svg width="284" height="201" viewBox="0 0 284 201" fill="none" xmlns="http://www.w3.org/2000/svg">
<g clip-path="url(#clip0_601_168)">
<path opacity="0.1" d="M94.3395 200.887C108.159 200.887 119.361 199.088 119.361 196.868C119.361 194.649 108.159 192.85 94.3395 192.85C80.5204 192.85 69.3179 194.649 69.3179 196.868C69.3179 199.088 80.5204 200.887 94.3395 200.887Z" fill="#1ABFB5"/>
<path opacity="0.1" d="M230.354 201C247.598 201 261.577 199.201 261.577 196.981C261.577 194.762 247.598 192.962 230.354 192.962C213.11 192.962 199.131 194.762 199.131 196.981C199.131 199.201 213.11 201 230.354 201Z" fill="#1ABFB5"/>
<path opacity="0.1" d="M3.5539 86.8467H29.6155V122.368H5.46185C5.39765 122.733 5.33602 123.1 5.26926 123.468H29.6155V152.115C29.5719 152.102 29.5334 152.087 29.4923 152.071C28.8041 151.799 28.121 151.512 27.438 151.203L27.0014 151.006C26.3166 150.682 25.6319 150.34 24.9471 149.979C24.7083 149.853 24.4695 149.722 24.2332 149.588C20.4317 147.459 16.9781 144.76 13.9924 141.587C13.9051 141.502 13.8229 141.412 13.7356 141.33C13.3196 140.878 12.9113 140.421 12.5159 139.953L12.0793 139.44C11.612 138.867 11.16 138.279 10.7209 137.683C10.6567 137.596 10.5951 137.509 10.5283 137.427C8.74247 134.951 7.25964 132.269 6.11153 129.44C6.07558 129.356 6.04477 129.263 6.01138 129.184C5.65872 128.276 5.3463 127.36 5.0741 126.436C4.95597 126.048 4.84299 125.666 4.74541 125.263C4.70946 125.144 4.67864 125.029 4.65039 124.913C3.19182 119.22 3.01978 113.306 3.01978 107.434C3.01978 106.748 3.01978 106.06 3.01978 105.379C3.01978 103.004 3.04802 100.613 3.08911 98.2251C3.08911 97.6062 3.11479 96.9899 3.12763 96.3685C3.16358 94.7918 3.21494 93.2151 3.2817 91.6384C3.29711 91.1993 3.31765 90.7627 3.34076 90.3262C3.34076 90.0745 3.3536 89.8229 3.37928 89.5712C3.44091 88.6571 3.49227 87.7506 3.5539 86.8467Z" fill="#1ABFB5"/>
<path opacity="0.1" d="M29.6156 47.2958H15.3201C17.6439 43.6586 20.1829 40.1634 22.9236 36.829C25.0473 34.22 27.2891 31.6778 29.6156 29.228V47.2958Z" fill="#1ABFB5"/>
<path opacity="0.1" d="M29.6157 48.3945V85.7472H3.63623C3.63623 85.6394 3.65421 85.529 3.66191 85.4211C3.68502 85.1258 3.70813 84.8305 3.73381 84.5378C3.76206 84.1937 3.79287 83.847 3.82625 83.5106C3.85964 83.1742 3.89559 82.7633 3.93411 82.391C3.97263 82.0187 4.00858 81.6412 4.05223 81.2688C4.09588 80.8965 4.1344 80.5241 4.18063 80.1543C4.22685 79.7846 4.26793 79.4097 4.31673 79.0399C4.35524 78.7317 4.39633 78.4262 4.43741 78.118C4.49648 77.684 4.55811 77.2475 4.62487 76.8161C4.62487 76.7519 4.64285 76.6851 4.65312 76.6235C5.12181 73.4654 5.76043 70.3348 6.56621 67.2455C7.40966 64.0048 8.48671 60.8294 9.78892 57.7443C11.1729 54.5169 12.7934 51.3961 14.6371 48.4074L29.6157 48.3945Z" fill="#1ABFB5"/>
<path opacity="0.1" d="M35.8376 86.8441V122.368H91.5021V86.8441H35.8376ZM35.8376 123.465V153.972C36.1561 154.038 36.4719 154.103 36.7852 154.156C37.2115 154.239 37.6352 154.313 38.0692 154.377C38.1513 154.39 38.2361 154.403 38.3259 154.411C38.4954 154.439 38.67 154.462 38.8395 154.485C39.2684 154.544 39.6946 154.593 40.1235 154.632C40.3263 154.652 40.5318 154.67 40.7372 154.685L41.2328 154.724C41.5024 154.745 41.7695 154.76 42.034 154.768C42.1983 154.768 42.3627 154.783 42.5322 154.788C42.6606 154.788 42.789 154.788 42.9225 154.788C43.056 154.788 43.246 154.788 43.4078 154.788C43.6287 154.788 43.8495 154.788 44.0678 154.788H44.3631C44.5839 154.788 44.8048 154.788 45.023 154.768H45.0384C45.1899 154.768 45.344 154.768 45.4981 154.747C45.5409 154.75 45.5837 154.75 45.6265 154.747C45.7549 154.747 45.8833 154.747 46.0065 154.729H46.0964L46.9567 154.662C47.2391 154.637 47.5242 154.603 47.8118 154.572L48.3973 154.503C50.7792 154.169 53.1346 153.668 55.4462 153.004C60.6385 151.555 65.7178 149.529 70.9075 148.045C77.6174 146.132 85.031 145.192 91.5149 147.531V123.465H35.8376ZM91.5021 47.2958V0.00273466C85.4078 -0.0632922 79.33 0.649507 73.4163 2.12382C59.3211 5.66496 46.6742 13.3456 35.8376 23.1549V47.2932H38.6315V48.3897H35.8376V85.7476H91.5021V48.3923H50.1023V47.2958H91.5021ZM163 31.3209C159.513 31.1976 156.046 30.0934 152.911 28.3883C146.915 25.1271 142.126 20.0914 136.774 15.8416C125.655 6.99 111.866 1.64876 97.719 0.323722V47.2958H177.183L177.38 47.0878L163 31.3209ZM170.239 30.0369L177.915 38.4596V27.8285C175.344 28.1469 173.092 28.9045 170.249 30.0267L170.239 30.0369ZM177.915 161.547V123.465H161.56C161.516 123.303 161.472 123.139 161.421 122.974C161.47 123.139 161.511 123.303 161.557 123.465H97.7292V151.006C98.3353 151.455 98.9336 151.928 99.5268 152.408C100.166 152.921 100.798 153.463 101.432 153.995L102.072 154.524C102.377 154.78 102.685 155.037 102.996 155.279C103.612 155.779 104.235 156.272 104.863 156.758C105.174 157.015 105.492 157.246 105.808 157.487C110.822 161.321 116.112 164.781 121.634 167.838C122.872 168.523 124.12 169.192 125.38 169.844C126.22 170.273 127.065 170.699 127.912 171.112C129.186 171.734 130.47 172.333 131.764 172.91C143.696 178.266 156.314 181.942 169.256 183.831C172.13 184.256 175.015 184.59 177.912 184.833V161.544H178.169L177.915 161.547ZM97.7292 48.3923V85.7476H177.925V48.3923H97.7292ZM97.7292 86.8441V122.368H177.925V86.8441H97.7292ZM184.149 27.7823V39.6409L193.946 28.8916C190.7 28.3678 187.435 27.9937 184.149 27.7695V27.7823ZM184.149 86.8569V122.368H262.149V86.8441L184.149 86.8569ZM261.864 164.366L262.139 123.465H184.149V185.241C189.174 185.452 194.205 185.392 199.223 185.061H199.31C201.707 184.911 204.093 184.691 206.467 184.404H206.521C219.189 182.93 231.575 179.624 243.293 174.592M277.19 92.6937C276.897 92.003 276.591 91.3173 276.281 90.6394C275.7 89.3555 275.087 88.1075 274.455 86.8595H268.369V122.368H283.756C283.748 112.313 281.203 102.041 277.197 92.6809L277.19 92.6937ZM268.369 123.478V158.658C272.704 154.503 276.365 149.75 279.003 144.316C282.174 137.773 283.625 130.688 283.743 123.473L268.369 123.478ZM268.369 76.5057V85.7501H273.885C272.216 82.5678 270.377 79.4776 268.377 76.4928L268.369 76.5057ZM215.47 34.7516C215.064 34.5975 214.659 34.4409 214.25 34.2894C209.944 32.6991 205.544 31.3767 201.074 30.3297L186.083 46.7822L185.795 47.0878L185.988 47.2984H239.344C231.913 42.1832 223.902 37.9673 215.478 34.7388L215.47 34.7516ZM240.908 48.4051H185.243L184.149 49.4066V85.7476H193.738H193.753H262.16V68.1446C255.972 60.6606 248.829 54.02 240.915 48.3923L240.908 48.4051Z" fill="#1ABFB5"/>
<path opacity="0.1" d="M29.6157 67.2354V85.7474H3.63623C3.63623 85.6395 3.65421 85.5291 3.66191 85.4212C3.68502 85.1259 3.70813 84.8306 3.73381 84.5379C3.76206 84.1938 3.79287 83.8471 3.82625 83.5107C3.85964 83.1743 3.89559 82.7635 3.93411 82.3911C3.97263 82.0188 4.00858 81.6413 4.05223 81.2689C4.09588 80.8966 4.1344 80.5242 4.18063 80.1545C4.22685 79.7847 4.26793 79.4098 4.31673 79.04C4.35524 78.7319 4.39633 78.4263 4.43741 78.1181C4.49648 77.6841 4.55811 77.2476 4.62487 76.8162C4.62487 76.752 4.64285 76.6852 4.65312 76.6236C5.12181 73.4655 5.76043 70.335 6.56621 67.2456L29.6157 67.2354Z" fill="#1ABFB5"/>
<path opacity="0.1" d="M3.5539 86.8467H29.6155V122.368H5.46185C5.39765 122.733 5.33602 123.1 5.26926 123.468H29.6155V152.115C29.5719 152.102 29.5334 152.087 29.4923 152.071C28.8041 151.799 28.121 151.512 27.438 151.203L27.0014 151.006C26.3166 150.682 25.6319 150.34 24.9471 149.979C24.7083 149.853 24.4695 149.722 24.2332 149.588C20.4317 147.459 16.9781 144.76 13.9924 141.587C13.9051 141.502 13.8229 141.412 13.7356 141.33C13.3196 140.878 12.9113 140.421 12.5159 139.953L12.0793 139.44C11.612 138.867 11.16 138.279 10.7209 137.683C10.6567 137.596 10.5951 137.509 10.5283 137.427C8.74247 134.951 7.25964 132.269 6.11153 129.44C6.07558 129.356 6.04477 129.263 6.01138 129.184C5.65872 128.276 5.3463 127.36 5.0741 126.436C4.95597 126.048 4.84299 125.666 4.74541 125.263C4.70946 125.144 4.67864 125.029 4.65039 124.913C3.19182 119.22 3.01978 113.306 3.01978 107.434C3.01978 106.748 3.01978 106.06 3.01978 105.379C3.01978 103.004 3.04802 100.613 3.08911 98.2251C3.08911 97.6062 3.11479 96.9899 3.12763 96.3685C3.16358 94.7918 3.21494 93.2151 3.2817 91.6384C3.29711 91.1993 3.31765 90.7627 3.34076 90.3262C3.34076 90.0745 3.3536 89.8229 3.37928 89.5712C3.44091 88.6571 3.49227 87.7506 3.5539 86.8467Z" fill="#1ABFB5"/>
<path opacity="0.1" d="M55.4333 53.7408V85.7472H35.8376V53.7408H38.6315V42.9043H50.0998V53.7408H55.4333Z" fill="#1ABFB5"/>
<path opacity="0.1" d="M55.4334 86.8438H35.8403V122.366H55.4334V86.8438Z" fill="#1ABFB5"/>
<path opacity="0.1" d="M35.8376 123.467H55.4333V152.998C53.1218 153.662 50.7663 154.163 48.3844 154.495L47.7989 154.567C47.5113 154.601 47.2263 154.629 46.9438 154.657C46.6614 154.685 46.3686 154.706 46.0836 154.724H45.9937C45.8704 154.724 45.7369 154.739 45.6162 154.742H45.4853C45.3312 154.742 45.1771 154.757 45.023 154.762C44.8048 154.775 44.5865 154.778 44.3631 154.78C44.2681 154.78 44.1782 154.78 44.0832 154.78C43.8623 154.78 43.6441 154.78 43.4232 154.78H42.9379C42.8069 154.78 42.6811 154.78 42.545 154.78L42.0494 154.762C41.7926 154.762 41.5153 154.734 41.2482 154.716L40.7552 154.68L40.1415 154.624C39.71 154.585 39.2812 154.536 38.8575 154.477L38.3439 154.405L38.0871 154.369C37.6583 154.303 37.2346 154.231 36.8032 154.149C36.4873 154.095 36.174 154.028 35.8556 153.964L35.8376 123.467Z" fill="#1ABFB5"/>
<path opacity="0.1" d="M177.925 49.9609H161.768V85.7447H177.925V49.9609Z" fill="#1ABFB5"/>
<path opacity="0.1" d="M177.927 86.8438V122.368H97.7292V107.045H140.446V116.084H161.768V86.8438H177.927Z" fill="#1ABFB5"/>
<path opacity="0.1" d="M178.182 161.555H177.925V184.858C175.032 184.614 172.147 184.281 169.271 183.859C156.323 181.964 143.7 178.28 131.764 172.915C128.318 171.364 124.942 169.671 121.636 167.836C116.114 164.777 110.824 161.317 105.808 157.485C104.548 156.519 103.304 155.531 102.077 154.521C101.227 153.82 100.382 153.101 99.5268 152.403C98.9336 151.922 98.3353 151.45 97.7292 150.998V123.468H161.554C161.511 123.303 161.467 123.139 161.421 122.977C161.47 123.139 161.516 123.303 161.56 123.468H177.925V161.539C178.012 161.542 178.097 161.55 178.182 161.555Z" fill="#1ABFB5"/>
<path opacity="0.1" d="M220.064 47.2955H209.536V44.024H214.255V34.2788C214.665 34.4277 215.072 34.581 215.478 34.7385V44.024H220.064V47.2955Z" fill="#1ABFB5"/>
<path opacity="0.1" d="M245.43 85.7472H193.743C193.743 85.7472 193.743 85.7472 193.761 85.7601L193.738 85.7472H184.149V49.9635H186.866V76.4129H199.282V60.7487H209.538V48.3945H220.067V60.759H230.323V76.4232H245.43V85.7472Z" fill="#1ABFB5"/>
<path opacity="0.1" d="M184.149 86.8438V122.368H245.43V86.8438H184.149ZM262.065 164.184L262.149 136.065H245.43V123.483H184.149V185.241C189.174 185.452 194.205 185.392 199.223 185.061H199.31C201.707 184.91 204.093 184.691 206.467 184.403H206.521C219.189 182.929 231.575 179.624 243.293 174.592" fill="#1ABFB5"/>
<path opacity="0.1" d="M269.458 123.467H283.753C283.627 130.681 282.179 137.765 279.01 144.308C276.373 149.745 272.709 154.498 268.379 158.65V136.053H269.458V123.467Z" fill="#1ABFB5"/>
<path opacity="0.1" d="M283.761 122.368H269.458V92.6807H277.197C281.203 102.041 283.748 112.312 283.761 122.368Z" fill="#1ABFB5"/>
<path opacity="0.1" d="M177.927 59.9092H169.271V71.1283H177.927V59.9092Z" fill="#1ABFB5"/>
<path opacity="0.1" d="M177.927 83.1641H169.271V85.7474H177.927V83.1641Z" fill="#1ABFB5"/>
<path opacity="0.1" d="M177.927 86.8438H169.271V94.3805H177.927V86.8438Z" fill="#1ABFB5"/>
<path opacity="0.1" d="M177.927 106.419H169.271V117.638H177.927V106.419Z" fill="#1ABFB5"/>
<path opacity="0.1" d="M177.927 129.674H169.271V140.893H177.927V129.674Z" fill="#1ABFB5"/>
<path opacity="0.1" d="M177.925 161.539C178.012 161.539 178.097 161.539 178.182 161.554H177.925V164.161H169.271V152.929H177.925V161.539Z" fill="#1ABFB5"/>
<path opacity="0.1" d="M177.925 176.179V184.845C175.032 184.601 172.147 184.268 169.271 183.846V176.179H177.925Z" fill="#1ABFB5"/>
<path opacity="0.1" d="M134.828 121.544H97.7292V122.368H134.828V121.544Z" fill="#1ABFB5"/>
<path opacity="0.1" d="M134.828 123.465H97.7292V126.623H134.828V123.465Z" fill="#1ABFB5"/>
<path opacity="0.1" d="M134.828 136.977H97.7292V142.056H134.828V136.977Z" fill="#1ABFB5"/>
<path opacity="0.1" d="M134.825 152.41V157.489H105.808C104.548 156.527 103.303 155.54 102.074 154.526C101.224 153.825 100.382 153.106 99.5242 152.41H134.825Z" fill="#1ABFB5"/>
<path opacity="0.1" d="M134.825 167.841V172.915H131.762C128.319 171.362 124.944 169.668 121.636 167.833L134.825 167.841Z" fill="#1ABFB5"/>
<path opacity="0.1" d="M206.529 90.2876H199.226V97.5907H206.529V90.2876Z" fill="#1ABFB5"/>
<path opacity="0.1" d="M48.4025 56.2603H41.0994V63.5634H48.4025V56.2603Z" fill="#1ABFB5"/>
<path opacity="0.1" d="M48.4025 73.2236H41.0994V80.5267H48.4025V73.2236Z" fill="#1ABFB5"/>
<path opacity="0.1" d="M48.4025 90.1875H41.0994V97.4906H48.4025V90.1875Z" fill="#1ABFB5"/>
<path opacity="0.1" d="M48.4025 107.148H41.0994V114.452H48.4025V107.148Z" fill="#1ABFB5"/>
<path opacity="0.1" d="M48.4025 124.112H41.0994V131.415H48.4025V124.112Z" fill="#1ABFB5"/>
<path opacity="0.1" d="M48.4025 141.075H41.0994V148.378H48.4025V141.075Z" fill="#1ABFB5"/>
<path opacity="0.1" d="M234.408 90.2876H227.105V97.5907H234.408V90.2876Z" fill="#1ABFB5"/>
<path opacity="0.1" d="M206.529 108.301H199.226V115.604H206.529V108.301Z" fill="#1ABFB5"/>
<path opacity="0.1" d="M234.408 108.301H227.105V115.604H234.408V108.301Z" fill="#1ABFB5"/>
<path opacity="0.1" d="M206.529 126.312H199.226V133.616H206.529V126.312Z" fill="#1ABFB5"/>
<path opacity="0.1" d="M234.408 126.312H227.105V133.616H234.408V126.312Z" fill="#1ABFB5"/>
<path opacity="0.1" d="M206.529 144.326H199.226V151.629H206.529V144.326Z" fill="#1ABFB5"/>
<path opacity="0.1" d="M234.408 144.326H227.105V151.629H234.408V144.326Z" fill="#1ABFB5"/>
<path opacity="0.1" d="M206.529 162.34H199.226V169.643H206.529V162.34Z" fill="#1ABFB5"/>
<path opacity="0.1" d="M234.408 162.34H227.105V169.643H234.408V162.34Z" fill="#1ABFB5"/>
<path opacity="0.1" d="M199.226 185.061V180.352H206.526V184.391L199.226 185.061Z" fill="#1ABFB5"/>
<path opacity="0.1" d="M4.62231 76.6187V80.7966H29.6157V76.6187H4.62231ZM7.11318 80.5347H5.07427V76.8754H7.12859L7.11318 80.5347ZM9.60148 80.5347H7.54716V76.8754H9.60148V80.5347ZM12.0846 80.5347H10.0303V76.8754H12.0846V80.5347ZM14.5729 80.5347H12.5212V76.8754H14.5755L14.5729 80.5347ZM17.0587 80.5347H15.0043V76.8754H17.0587V80.5347ZM19.547 80.5347H17.4926V76.8754H19.547V80.5347ZM22.0353 80.5347H19.9809V76.8754H22.0353V80.5347ZM24.521 80.5347H22.4667V76.8754H24.521V80.5347ZM27.0067 80.5347H24.9524V76.8754H27.0067V80.5347ZM29.4925 80.5347H27.4381V76.8754H29.4925V80.5347Z" fill="#1ABFB5"/>
<path opacity="0.1" d="M4.62231 88.7749V92.9529H29.6157V88.7749H4.62231ZM7.11318 92.6884H5.07427V89.0394H7.12859L7.11318 92.6884ZM9.60148 92.6884H7.54716V89.0394H9.60148V92.6884ZM12.0846 92.6884H10.0303V89.0394H12.0846V92.6884ZM14.5729 92.6884H12.5212V89.0394H14.5755L14.5729 92.6884ZM17.0587 92.6884H15.0043V89.0394H17.0587V92.6884ZM19.547 92.6884H17.4926V89.0394H19.547V92.6884ZM22.0353 92.6884H19.9809V89.0394H22.0353V92.6884ZM24.521 92.6884H22.4667V89.0394H24.521V92.6884ZM27.0067 92.6884H24.9524V89.0394H27.0067V92.6884ZM29.4925 92.6884H27.4381V89.0394H29.4925V92.6884Z" fill="#1ABFB5"/>
<path opacity="0.1" d="M4.62231 100.937V105.122H29.6157V100.937H4.62231ZM7.11318 104.85H5.07427V101.198H7.12859L7.11318 104.85ZM9.60148 104.85H7.54716V101.198H9.60148V104.85ZM12.0846 104.85H10.0303V101.198H12.0846V104.85ZM14.5729 104.85H12.5212V101.198H14.5755L14.5729 104.85ZM17.0587 104.85H15.0043V101.198H17.0587V104.85ZM19.547 104.85H17.4926V101.198H19.547V104.85ZM22.0353 104.85H19.9809V101.198H22.0353V104.85ZM24.521 104.85H22.4667V101.198H24.521V104.85ZM27.0067 104.85H24.9524V101.198H27.0067V104.85ZM29.4925 104.85H27.4381V101.198H29.4925V104.85Z" fill="#1ABFB5"/>
<path opacity="0.1" d="M4.62231 113.098V117.271H29.6157V113.098H4.62231ZM7.11318 117.012H5.07427V113.358H7.12859L7.11318 117.012ZM9.60148 117.012H7.54716V113.358H9.60148V117.012ZM12.0846 117.012H10.0303V113.358H12.0846V117.012ZM14.5729 117.012H12.5212V113.358H14.5755L14.5729 117.012ZM17.0587 117.012H15.0043V113.358H17.0587V117.012ZM19.547 117.012H17.4926V113.358H19.547V117.012ZM22.0353 117.012H19.9809V113.358H22.0353V117.012ZM24.521 117.012H22.4667V113.358H24.521V117.012ZM27.0067 117.012H24.9524V113.358H27.0067V117.012ZM29.4925 117.012H27.4381V113.358H29.4925V117.012Z" fill="#1ABFB5"/>
<path opacity="0.1" d="M4.72998 125.257C4.83013 125.65 4.94311 126.043 5.06124 126.431V125.519H7.11556V129.171H6.0165C6.04988 129.256 6.08326 129.348 6.11665 129.428H29.6155V125.257H4.72998ZM9.609 129.171H7.55467V125.519H9.609V129.171ZM12.0922 129.171H10.0378V125.519H12.0922V129.171ZM14.5805 129.171H12.521V125.519H14.5753L14.5805 129.171ZM17.0662 129.171H15.0119V125.519H17.0662V129.171ZM19.5545 129.171H17.5002V125.519H19.5545V129.171ZM22.0428 129.171H19.9885V125.519H22.0428V129.171ZM24.5285 129.171H22.4742V125.519H24.5285V129.171ZM27.0142 129.171H24.9599V125.519H27.0142V129.171ZM29.5 129.171H27.4456V125.519H29.5V129.171Z" fill="#1ABFB5"/>
<path opacity="0.1" d="M10.5334 137.419C10.5976 137.501 10.6593 137.594 10.726 137.676H12.0845V139.43C12.2308 139.604 12.3746 139.779 12.5236 139.943V137.665H14.5779V141.33H13.7459C13.8281 141.415 13.9077 141.504 14.0027 141.587H29.6232V137.419H10.5334ZM17.0585 141.33H15.0042V137.681H17.0585V141.33ZM19.5468 141.33H17.4925V137.681H19.5468V141.33ZM22.0351 141.33H19.9808V137.681H22.0351V141.33ZM24.5208 141.33H22.4665V137.681H24.5208V141.33ZM27.0065 141.33H24.9522V137.681H27.0065V141.33ZM29.4923 141.33H27.4379V137.681H29.4923V141.33Z" fill="#1ABFB5"/>
<path opacity="0.1" d="M24.2437 149.578C24.4773 149.711 24.7161 149.834 24.9575 149.968V149.84H27.0119V150.995L27.4484 151.198V149.84H29.5027V152.061C29.5421 152.08 29.5834 152.096 29.626 152.107V149.578H24.2437Z" fill="#1ABFB5"/>
<path opacity="0.1" d="M161.421 122.974C161.47 123.139 161.511 123.303 161.557 123.465C161.516 123.303 161.472 123.139 161.421 122.974ZM38.6418 47.2881V48.3846H50.1127V47.2881H38.6418ZM161.421 122.974C161.47 123.139 161.511 123.303 161.557 123.465C161.516 123.303 161.472 123.139 161.421 122.974ZM161.421 122.974C161.47 123.139 161.511 123.303 161.557 123.465C161.516 123.303 161.472 123.139 161.421 122.974Z" fill="#1ABFB5"/>
<path d="M118.534 97.4954C118.534 97.4954 117.523 97.3542 117.523 95.8802C117.523 94.4062 116.798 91.6534 116.798 91.6534C116.798 91.6406 116.172 86.8592 115.306 86.0991C114.441 85.339 113.329 80.876 113.329 80.876C113.329 80.876 113.139 78.4544 112.751 77.9331C112.364 77.4119 111.84 76.1356 111.067 74.315C110.294 72.4943 107.071 71.2335 107.071 71.2335C107.071 71.2335 101.245 67.8541 99.5935 66.7525C99.4434 66.662 99.3031 66.5561 99.1749 66.4366C98.8873 66.0592 97.6342 66.0515 97.6342 66.0515C97.5032 65.2246 97.3774 64.2745 97.3363 63.4142C97.3363 63.3218 97.3363 63.2293 97.3234 63.1369C99.1646 62.0486 100.551 60.3326 101.229 58.3041C101.26 58.2065 101.286 58.1038 101.314 58.0062C101.424 57.9699 101.526 57.9109 101.612 57.8331C101.698 57.7553 101.767 57.6603 101.815 57.5543C101.964 57.223 101.966 56.8353 102.151 56.5271C102.367 56.1625 102.778 55.9673 103.101 55.6925C103.918 54.9992 104.128 53.8308 104.09 52.7677C104.064 51.9074 103.926 51.0395 103.979 50.1844L103.995 49.9687C104.01 49.8403 104.028 49.7119 104.051 49.5886C104.177 48.9518 104.452 48.3509 104.606 47.7192C104.76 47.0875 104.775 46.3762 104.416 45.8318C103.89 45.0332 102.793 44.874 101.83 44.7918C100.739 44.6993 99.7629 44.82 99.0645 43.9136C98.7376 43.4398 98.3698 42.9956 97.9654 42.586C97.8216 42.4524 96.4247 41.5999 96.4247 41.5434C95.0613 40.9119 93.5158 40.7934 92.0721 41.2096C91.3479 41.4201 90.6649 41.7642 89.9305 41.9363C88.3461 42.3112 86.5228 41.9055 85.1773 42.8119C84.4274 43.3255 83.9781 44.1421 83.5569 44.9382C83.2145 45.5938 82.867 46.2486 82.5143 46.9026C81.9468 47.9786 81.3691 49.0725 81.1302 50.264C81.08 50.5233 81.0491 50.7859 81.0378 51.0498V51.0626C81.0378 51.1576 81.0378 51.2526 81.0378 51.3476V51.4683C81.0378 51.5582 81.0378 51.6455 81.0532 51.7251C81.0686 51.8047 81.066 51.8304 81.0737 51.8843C81.0815 51.9383 81.0943 52.059 81.1097 52.1411C81.1251 52.2233 81.1559 52.3671 81.1867 52.4801C81.1996 52.5289 81.2176 52.5751 81.233 52.6213C81.2586 52.7086 81.2895 52.7934 81.3228 52.8781C81.3408 52.9218 81.3588 52.968 81.3793 53.0116C81.4178 53.1015 81.4641 53.1888 81.5103 53.2684C81.5308 53.3044 81.5462 53.3378 81.5668 53.3712C81.6384 53.4906 81.7173 53.6055 81.803 53.7153C82.3526 54.4009 83.1615 54.8374 83.7598 55.4794C83.7598 55.5051 83.7598 55.5308 83.7598 55.5539C83.7598 55.6258 83.7598 55.6951 83.7598 55.767C83.7915 57.1987 84.1726 58.601 84.8699 59.8519C85.5671 61.1028 86.5595 62.1644 87.7606 62.9443C87.7606 63.0419 87.7734 63.142 87.7785 63.2396C87.8286 64.0018 87.8192 64.7668 87.7503 65.5276C87.6457 65.4044 87.5148 65.3064 87.3673 65.2406C87.2197 65.1748 87.0593 65.143 86.8978 65.1476C86.7874 65.1422 86.6769 65.1517 86.5691 65.1758L86.5459 65.1578V65.1809C85.981 65.3196 85.2851 65.9077 84.62 67.5794C84.62 67.5794 82.5965 69.8597 81.0558 69.7646C79.515 69.6696 75.6144 72.1374 75.6144 72.1374C75.6144 72.1374 71.8088 74.6077 70.9922 77.1243C70.5357 78.5513 69.9885 79.9476 69.3538 81.3048L64.6494 90.9986L63.7815 98.6895C63.7815 98.6895 64.2617 102.11 64.1667 102.631C64.0717 103.153 66.1414 107.854 66.1414 107.854C66.1414 107.854 72.9797 119.87 75.7736 120.486L75.9739 120.345C76.0934 120.407 76.2202 120.454 76.3514 120.486L76.9266 120.08C76.9611 120.532 76.9465 120.987 76.8829 121.436C76.4978 122.622 77.0267 130.365 77.6995 131.882C78.3723 133.4 78.1335 153.299 78.1335 153.299L78.0385 155.055C78.0385 155.055 78.0385 155.111 78.0616 155.209L78.0385 155.625L78.1078 155.661C78.1798 156.218 78.1564 156.783 78.0385 157.333C77.7971 158.103 77.6995 160.281 77.6995 160.281C77.6995 160.281 75.7762 172.576 76.6878 175.046C77.5994 177.516 78.3749 180.223 78.3749 180.223C78.3749 180.223 79.3378 183.304 78.4211 183.831C77.5044 184.357 74.8979 185.241 75.4346 186.525C75.9225 187.711 77.774 190.89 78.0488 191.355L78.0257 191.599L77.6482 195.689C77.7093 196.23 77.8558 196.757 78.0821 197.251C78.4956 198.142 79.2993 199.066 80.8272 198.966C81.084 198.948 81.3819 198.917 81.6695 198.879C84.466 198.504 87.9095 197.256 87.9095 197.256C87.7307 197.142 87.5668 197.007 87.4216 196.853C87.2842 196.72 87.1752 196.56 87.1015 196.383C87.0278 196.207 86.9908 196.017 86.9928 195.826C87.0339 195.081 85.6395 191.532 85.2928 190.659C85.2389 190.533 85.2106 190.461 85.2106 190.461C85.2106 190.461 88.3897 187.138 87.8607 184.193C87.8607 184.193 84.3427 182.139 85.5008 181.011C86.6589 179.884 88.7287 176.646 88.7287 176.646C88.7287 176.646 88.8237 164.538 88.7287 162.73C88.6296 161.476 88.6891 160.213 88.9059 158.974C88.9444 158.786 88.9906 158.604 89.0394 158.424C90.641 158.663 92.2579 158.786 93.8773 158.791C94.4679 158.791 95.0688 158.791 95.6748 158.755C95.6748 158.926 95.6825 159.111 95.698 159.31C95.8315 162.309 96.0806 167.568 96.2834 169.523C96.571 172.324 98.1606 179.874 98.1606 179.874C98.1606 179.874 95.1279 181.82 98.6896 186.617C98.6896 186.617 98.6896 188.356 98.4533 188.607C98.2011 189.43 97.9979 190.267 97.8447 191.113C97.6958 192.017 97.6342 192.932 97.8755 193.407C98.4533 194.542 101.92 194.449 101.92 194.449L102.005 194.434C102.659 194.366 103.321 194.429 103.951 194.619C104.58 194.809 105.166 195.122 105.674 195.541C106.992 196.598 111.991 196.134 114.698 195.797C115.758 195.664 116.467 195.541 116.467 195.541C116.502 195.42 116.514 195.295 116.503 195.171C116.475 194.506 115.954 193.047 112.42 191.745C112.42 191.745 109.097 189.511 109.143 187.565H109.074H108.689C108.969 187.549 109.149 187.565 109.149 187.565C109.149 187.565 107.847 182.814 108.378 182.429C108.91 182.044 107.318 176.779 107.318 176.779C107.318 176.779 106.406 167.946 106.357 167.327C106.359 166.796 106.44 166.268 106.596 165.761L106.357 160.917C106.357 160.917 106.311 159.307 106.357 158.784C106.35 158.329 106.313 157.875 106.247 157.425C106.224 157.245 106.201 157.058 106.175 156.873C107.42 156.557 108.229 156.264 108.229 156.264L108.086 139.406C109.143 137.352 109.339 132.845 109.334 129.648C109.334 127.594 109.241 126.074 109.241 126.074L110.687 123.714C110.687 123.714 111.021 120.889 110.492 120.27C110.258 119.99 110.363 119.7 110.556 119.461C110.656 119.382 110.761 119.31 110.872 119.246C110.872 119.246 110.856 119.222 110.838 119.189C110.939 119.105 111.047 119.028 111.159 118.961C111.159 118.961 110.646 118.164 111.105 117.828C111.537 118.121 111.922 118.342 112.215 118.521C112.194 118.709 112.174 118.817 112.174 118.817L112.297 118.56C112.579 118.719 112.751 118.817 112.751 118.817C112.751 118.817 115.016 114.305 114.967 113.64C114.919 112.975 116.508 110.173 116.508 110.173C116.508 110.173 116.701 108.702 117.569 108.085C118.437 107.469 118.242 103.004 118.242 103.004C118.242 103.004 118.483 100.677 119.061 99.7269C119.639 98.7768 118.534 97.4954 118.534 97.4954ZM75.1984 95.5156L75.242 96.5915C74.9853 96.1781 74.8004 95.8802 74.8004 95.8802L75.1984 95.5156Z" fill="url(#paint0_linear_601_168)"/>
<path d="M112.875 116.868L112.32 119.23C112.32 119.23 107.878 116.963 107.076 114.082C106.275 111.2 108.417 110.106 108.417 110.106L112.556 111.86L112.875 116.868Z" fill="white"/>
<path opacity="0.1" d="M112.875 116.868L112.32 119.23C112.32 119.23 107.878 116.963 107.076 114.082C106.275 111.2 108.417 110.106 108.417 110.106L112.556 111.86L112.875 116.868Z" fill="black"/>
<path d="M87.9429 197.271C87.9429 197.271 83.8342 198.781 81.0095 198.971C79.5099 199.071 78.7215 198.152 78.3158 197.266C78.0941 196.774 77.9512 196.25 77.8921 195.713L78.2593 191.643L78.4545 189.475L84.4556 187.917L85.3056 190.515L85.3852 190.713C85.7268 191.581 87.0955 195.112 87.0544 195.849C87.0527 196.037 87.0891 196.225 87.1615 196.399C87.2338 196.573 87.3407 196.731 87.4755 196.863C87.6133 197.019 87.7703 197.156 87.9429 197.271Z" fill="white"/>
<path d="M116.008 195.202C116.018 195.325 116.006 195.45 115.972 195.569C115.972 195.569 107.184 197.035 105.387 195.569C104.88 195.141 104.289 194.823 103.652 194.636C103.016 194.45 102.347 194.398 101.689 194.485C101.689 194.485 98.2891 194.578 97.7216 193.458C97.4854 192.988 97.547 192.077 97.6933 191.178C97.8427 190.336 98.0416 189.503 98.2891 188.684L98.4252 188.577L99.2341 187.927L108.705 187.647H108.776C108.73 189.583 111.991 191.804 111.991 191.804C115.456 193.088 115.967 194.539 116.008 195.202Z" fill="white"/>
<path opacity="0.1" d="M116.007 195.202C116.016 195.325 116.003 195.45 115.969 195.569C115.969 195.569 107.184 197.035 105.387 195.569C104.88 195.141 104.29 194.823 103.653 194.637C103.017 194.45 102.349 194.399 101.691 194.485C101.691 194.485 98.289 194.578 97.724 193.458C97.4878 192.986 97.5468 192.077 97.6932 191.178C99.0028 191.309 101.07 191.635 101.881 192.413C103.109 193.597 105.189 194.778 106.465 194.87C107.464 194.935 113.44 195.125 116.007 195.202Z" fill="black"/>
<path opacity="0.1" d="M87.9429 197.271C87.9429 197.271 83.8342 198.781 81.0095 198.971C79.5099 199.072 78.7215 198.152 78.3184 197.264C79.3635 197.616 80.8144 197.985 81.577 197.646C82.4809 197.246 85.6857 196.986 87.4832 196.876C87.62 197.026 87.7743 197.159 87.9429 197.271Z" fill="black"/>
<path d="M94.0391 75.5915C90.6495 74.2742 86.2892 69.9216 87.378 67.8878C87.6198 67.3746 87.7635 66.8207 87.8017 66.2546C87.8717 65.4862 87.882 64.7135 87.8325 63.9435C87.7562 62.6824 87.6044 61.427 87.378 60.1841C87.378 60.1841 97.9603 60.4229 97.344 61.9816C97.1642 62.4387 97.136 63.2322 97.1848 64.1207C97.2336 65.0092 97.362 66.0132 97.4955 66.8632C97.6804 68.029 97.8653 68.9175 97.8653 68.9175C97.8653 68.9175 97.2182 69.824 96.8381 69.8728C96.4581 69.9216 98.9027 77.4686 94.0391 75.5915Z" fill="#CF6F80"/>
<path opacity="0.1" d="M85.3776 190.713L85.298 190.8C82.1344 186.974 78.3082 191.743 78.3082 191.743L78.2517 191.643L78.4469 189.475L84.4481 187.917L85.298 190.515L85.3776 190.713Z" fill="black"/>
<path opacity="0.1" d="M108.779 187.917C108.779 187.917 106.468 187.868 105.235 188.957C104.003 190.045 98.0452 189.193 98.302 188.957C98.3781 188.84 98.424 188.705 98.4355 188.566L99.2444 187.917L108.715 187.637C108.751 187.809 108.779 187.917 108.779 187.917Z" fill="black"/>
<path d="M89.3142 157.869C89.1421 158.295 89.0113 158.736 88.9239 159.187C88.7097 160.421 88.6502 161.677 88.7467 162.926C88.8417 164.723 88.7467 176.769 88.7467 176.769C88.7467 176.769 86.7155 179.982 85.583 181.114C84.4506 182.247 87.8941 184.28 87.8941 184.28C88.4077 187.208 85.2954 190.515 85.2954 190.515C82.1318 186.689 78.3056 191.46 78.3056 191.46C78.3056 191.46 76.2256 187.865 75.7069 186.581C75.1882 185.297 77.7381 184.409 78.6343 183.887C79.5305 183.366 78.5906 180.292 78.5906 180.292C78.5906 180.292 77.8331 177.599 76.9343 175.141C76.0356 172.684 77.9255 160.45 77.9255 160.45C77.9255 160.45 78.0231 158.278 78.2568 157.52C78.3747 156.974 78.3982 156.411 78.3261 155.856C78.3107 155.669 78.2927 155.512 78.2799 155.407C78.2671 155.302 78.2568 155.253 78.2568 155.253L78.2928 155.191L79.5767 152.798C79.5767 152.798 89.9305 156.362 89.3142 157.869Z" fill="#1ABFB5"/>
<path d="M108.779 187.634C108.779 187.634 106.468 187.585 105.235 188.661C104.003 189.737 98.0451 188.897 98.3019 188.661C98.5587 188.425 98.5382 186.676 98.5382 186.676C95.0433 181.905 98.0246 179.969 98.0246 179.969C98.0246 179.969 96.4633 172.458 96.1808 169.671C95.9831 167.725 95.7392 162.494 95.6082 159.508C95.5517 158.224 95.5183 157.34 95.5183 157.34L98.3738 156.765L98.741 156.691L105.628 155.309C105.628 155.309 105.818 156.593 105.947 157.643C106.011 158.092 106.047 158.544 106.054 158.997C106.008 159.51 106.054 161.118 106.054 161.118L106.288 165.938C106.135 166.443 106.057 166.968 106.054 167.496C106.101 168.11 106.997 176.897 106.997 176.897C106.997 176.897 108.556 182.141 108.024 182.519C107.492 182.896 108.779 187.634 108.779 187.634Z" fill="#1ABFB5"/>
<path opacity="0.1" d="M97.344 61.9816C97.1642 62.4387 97.136 63.2322 97.1848 64.1207C95.7673 64.9742 94.1378 65.4107 92.4835 65.3798C90.8291 65.3489 89.2171 64.8519 87.8324 63.9461C87.7562 62.6841 87.6044 61.4279 87.3779 60.1841C87.3779 60.1841 97.9603 60.4178 97.344 61.9816Z" fill="black"/>
<path d="M101.435 56.3062C101.437 57.2316 101.291 58.1513 101.003 59.0308C100.36 61.0013 99.0406 62.6809 97.2786 63.7728C95.5167 64.8647 93.4254 65.2986 91.3745 64.9978C89.3235 64.6969 87.445 63.6807 86.0708 62.1288C84.6967 60.5768 83.9154 58.5891 83.8651 56.5168C83.8651 56.4449 83.8651 56.3781 83.8651 56.3062C83.8451 55.1398 84.0576 53.981 84.4902 52.8976C84.9228 51.8142 85.5668 50.8277 86.3847 49.9957C87.2025 49.1638 88.1778 48.503 89.2537 48.052C90.3296 47.6009 91.4845 47.3687 92.6511 47.3687C93.8178 47.3687 94.9727 47.6009 96.0486 48.052C97.1245 48.503 98.0998 49.1638 98.9176 49.9957C99.7355 50.8277 100.379 51.8142 100.812 52.8976C101.245 53.981 101.457 55.1398 101.437 56.3062H101.435Z" fill="#CF6F80"/>
<path opacity="0.1" d="M94.0391 75.5913C90.6495 74.274 86.2892 69.9214 87.378 67.8876C87.6198 67.3744 87.7635 66.8204 87.8017 66.2544L92.4419 70.0677L95.3128 72.4225L97.4955 66.8655C97.6804 68.0314 97.8653 68.9199 97.8653 68.9199C97.8653 68.9199 97.2182 69.8263 96.8381 69.8751C96.4581 69.9239 98.9027 77.4684 94.0391 75.5913Z" fill="black"/>
<path d="M106.039 92.4445L102.164 157.541L97.1105 157.872L84.0244 120.127L86.1712 75.314L86.6231 65.8462L92.442 70.6251L95.3155 72.9798L97.5624 67.2611L101.74 70.9024L106.039 92.4445Z" fill="#1ABFB5"/>
<path opacity="0.1" d="M89.3141 157.869C89.142 158.295 89.0113 158.736 88.9238 159.187C85.2465 158.619 81.6751 157.503 78.3286 155.877L78.2593 155.841L78.2824 155.427L78.2952 155.212L79.5792 152.818C79.5792 152.818 89.9304 156.362 89.3141 157.869Z" fill="black"/>
<path opacity="0.1" d="M98.4329 159.197C97.4929 159.357 96.5447 159.465 95.5928 159.521C95.5363 158.237 95.5029 157.354 95.5029 157.354L98.3584 156.778L98.4329 159.197Z" fill="black"/>
<path opacity="0.1" d="M105.931 157.656C104.105 158.132 101.286 158.666 98.7615 158.332L98.7256 156.704L105.613 155.322C105.613 155.322 105.803 156.593 105.931 157.656Z" fill="black"/>
<path opacity="0.1" d="M98.7153 158.63C88.1869 160.427 78.5445 155.274 78.5445 155.274L78.6369 153.527C78.6369 153.527 78.8757 133.731 78.2132 132.214C77.5507 130.696 77.0345 123 77.4095 121.819C77.7844 120.638 76.0408 102.924 76.0408 102.924L75.7583 95.7342L65.4199 91.5459L70.0421 81.9111C70.6665 80.5603 71.2034 79.1708 71.6497 77.7511C72.4534 75.25 76.1846 72.7925 76.1846 72.7925C76.1846 72.7925 80.0107 70.3376 81.5232 70.4301C83.0357 70.5225 85.0182 68.2576 85.0182 68.2576C86.4819 64.5264 87.8069 66.2161 87.8069 66.2161C87.8069 66.3933 87.8069 66.2161 87.735 66.7682C87.2214 70.864 96.0396 83.8063 96.1654 84.0348L97.0051 104.491L97.8551 130.378L98.7153 158.63Z" fill="black"/>
<path d="M98.4328 158.63C87.9044 160.427 78.2593 155.273 78.2593 155.273L78.3543 153.527C78.3543 153.527 78.5932 133.731 77.9281 132.214C77.263 130.696 76.7494 123 77.1269 121.819C77.5044 120.637 75.7582 102.924 75.7582 102.924L75.4732 95.7339L65.1296 91.5303L69.7519 81.8955C70.3748 80.5441 70.9117 79.1547 71.3594 77.7355C72.1606 75.2344 75.8943 72.7769 75.8943 72.7769C75.8943 72.7769 79.7205 70.322 81.2304 70.4144C82.7403 70.5069 84.7253 68.242 84.7253 68.242C86.1916 64.5108 87.8068 66.2005 87.8068 66.2005C87.8068 66.3777 87.6527 66.4573 87.7349 66.7526C88.8648 70.7251 95.757 83.7906 95.8828 84.0192L96.7328 104.475L97.5828 130.362L98.4328 158.63Z" fill="white"/>
<path opacity="0.1" d="M95.5952 84.602C94.4628 84.1295 88.4641 77.2809 88.4641 77.2809V75.7222C88.2459 75.2086 86.9491 75.5219 85.8962 75.8814L86.3482 66.4136L86.8618 66.8398C87.9865 70.8098 95.4642 84.3735 95.5952 84.602Z" fill="black"/>
<path d="M95.8802 84.0346C94.7452 83.5622 88.7466 76.7136 88.7466 76.7136V75.1548C88.5283 74.6413 87.2316 74.9545 86.1787 75.3141L86.6332 65.8462L87.1468 66.2725C88.2741 70.2424 95.7544 83.8087 95.8802 84.0346Z" fill="white"/>
<path opacity="0.1" d="M78.5443 118.191C78.6856 118.191 85.8654 117.436 85.8654 117.436C85.8654 117.436 90.2129 125.984 89.9278 128.064C89.6428 130.144 89.1267 131.985 87.3779 131.659C85.6292 131.333 77.9666 131.916 77.9666 131.916L78.5443 118.191Z" fill="black"/>
<path d="M78.2594 117.623C78.4007 117.623 85.5805 116.868 85.5805 116.868C85.5805 116.868 89.9254 125.419 89.6429 127.496C89.3605 129.574 88.8392 131.417 87.093 131.091C85.3468 130.765 77.6816 131.348 77.6816 131.348L78.2594 117.623Z" fill="white"/>
<path d="M83.67 113.609C83.67 113.609 90.2592 117.151 90.4004 118.232C90.5417 119.313 87.0468 117.759 86.2918 117.572C85.7949 117.452 85.2891 117.373 84.7793 117.335L79.7437 117.472L83.67 113.609Z" fill="#CF6F80"/>
<path opacity="0.1" d="M93.7568 85.0439C94.1397 85.0439 94.4501 84.7335 94.4501 84.3506C94.4501 83.9676 94.1397 83.6572 93.7568 83.6572C93.3739 83.6572 93.0635 83.9676 93.0635 84.3506C93.0635 84.7335 93.3739 85.0439 93.7568 85.0439Z" fill="black"/>
<path d="M93.7568 84.7612C94.1397 84.7612 94.4501 84.4508 94.4501 84.0678C94.4501 83.6849 94.1397 83.3745 93.7568 83.3745C93.3739 83.3745 93.0635 83.6849 93.0635 84.0678C93.0635 84.4508 93.3739 84.7612 93.7568 84.7612Z" fill="#3F3D56"/>
<path opacity="0.1" d="M95.0329 115.058C95.4158 115.058 95.7263 114.747 95.7263 114.364C95.7263 113.981 95.4158 113.671 95.0329 113.671C94.65 113.671 94.3396 113.981 94.3396 114.364C94.3396 114.747 94.65 115.058 95.0329 115.058Z" fill="black"/>
<path d="M95.0329 114.772C95.4158 114.772 95.7263 114.462 95.7263 114.079C95.7263 113.696 95.4158 113.386 95.0329 113.386C94.65 113.386 94.3396 113.696 94.3396 114.079C94.3396 114.462 94.65 114.772 95.0329 114.772Z" fill="#3F3D56"/>
<path opacity="0.1" d="M94.4475 100.051C94.8304 100.051 95.1408 99.7403 95.1408 99.3574C95.1408 98.9745 94.8304 98.6641 94.4475 98.6641C94.0646 98.6641 93.7542 98.9745 93.7542 99.3574C93.7542 99.7403 94.0646 100.051 94.4475 100.051Z" fill="black"/>
<path d="M94.4475 99.768C94.8304 99.768 95.1408 99.4576 95.1408 99.0747C95.1408 98.6918 94.8304 98.3813 94.4475 98.3813C94.0646 98.3813 93.7542 98.6918 93.7542 99.0747C93.7542 99.4576 94.0646 99.768 94.4475 99.768Z" fill="#3F3D56"/>
<path d="M110.43 117.191C110.43 117.191 110.903 117.9 110.43 118.231C109.958 118.563 110.476 119.364 110.476 119.364C110.476 119.364 109.298 120.055 109.816 120.676C110.335 121.298 110.006 124.104 110.006 124.104L108.589 126.451C108.589 126.451 108.674 127.964 108.679 130.008C108.679 133.197 108.491 137.681 107.454 139.725L107.598 156.496C107.598 156.496 102.634 158.309 98.479 157.757L97.8627 130.845C97.8627 130.845 98.7615 115.584 99.0927 112.657C99.2866 111.137 99.3655 109.604 99.329 108.073C99.329 108.073 99.1877 103.492 98.7127 101.365C98.7127 101.365 98.1991 92.1544 98.1477 89.6045C98.1246 88.3847 98.1888 84.8256 98.2607 81.4411C98.3403 77.7408 98.4302 74.251 98.4302 74.251L97.4929 66.8349C97.4929 66.8349 98.4302 66.7399 98.7127 67.1173C98.8392 67.2355 98.9768 67.3413 99.1235 67.4332C100.741 68.5271 106.457 71.8911 106.457 71.8911C106.457 71.8911 109.621 73.1493 110.379 74.952C111.136 76.7547 111.663 78.0335 112.03 78.5471C112.397 79.0607 112.597 81.4745 112.597 81.4745C112.597 81.4745 113.686 85.917 114.536 86.6694C115.386 87.4218 116.008 92.2083 116.008 92.2083L108.496 98.1145C108.496 98.1145 107.836 107.939 107.695 108.319C107.554 108.699 110.43 117.191 110.43 117.191Z" fill="white"/>
<path d="M110.715 117.191C110.715 117.191 111.185 117.9 110.715 118.231C110.245 118.562 110.759 119.364 110.759 119.364C110.759 119.364 109.588 120.062 110.101 120.684C110.615 121.305 110.292 124.112 110.292 124.112L108.874 126.459C108.874 126.459 108.959 127.971 108.966 130.015C108.966 133.205 108.779 137.688 107.742 139.732L107.883 156.503C107.883 156.503 102.911 158.316 98.7616 157.764L98.1479 130.852C98.1479 130.852 99.0467 115.591 99.3779 112.664C99.572 111.144 99.6501 109.612 99.6116 108.08C99.6116 108.08 99.4704 103.499 98.9979 101.373C98.9979 101.373 98.4843 92.1619 98.4304 89.6119C98.4072 88.3922 98.474 84.8331 98.5433 81.4486C98.623 77.7482 98.7128 74.2584 98.7128 74.2584L97.4751 66.7422C97.4751 66.7422 98.7128 66.7422 98.9979 67.1248C99.1232 67.2444 99.2609 67.3503 99.4087 67.4407C101.027 68.5346 106.745 71.8985 106.745 71.8985C106.745 71.8985 109.906 73.1568 110.664 74.9595C111.421 76.7621 111.948 78.041 112.318 78.5545C112.687 79.0681 112.883 81.4819 112.883 81.4819C112.883 81.4819 113.971 85.9244 114.821 86.6768C115.671 87.4292 116.285 92.2055 116.285 92.2055L108.774 98.1117C108.774 98.1117 108.114 107.936 107.97 108.317C107.826 108.697 110.715 117.191 110.715 117.191Z" fill="white"/>
<path opacity="0.1" d="M101.72 76.4387L102.398 78.416L98.8283 82.0111C98.9079 78.3133 98.9977 74.8209 98.9977 74.8209L97.76 67.3047C97.76 67.3047 98.9977 67.3047 99.2828 67.6873C99.4078 67.8066 99.5455 67.9116 99.6936 68.0006L102.729 76.7571L101.72 76.4387Z" fill="black"/>
<path d="M101.435 75.8713L102.115 77.8486L98.5459 81.4437C98.6255 77.7433 98.7154 74.2536 98.7154 74.2536L97.4751 66.7373C97.4751 66.7373 98.7154 66.7373 98.9979 67.1199C99.1238 67.2388 99.2615 67.3446 99.4087 67.4358L102.447 76.1898L101.435 75.8713Z" fill="white"/>
<path opacity="0.1" d="M101.435 56.3062C101.437 57.2316 101.291 58.1513 101.003 59.0308C100.955 59.0383 100.905 59.0361 100.858 59.0242C100.81 59.0123 100.765 58.9909 100.726 58.9614C100.659 56.6503 99.5216 54.4804 98.1221 52.6341C97.7291 52.0767 97.2528 51.583 96.7097 51.1704C96.1607 50.7581 95.4777 50.5649 94.7941 50.6286C94.0237 50.7339 93.3432 51.2577 92.5651 51.3245C91.5379 51.4092 90.6186 50.6979 89.5992 50.662C89.1847 50.6659 88.7759 50.7582 88.4 50.9327C88.024 51.1071 87.6896 51.3598 87.419 51.6737C86.8835 52.3073 86.4856 53.0454 86.2506 53.841C85.8469 55.0475 85.627 56.3079 85.5984 57.5799C85.5855 58.2989 85.5162 59.2003 84.8486 59.4622C84.8988 58.9334 84.8387 58.3999 84.6721 57.8956C84.5054 57.3912 84.2359 56.927 83.8805 56.5322L83.8651 56.5168C83.8651 56.4449 83.8651 56.3781 83.8651 56.3062C83.8451 55.1398 84.0576 53.981 84.4902 52.8976C84.9228 51.8142 85.5668 50.8277 86.3847 49.9957C87.2025 49.1638 88.1778 48.503 89.2537 48.052C90.3296 47.6009 91.4845 47.3687 92.6511 47.3687C93.8178 47.3687 94.9727 47.6009 96.0486 48.052C97.1245 48.503 98.0998 49.1638 98.9176 49.9957C99.7355 50.8277 100.379 51.8142 100.812 52.8976C101.245 53.981 101.457 55.1398 101.437 56.3062H101.435Z" fill="black"/>
<path d="M96.2887 42.3547C94.9543 41.727 93.4366 41.6083 92.0209 42.0209C91.3096 42.2315 90.6394 42.573 89.9178 42.7451C88.377 43.1174 86.5795 42.7142 85.257 43.6156C84.5226 44.1292 84.0809 44.9406 83.6701 45.729L82.6429 47.6857C82.0831 48.7565 81.5182 49.8453 81.2845 51.024C81.0508 52.2026 81.192 53.5225 81.9393 54.4701C82.4837 55.1609 83.2875 55.5948 83.8781 56.2445C84.2319 56.6397 84.5003 57.1037 84.6664 57.6074C84.8326 58.1112 84.8929 58.6438 84.8436 59.1719C85.5138 58.9151 85.578 58.0112 85.5934 57.2922C85.622 56.0203 85.8419 54.7599 86.2457 53.5534C86.48 52.7575 86.878 52.0193 87.4141 51.386C87.6849 51.0723 88.0193 50.8199 88.3952 50.6454C88.7711 50.471 89.1798 50.3786 89.5942 50.3743C90.6214 50.4102 91.5433 51.119 92.5601 51.0342C93.3305 50.97 94.0136 50.4436 94.7891 50.3409C95.4729 50.2762 96.1561 50.4695 96.7047 50.8827C97.2476 51.2947 97.7232 51.7885 98.1145 52.3464C99.5166 54.1928 100.654 56.3575 100.721 58.6738C101.011 58.8869 101.43 58.6096 101.573 58.2809C101.717 57.9522 101.722 57.567 101.905 57.2537C102.115 56.8916 102.518 56.699 102.834 56.4268C103.636 55.7361 103.836 54.5728 103.805 53.5174C103.774 52.462 103.569 51.3912 103.769 50.3538C103.89 49.7169 104.162 49.1212 104.311 48.492C104.46 47.8629 104.478 47.1567 104.126 46.6149C103.612 45.8188 102.531 45.6622 101.589 45.5877C100.518 45.4953 99.5603 45.6134 98.8772 44.7121C98.5566 44.2417 98.1957 43.8001 97.7987 43.3922C97.6626 43.2586 96.2887 42.4112 96.2887 42.3547Z" fill="#512E4E"/>
<path opacity="0.1" d="M68.3782 96.5071L65.6947 91.5459L64.8447 99.2008C64.8447 99.2008 65.3172 102.601 65.2222 103.122C65.1272 103.643 67.1584 108.317 67.1584 108.317C67.1584 108.317 73.8683 120.268 76.6083 120.884L85.8656 114.269L83.4107 111.152C83.4107 111.152 82.5607 110.821 82.3476 111.152C82.3476 111.152 77.7895 103.309 77.317 102.742C76.8445 102.174 76.937 101.042 76.937 101.042C76.937 101.042 76.2282 100.287 76.4645 99.5783C76.7007 98.8696 75.0958 96.4121 75.0958 96.4121L76.5595 95.0434L68.3782 96.5071Z" fill="black"/>
<path d="M65.8358 90.981L65.1271 91.5459L64.2771 99.2008C64.2771 99.2008 64.7496 102.601 64.6546 103.122C64.5596 103.643 66.5934 108.317 66.5934 108.317C66.5934 108.317 73.3007 120.268 76.0407 120.884L85.3005 114.269L82.843 111.152C82.843 111.152 81.9931 110.821 81.7799 111.152C81.7799 111.152 77.2219 103.309 76.7494 102.742C76.2769 102.174 76.3719 101.042 76.3719 101.042C76.3719 101.042 75.6632 100.287 75.8994 99.5783C76.1357 98.8696 74.5282 96.4121 74.5282 96.4121L75.9919 95.0434L65.8358 90.981Z" fill="white"/>
<path opacity="0.1" d="M109.816 120.969C110.33 121.593 110.006 124.395 110.006 124.395L108.589 126.742C108.589 126.742 108.674 128.257 108.679 130.298L106.296 131.043C106.08 131.11 105.852 131.125 105.63 131.086C105.408 131.047 105.198 130.956 105.018 130.819C104.838 130.683 104.694 130.505 104.597 130.302C104.5 130.098 104.453 129.874 104.46 129.648L104.871 116.396L110.43 118.522C109.958 118.85 110.476 119.657 110.476 119.657C110.476 119.657 109.298 120.345 109.816 120.969Z" fill="black"/>
<path d="M110.101 120.684C110.615 121.308 110.291 124.112 110.291 124.112L108.874 126.459C108.874 126.459 108.959 127.971 108.966 130.015L106.54 130.773C106.329 130.838 106.105 130.853 105.888 130.814C105.67 130.776 105.465 130.686 105.289 130.553C105.113 130.419 104.972 130.245 104.877 130.046C104.782 129.847 104.735 129.628 104.742 129.407L105.156 116.113L110.718 118.239C110.243 118.568 110.761 119.371 110.761 119.371C110.761 119.371 109.588 120.062 110.101 120.684Z" fill="white"/>
<path d="M111.942 114.367C111.942 114.367 111.565 116.778 110.62 116.919C109.675 117.06 109.251 120.82 108.309 120.686C107.366 120.553 107.99 117.191 108.024 116.539C108.057 115.887 106.997 113.185 107.79 112.572C108.584 111.958 111.095 112.572 111.095 112.572L111.942 114.367Z" fill="#CF6F80"/>
<path opacity="0.1" d="M113.953 95.7982L115.735 92.2031C115.735 92.2031 116.444 94.9431 116.444 96.4068C116.444 97.8705 117.435 98.0143 117.435 98.0143C117.435 98.0143 118.521 99.2982 117.949 100.233C117.376 101.168 117.145 103.494 117.145 103.494C117.145 103.494 117.333 107.934 116.483 108.548C115.633 109.162 115.455 110.628 115.455 110.628C115.455 110.628 113.894 113.414 113.943 114.077C113.992 114.739 111.77 119.225 111.77 119.225C111.77 119.225 112.857 113.65 106.527 111.242C106.527 111.242 106.478 109.349 106.951 108.83C107.423 108.312 108.16 108.075 107.698 105.454C107.236 102.832 107.564 99.6988 107.564 99.0697C107.564 98.4406 108.982 94.5168 108.982 94.5168L113.953 95.7982Z" fill="black"/>
<path d="M114.724 91.6895L116.28 92.203C116.28 92.203 116.991 94.943 116.991 96.4067C116.991 97.8704 117.982 98.0142 117.982 98.0142C117.982 98.0142 119.068 99.2981 118.496 100.233C117.923 101.168 117.695 103.494 117.695 103.494C117.695 103.494 117.882 107.934 117.032 108.548C116.182 109.161 115.992 110.628 115.992 110.628C115.992 110.628 114.433 113.414 114.482 114.076C114.531 114.739 112.307 119.225 112.307 119.225C112.307 119.225 113.396 113.65 107.063 111.241C107.063 111.241 107.017 109.349 107.49 108.83C107.962 108.311 108.699 108.075 108.237 105.453C107.775 102.832 108.103 99.6987 108.103 99.0696C108.103 98.4405 109.521 94.5167 109.521 94.5167L114.724 91.6895Z" fill="white"/>
<path opacity="0.1" d="M80.3523 184.871C80.3523 184.871 82.8329 183.312 84.4609 184.445C86.089 185.577 80.3523 184.871 80.3523 184.871Z" fill="black"/>
<path opacity="0.1" d="M99.627 180.051C99.627 180.051 101.823 179.769 103.666 181.753C105.51 183.738 99.627 180.051 99.627 180.051Z" fill="black"/>
<g opacity="0.1">
<path d="M102.839 55.8646C102.524 56.1368 102.118 56.332 101.907 56.6941C101.727 57.0048 101.722 57.3874 101.579 57.7212C101.435 58.055 101.016 58.3272 100.726 58.1167C100.659 55.8056 99.5191 53.6357 98.1195 51.7868C97.7283 51.2288 97.2527 50.735 96.7098 50.3231C96.1602 49.9099 95.4761 49.7167 94.7915 49.7813C94.0212 49.8865 93.3432 50.4104 92.5652 50.4746C91.538 50.5619 90.6161 49.8506 89.5967 49.8146C89.1824 49.8188 88.7738 49.9114 88.3982 50.0863C88.0226 50.2613 87.6888 50.5145 87.4191 50.829C86.883 51.4612 86.485 52.1986 86.2507 52.9937C85.8472 54.2003 85.6273 55.4606 85.5985 56.7326C85.583 57.449 85.5163 58.3426 84.8538 58.6097C84.8692 58.7994 84.8692 58.9901 84.8538 59.1798C85.5214 58.923 85.5882 58.0191 85.6036 57.3001C85.6322 56.0281 85.8521 54.7677 86.2558 53.5612C86.4902 52.7653 86.8882 52.0271 87.4242 51.3939C87.6945 51.0803 88.0285 50.8278 88.404 50.6534C88.7795 50.4789 89.1878 50.3864 89.6018 50.3821C90.629 50.4181 91.5534 51.1268 92.5703 51.0421C93.3407 50.9779 94.0237 50.4515 94.7967 50.3488C95.4813 50.2842 96.1653 50.4774 96.7149 50.8906C97.2578 51.3025 97.7334 51.7963 98.1247 52.3543C99.5242 54.2006 100.664 56.3654 100.731 58.6816C101.021 58.8947 101.44 58.6174 101.584 58.2887C101.727 57.96 101.733 57.5748 101.912 57.2616C102.123 56.8995 102.529 56.7069 102.844 56.4347C103.646 55.7439 103.846 54.5807 103.815 53.5253C103.815 53.4919 103.815 53.4585 103.815 53.4277C103.766 54.3419 103.522 55.274 102.839 55.8646Z" fill="black"/>
<path d="M83.8831 55.6821C83.2925 55.0324 82.4862 54.5984 81.9443 53.9102C81.4881 53.301 81.2275 52.5676 81.1971 51.8071C81.1163 52.7575 81.3817 53.705 81.9443 54.4752C82.4862 55.1659 83.2925 55.5999 83.8831 56.2496C84.4502 56.8851 84.7906 57.6906 84.8512 58.5402C84.8905 58.0231 84.825 57.5035 84.6587 57.0124C84.4923 56.5213 84.2285 56.0688 83.8831 55.6821Z" fill="black"/>
<path d="M104.316 47.9298C104.165 48.559 103.895 49.1573 103.772 49.7916C103.699 50.2154 103.672 50.6459 103.692 51.0755C103.701 50.8308 103.727 50.587 103.772 50.3462C103.895 49.7094 104.165 49.1136 104.316 48.4845C104.404 48.1375 104.433 47.778 104.401 47.4214C104.385 47.5927 104.356 47.7626 104.316 47.9298Z" fill="black"/>
</g>
<path opacity="0.1" d="M34.0837 195.312C47.9027 195.312 59.1053 193.513 59.1053 191.293C59.1053 189.074 47.9027 187.274 34.0837 187.274C20.2646 187.274 9.06201 189.074 9.06201 191.293C9.06201 193.513 20.2646 195.312 34.0837 195.312Z" fill="#1ABFB5"/>
<path d="M34.8901 114.308H33.28V150.559H34.8901V114.308Z" fill="#535461"/>
<path d="M45.0075 150.448L44.9074 152.082L44.7636 154.393L44.7045 155.353L44.5633 157.664L44.5017 158.625L44.3579 160.936L42.735 187.146C42.6644 188.274 42.1668 189.332 41.3434 190.106C40.52 190.88 39.4327 191.311 38.3027 191.311H29.8646C28.735 191.311 27.6479 190.88 26.8249 190.106C26.002 189.332 25.5049 188.274 25.435 187.146L23.8198 160.918L23.676 158.607L23.6169 157.646L23.4731 155.335L23.414 154.375L23.2702 152.064L23.1675 150.43C23.1497 150.116 23.1963 149.801 23.3044 149.506C23.4125 149.21 23.5799 148.939 23.7963 148.711C24.0127 148.482 24.2736 148.3 24.5629 148.176C24.8522 148.052 25.1638 147.988 25.4786 147.988H42.7375C43.0512 147.991 43.3609 148.058 43.6477 148.185C43.9345 148.312 44.1922 148.497 44.4049 148.727C44.6176 148.958 44.7808 149.229 44.8845 149.525C44.9881 149.821 45.03 150.135 45.0075 150.448Z" fill="#3F3D56"/>
<path d="M44.9074 152.082L44.7636 154.385H23.4038L23.26 152.082H44.9074Z" fill="#9D9CB5"/>
<path d="M44.7046 155.345L44.5633 157.651H23.6067L23.4629 155.345H44.7046Z" fill="#9D9CB5"/>
<path d="M44.5017 158.614L44.3605 160.918H23.8096L23.6658 158.614H44.5017Z" fill="#9D9CB5"/>
<path d="M20.8025 127.894C30.1779 134.679 34.0914 145.289 34.0914 145.289C34.0914 145.289 22.7926 144.901 13.4146 138.117C4.03664 131.333 0.130859 120.725 0.130859 120.725C0.130859 120.725 11.4245 121.11 20.8025 127.894Z" fill="#1ABFB5"/>
<path d="M0.123291 120.725C0.123291 120.725 11.8535 127.234 15.6154 132.624C19.3774 138.014 34.0915 145.289 34.0915 145.289" stroke="#535461" stroke-width="2" stroke-miterlimit="10"/>
<path d="M26.8551 114.228C31.9575 117.918 34.0914 123.693 34.0914 123.693C34.0914 123.693 27.9413 123.483 22.8363 119.793C17.7313 116.102 15.6025 110.325 15.6025 110.325C15.6025 110.325 21.7501 110.535 26.8551 114.228Z" fill="#1ABFB5"/>
<path d="M15.6025 110.325C15.6025 110.325 21.9863 113.868 24.033 116.801C26.0796 119.733 34.0914 123.693 34.0914 123.693" stroke="#535461" stroke-width="2" stroke-miterlimit="10"/>
<path d="M41.4998 123.4C35.6373 129.843 34.397 138.263 34.397 138.263C34.397 138.263 42.6631 136.235 48.5204 129.789C54.3778 123.344 55.6233 114.926 55.6233 114.926C55.6233 114.926 47.3623 116.957 41.4998 123.4Z" fill="#1ABFB5"/>
<path d="M55.6284 114.929C55.6284 114.929 47.9914 121.534 46.0501 126.084C44.1088 130.634 34.397 138.264 34.397 138.264" stroke="#535461" stroke-width="2" stroke-miterlimit="10"/>
<path d="M256.706 121.133C256.706 121.133 252.466 100.04 254.089 97.4158C254.089 97.4158 254.148 94.9763 254.05 91.8666C254.05 91.7484 254.05 91.6303 254.05 91.5096C254.336 91.7 254.634 91.8715 254.941 92.0232C256.437 92.7914 258.153 93.013 259.795 92.6498L258.511 91.2194C258.203 90.8779 257.882 90.5081 257.815 90.0562C257.748 89.6042 257.933 89.2011 258.092 88.7979C259.312 85.7164 259.376 81.8415 257.027 79.4893C255.042 77.512 254.559 74.9595 252.404 73.1542C250.83 71.8318 249.965 69.893 249.148 68.0184C248.457 66.434 247.762 64.8368 247.366 63.1574C247.058 61.8452 246.935 60.4868 246.511 59.2054C246.087 57.924 245.294 56.6786 244.053 56.1059C243.612 55.9031 243.121 55.7875 242.718 55.5179C242.189 55.1609 241.871 54.5806 241.488 54.0722C239.544 51.5043 233.035 53.0168 229.953 54.0593C229.115 54.3219 228.34 54.7517 227.673 55.3227L227.701 55.2765C227.724 55.238 227.752 55.1995 227.778 55.161C227.441 55.4337 227.15 55.7588 226.915 56.1239C226.466 56.8352 226.278 57.6647 225.904 58.435C225.452 59.3466 222.938 61.8914 224.019 62.916C224.094 62.9848 224.181 63.0404 224.276 63.0804C224.681 63.2493 225.128 63.294 225.559 63.2088L225.513 63.3192C225.144 64.2232 224.955 65.1905 224.956 66.167C224.956 70.386 228.436 73.8065 232.732 73.8065C233.539 73.8073 234.342 73.6834 235.112 73.4393C235.13 73.5369 235.145 73.6344 235.163 73.732C235.163 73.7705 235.176 73.8091 235.181 73.8476L235.045 74.0376C235.038 74.0259 235.031 74.0147 235.022 74.0042L230.991 79.6382C230.374 80.0722 226.825 82.6401 226.625 84.566C226.415 86.6743 226.204 89.142 226.204 89.142L226.176 89.671C226 89.8182 225.794 89.9255 225.572 89.9853C225.35 90.0452 225.118 90.0562 224.892 90.0177C223.634 89.8122 223.634 94.6399 223.634 94.6399C223.634 94.6399 222.796 95.4102 222.221 94.7426C221.646 94.0749 220.126 96.3373 220.126 96.3373L210.599 96.7481L210.381 96.761L209.867 95.1714C209.812 95.0038 209.693 94.8647 209.535 94.7844C209.378 94.7041 209.196 94.6891 209.027 94.7426C208.988 94.7557 208.949 94.772 208.912 94.7914L208.876 94.8119L208.809 94.8582L208.776 94.889C208.757 94.9057 208.74 94.9237 208.724 94.9429L208.693 94.9788L208.678 94.9943C208.619 95.0762 208.58 95.171 208.563 95.2709C208.547 95.3708 208.555 95.473 208.586 95.5695L209.027 96.933C207.189 97.3028 205.309 98.3454 206.842 101.216L199.072 99.7808L201.586 101.892L214.564 104.57C214.392 104.878 214.505 105.325 215.041 105.954C217.352 108.668 221.564 109.405 223.259 109.595C223.706 110.597 224.265 111.544 224.925 112.42L224.779 115.124C224.779 115.124 220.488 135.734 219.702 136.779C220.099 136.33 220.462 135.852 220.788 135.349C219.543 139.583 217.802 145.379 217.345 146.247C216.61 147.634 215.93 153.245 216.767 153.604C217.024 153.714 217.758 153.661 218.806 153.581V154.046L218.76 171.659C218.76 171.659 218.97 182.462 218.392 183.492C217.815 184.522 217.661 186.681 217.661 186.681C217.661 186.681 215.349 190.941 213.519 192.654C213.506 192.667 213.492 192.68 213.477 192.69L213.421 192.29C213.421 192.29 211.22 195.068 206.352 194.911C206.352 194.911 203.422 196.817 207.766 196.919C212.111 197.022 217.661 196.765 217.661 196.765C217.661 196.765 221.536 190.859 224.781 191.63V196.105H225.775V191.558C226.236 191.254 226.63 190.86 226.935 190.4C227.239 189.94 227.446 189.422 227.544 188.879C227.629 188.32 227.567 187.748 227.364 187.219C227.16 186.691 226.822 186.225 226.384 185.867C226.187 185.689 226.029 185.472 225.919 185.23C225.81 184.988 225.752 184.726 225.749 184.46L225.714 184.491C225.714 184.401 225.69 184.308 225.68 184.213C225.395 181.902 225.038 177.134 226.299 173.605C228.027 168.768 228.551 162.029 227.293 158.018C226.887 156.736 226.553 155.432 226.294 154.113C226.263 153.946 226.235 153.786 226.209 153.637C227.069 153.754 227.921 153.925 228.759 154.151C231.674 154.955 238.05 155.104 243.494 155.06C243.507 155.209 243.522 155.366 243.54 155.522C243.637 156.611 243.84 157.688 244.146 158.737C244.829 160.792 245.142 169.849 245.142 169.849C245.142 169.849 246.023 177.296 245.543 180.326C245.286 182.01 245.029 183.702 244.883 185.402V185.436C244.883 185.436 243.44 189.544 242.384 191.776C242.359 191.832 242.33 191.889 242.305 191.943C242.023 191.968 241.746 192.03 241.48 192.125C241.48 192.125 240.066 194.95 238.656 195.417C237.246 195.885 237.713 197.423 240.905 196.858C244.097 196.293 248.917 195.831 248.917 195.831L249.125 192.949L250.106 191.722L249.849 194.595L250.894 194.39L250.756 190.895L252.361 188.887C252.361 188.887 254.299 187.161 251.418 183.767V183.841C251.387 183.792 251.359 183.741 251.326 183.692V183.677C250.848 182.937 250.468 181.558 251.164 179.111C252.422 174.689 253.154 170.675 253.154 170.675C253.154 170.675 255.963 159.924 252.587 154.837H252.736C252.389 154.121 252.145 153.36 252.009 152.577C251.992 152.484 251.976 152.389 251.963 152.292C254.461 152.148 256.914 151.696 258.914 150.72C258.906 150.71 257.702 125.195 256.706 121.133ZM224.984 103.337V103.389L224.471 103.414L224.984 103.337ZM223.223 103.581C223.138 103.6 223.059 103.638 222.992 103.692C222.771 104.004 222.632 104.367 222.588 104.747L221.787 104.567C221.787 104.567 221.225 104.447 220.416 104.311L220.033 103.925C221.086 103.838 222.18 103.71 223.223 103.581Z" fill="url(#paint1_linear_601_168)"/>
<path d="M249.731 190.931L249.426 194.57L250.45 194.364L250.296 190.417L249.731 190.931Z" fill="#1D2366"/>
<path d="M226.355 173.655C225.12 177.173 225.469 181.921 225.747 184.227C225.85 185.079 225.945 185.598 225.945 185.598C225.945 185.598 224.098 189.804 223.944 189.963C223.79 190.123 218.51 193.345 218.51 193.345L214.82 195.5C214.82 195.5 211.076 193.859 212.871 193.294C213.238 193.147 213.568 192.922 213.839 192.634C215.637 190.926 217.894 186.682 217.894 186.682C217.894 186.682 218.048 184.527 218.613 183.503C219.178 182.478 218.973 171.711 218.973 171.711L219.016 154.159V151.871L226.04 151.922C226.084 152.699 226.185 153.472 226.343 154.234C226.595 155.549 226.921 156.848 227.321 158.127C228.559 162.13 228.045 168.835 226.355 173.655Z" fill="#FFB0B1"/>
<path opacity="0.1" d="M225.945 185.598C225.945 185.598 224.098 189.804 223.944 189.963C223.79 190.122 218.51 193.345 218.51 193.345L214.82 195.499C214.82 195.499 211.076 193.859 212.871 193.294C213.238 193.146 213.568 192.921 213.839 192.634L213.999 193.756L215.229 193.704L225.757 184.231C225.85 185.079 225.945 185.598 225.945 185.598Z" fill="black"/>
<path d="M225.816 184.47L215.229 194.007L213.999 194.059L213.742 192.261C213.742 192.261 211.59 195.029 206.809 194.875C206.809 194.875 203.938 196.773 208.193 196.876C212.448 196.978 217.881 196.722 217.881 196.722C217.881 196.722 221.677 190.816 224.853 191.586V196.046H225.829V191.545C226.283 191.239 226.67 190.845 226.967 190.386C227.265 189.927 227.466 189.413 227.56 188.874C227.644 188.319 227.585 187.752 227.386 187.226C227.188 186.701 226.858 186.236 226.427 185.875C226.235 185.695 226.082 185.477 225.977 185.236C225.872 184.994 225.817 184.734 225.816 184.47Z" fill="#1D2366"/>
<path d="M250.707 179.14C250.024 181.579 250.396 182.953 250.864 183.69V183.705C251.463 184.615 251.88 185.633 252.091 186.702L252.132 186.933L247.315 193.956L244.701 194.983C244.701 194.983 240.497 193.548 241.265 193.137C241.457 193.037 241.758 192.503 242.102 191.766C243.129 189.545 244.547 185.446 244.547 185.446V185.413C244.696 183.721 244.932 182.034 245.194 180.354C245.664 177.332 244.801 169.913 244.801 169.913C244.801 169.913 244.493 160.892 243.825 158.84C243.524 157.797 243.323 156.727 243.227 155.646C243.088 154.362 243.057 153.304 243.057 153.304C243.057 153.304 245.825 149.452 250.9 153.612C251.305 153.944 251.662 154.331 251.96 154.762C255.465 159.749 252.643 170.735 252.643 170.735C252.643 170.735 251.937 174.73 250.707 179.14Z" fill="#FFB0B1"/>
<path opacity="0.1" d="M252.14 186.933L247.322 193.956L244.708 194.983C244.708 194.983 240.505 193.548 241.272 193.137C241.465 193.037 241.765 192.503 242.11 191.766C243.889 191.75 244.811 193.445 244.811 193.445L247.066 193.086C247.066 193.086 250.039 187.241 250.707 186.884C251.375 186.527 250.81 184.216 250.81 184.216V183.628C250.828 183.648 250.843 183.672 250.864 183.692V183.708C251.463 184.618 251.88 185.635 252.091 186.704L252.14 186.933Z" fill="black"/>
<path d="M244.965 193.597C244.965 193.597 243.681 191.239 241.221 192.11C241.221 192.11 239.837 194.934 238.453 195.391C237.069 195.849 237.531 197.389 240.659 196.827C243.786 196.265 248.501 195.8 248.501 195.8L248.706 192.926L251.886 188.877C251.886 188.877 253.781 187.159 250.961 183.777V184.365C250.961 184.365 251.526 186.676 250.858 187.033C250.191 187.39 247.227 193.237 247.227 193.237L244.965 193.597Z" fill="#1D2366"/>
<path opacity="0.1" d="M226.047 151.917C226.092 152.694 226.193 153.466 226.35 154.228C223.459 153.804 220.775 154.015 219.016 154.154V151.866L226.047 151.917Z" fill="black"/>
<path opacity="0.1" d="M252.245 155.402C252.245 155.402 248.136 155.602 243.237 155.643C243.098 154.359 243.067 153.301 243.067 153.301C243.067 153.301 245.836 149.45 250.91 153.61C251.316 153.941 251.673 154.329 251.97 154.76C252.05 154.979 252.142 155.193 252.245 155.402Z" fill="black"/>
<path d="M252.245 154.939C252.245 154.939 234.249 155.81 228.764 154.272C223.279 152.734 217.843 154.066 217.024 153.709C216.205 153.353 216.87 147.762 217.589 146.378C218.308 144.994 222.252 130.996 222.252 130.996L226.047 111.208L230.046 110.106L230.328 110.027L237.295 108.106L242.4 106.696C242.4 106.696 252.551 146.327 251.68 149.249C251.364 150.368 251.313 151.545 251.531 152.687C251.664 153.467 251.904 154.225 252.245 154.939Z" fill="#1D2366"/>
<path d="M212.817 97.6753C212.817 97.6753 209.222 101.527 211.944 103.674C214.666 105.821 216.456 103.879 216.456 103.879L212.817 97.6753Z" fill="#C7DAF5"/>
<path opacity="0.1" d="M212.817 97.6753C212.817 97.6753 209.222 101.527 211.944 103.674C214.666 105.821 216.456 103.879 216.456 103.879L212.817 97.6753Z" fill="black"/>
<path d="M241.863 72.3507C241.863 72.3507 241.442 72.7513 240.808 73.3419C239.904 74.1868 238.566 75.4219 237.379 76.4568C235.736 77.8871 234.38 78.9374 234.865 78.0412C235.351 77.145 235.258 75.5837 235.017 74.1226C234.999 74.025 234.984 73.9274 234.966 73.8324C234.766 72.7593 234.501 71.6994 234.172 70.6585C234.172 70.6585 236.827 67.2277 238.296 65.8745C238.843 65.3609 239.226 65.1503 239.249 65.5073C239.275 65.9875 239.634 67.048 240.081 68.1727C240.094 68.2087 240.107 68.2421 240.122 68.278C240.42 69.0484 240.756 69.8393 241.052 70.5224C241.503 71.5701 241.863 72.3507 241.863 72.3507Z" fill="#FFB0B1"/>
<path opacity="0.1" d="M240.122 68.2779C239.872 69.62 239.267 70.8705 238.369 71.8986C237.471 72.9267 236.313 73.6947 235.017 74.1225C234.813 72.9503 234.531 71.793 234.172 70.6584C234.172 70.6584 239.172 64.2001 239.249 65.5072C239.267 66.0028 239.657 67.1018 240.122 68.2779Z" fill="black"/>
<path opacity="0.1" d="M234.519 75.8481L235.166 74.9365C235.166 74.9365 235.595 77.5506 237.171 76.3977C238.748 75.2447 238.825 85.0746 238.825 85.0746L237.133 110.376L224.905 109.644L225.251 97.4185L226.635 91.2555L230.058 82.2961L232.095 79.3353L234.519 75.8481Z" fill="black"/>
<path d="M238.825 85.2315L237.285 108.109L237.123 110.533L230.305 110.125L230.048 110.109L224.912 109.801L225.259 97.5728L226.643 91.4099L230.066 82.4504L232.102 79.4897L234.527 75.9896L235.174 75.0806C235.174 75.0806 235.603 77.6947 237.179 76.5417L237.213 76.5186C238.753 75.5428 238.825 85.2315 238.825 85.2315Z" fill="#1D2366"/>
<path d="M226.815 89.2681C226.815 89.2681 226.201 90.552 224.969 90.344C223.736 90.136 223.739 94.9662 223.739 94.9662C223.739 94.9662 222.92 95.7366 222.355 95.069C221.79 94.4013 220.3 96.6585 220.3 96.6585L210.969 97.0694C210.969 97.0694 215.121 98.967 214.307 104.709C214.307 104.709 228.405 103.836 228.867 102.503C229.329 101.17 226.815 89.2681 226.815 89.2681Z" fill="white"/>
<path opacity="0.03" d="M226.815 89.2681C226.815 89.2681 226.201 90.552 224.969 90.344C223.736 90.136 223.739 94.9662 223.739 94.9662C223.739 94.9662 222.92 95.7366 222.355 95.069C221.79 94.4013 220.3 96.6585 220.3 96.6585L210.969 97.0694C210.969 97.0694 215.121 98.967 214.307 104.709C214.307 104.709 228.405 103.836 228.867 102.503C229.329 101.17 226.815 89.2681 226.815 89.2681Z" fill="black"/>
<path d="M199.696 100.086L202.156 102.187L222.406 106.442L219.895 103.879L199.696 100.086Z" fill="white"/>
<path d="M234.557 76.6568C234.221 77.1704 233.258 79.8 232.454 82.0957C231.784 84.0088 231.224 85.6907 231.224 85.6907C231.224 85.6907 229.917 94.2008 229.25 95.7389C228.582 97.2771 228.944 103.276 228.944 103.276L226.456 118.09C226.456 118.09 225.328 125.729 223.587 130.293C221.869 134.784 219.956 136.89 219.897 136.956C220.668 135.914 224.866 115.386 224.866 115.386L226.253 89.4964C226.253 89.4964 226.456 87.0363 226.661 84.9332C226.866 82.8301 231.026 79.9592 231.026 79.9592L235.038 74.2559C235.441 74.7951 235.171 75.735 234.557 76.6568Z" fill="white"/>
<path d="M224.098 109.929C224.098 109.929 218.192 109.673 215.331 106.237C212.471 102.801 221.944 104.866 221.944 104.866L224.406 105.431L224.098 109.929Z" fill="#FFB0B1"/>
<path opacity="0.1" d="M251.68 149.252C251.364 150.371 251.313 151.548 251.531 152.69C245.088 153.147 238.196 151.406 238.196 151.406C236.912 152.587 233.53 154.328 233.53 154.328L231.687 131.474C230.508 128.392 230.046 112.248 230.046 112.248C230.046 112.248 230.151 111.403 230.302 110.137C230.302 110.106 230.302 110.073 230.315 110.042C230.775 106.506 231.687 99.8682 232.133 98.972C232.75 97.7394 230.238 94.4602 230.238 94.4602L231.381 84.715L231.52 83.5389C233.928 82.463 235.775 79.0271 235.775 79.0271L237.192 76.544C238.733 75.5553 238.812 85.244 238.812 85.244L237.272 108.121L242.377 106.712C242.377 106.712 252.551 146.329 251.68 149.252Z" fill="black"/>
<path d="M258.293 150.831C251.269 154.318 238.504 151.088 238.504 151.088C237.22 152.269 233.838 154.01 233.838 154.01L231.992 131.156C230.816 128.074 230.354 111.93 230.354 111.93C230.354 111.93 231.838 99.8839 232.454 98.6539C232.634 98.2944 232.547 97.7602 232.334 97.185C231.286 94.4472 230.9 91.5004 231.209 88.5851L231.702 84.3969L231.838 83.2234C234.249 82.1448 236.096 78.709 236.096 78.709L237.38 76.4595L239.742 72.3149L240.862 70.353L241.052 70.5251L242.503 71.8398C242.503 71.8398 243.119 72.3534 244.043 73.1238C246.054 74.8186 249.528 77.8025 251.321 79.6283C252.897 81.2358 253.396 87.4886 253.539 92.1956C253.634 95.2951 253.578 97.7243 253.578 97.7243C251.988 100.341 256.146 121.349 256.146 121.349C257.114 125.409 258.293 150.831 258.293 150.831Z" fill="white"/>
<path opacity="0.03" d="M244.811 78.6576C244.811 78.6576 239.991 87.8327 240.551 91.3199C241.111 94.8071 242.703 98.754 241.935 99.6759C241.671 100.025 241.33 100.309 240.939 100.504C240.547 100.7 240.115 100.802 239.678 100.803C238.907 100.855 236.853 102.29 236.853 102.444C236.853 102.598 234.955 102.598 233.258 103.317C231.561 104.036 229.054 104.444 229.054 104.444C229.054 104.444 224.175 104.29 223.721 104.753C223.266 105.215 222.799 107.98 223.772 110.186C224.745 112.392 225.826 114.038 226.643 114.339C227.46 114.639 232.642 112.903 236.845 112.492C241.049 112.081 245.612 108.751 245.612 108.751C245.612 108.751 250.638 106.953 251.518 103.931C252.399 100.908 250.442 84.2967 250.442 84.2967C250.442 84.2967 248.963 76.5545 244.811 78.6576Z" fill="black"/>
<path opacity="0.03" d="M244.195 77.8869C244.195 77.8869 239.375 87.0646 239.94 90.5492C240.505 94.0338 242.092 97.9833 241.321 98.9077C241.058 99.2574 240.718 99.5412 240.327 99.7368C239.935 99.9325 239.504 100.035 239.067 100.035C238.296 100.086 236.242 101.522 236.242 101.676C236.242 101.83 234.344 101.83 232.647 102.546C230.949 103.263 228.443 103.674 228.443 103.674C228.443 103.674 223.564 103.52 223.112 103.982C222.66 104.444 222.188 107.212 223.164 109.416C224.139 111.619 225.218 113.267 226.034 113.568C226.851 113.868 232.033 112.132 236.237 111.724C240.44 111.316 245.004 107.98 245.004 107.98C245.004 107.98 250.026 106.183 250.897 103.163C251.767 100.143 249.821 83.526 249.821 83.526C249.821 83.526 248.347 75.7863 244.195 77.8869Z" fill="black"/>
<path d="M244.66 78.1951C244.66 78.1951 239.84 87.3727 240.405 90.8574C240.97 94.342 242.556 98.2915 241.789 99.2133C241.526 99.5638 241.185 99.8483 240.793 100.044C240.402 100.241 239.97 100.343 239.531 100.343C238.761 100.395 236.707 101.83 236.707 101.982C236.707 102.133 234.812 102.136 233.112 102.855C231.412 103.574 228.908 103.982 228.908 103.982C228.908 103.982 224.029 103.828 223.575 104.29C223.12 104.752 222.653 107.521 223.626 109.724C224.599 111.927 225.68 113.576 226.497 113.876C227.313 114.177 232.495 112.441 236.699 112.03C240.903 111.619 245.466 108.288 245.466 108.288C245.466 108.288 250.491 106.491 251.372 103.468C252.253 100.446 250.309 83.8342 250.309 83.8342C250.309 83.8342 248.809 76.1048 244.66 78.1951Z" fill="white"/>
<path opacity="0.1" d="M244.554 102.811C244.554 102.811 240.702 102.041 242.043 103.325C243.383 104.609 243.376 105.734 245.016 105.682C246.657 105.631 244.554 102.811 244.554 102.811Z" fill="black"/>
<path opacity="0.1" d="M251.064 130.437C251.064 130.437 249.323 131.615 252.653 134.332C255.984 137.049 251.064 130.437 251.064 130.437Z" fill="black"/>
<path opacity="0.1" d="M247.741 140.125C247.741 140.28 247.125 145.775 249.431 147.149C251.737 148.523 247.741 140.125 247.741 140.125Z" fill="black"/>
<path d="M211.128 97.0566C209.269 97.1208 205.253 97.6883 207.335 101.574C209.176 105.012 212.271 102.714 214.012 100.97C213.587 99.3445 212.555 97.9438 211.128 97.0566Z" fill="#FFB0B1"/>
<path opacity="0.1" d="M244.043 73.2803C242.071 74.6284 240.417 75.766 240.094 76.0023C239.21 76.6571 237.526 80.5012 236.44 82.4631C235.574 84.0424 232.762 84.4481 231.702 84.5483L231.838 83.3747C234.249 82.2962 236.096 78.8604 236.096 78.8604L240.862 70.5044L242.503 71.9963C242.503 71.9963 243.119 72.5099 244.043 73.2803Z" fill="black"/>
<path d="M244.043 73.126C242.071 74.4741 240.417 75.6117 240.094 75.8505C239.21 76.5028 237.526 80.3469 236.44 82.3088C235.574 83.8881 232.762 84.2938 231.702 84.394L231.838 83.2204C234.249 82.1419 236.096 78.7061 236.096 78.7061L240.862 70.3501L242.503 71.8369C242.503 71.8369 243.119 72.3454 244.043 73.126Z" fill="#DCE7FF"/>
<path d="M240.248 66.5834C240.249 68.1248 239.782 69.6303 238.907 70.9C237.875 72.4013 236.339 73.4828 234.578 73.9483C232.816 74.4138 230.946 74.2324 229.307 73.4371C227.668 72.6418 226.368 71.2853 225.643 69.6136C224.919 67.942 224.817 66.0659 225.358 64.326C225.898 62.586 227.044 61.0973 228.588 60.1301C230.132 59.1629 231.972 58.7812 233.773 59.0543C235.575 59.3274 237.218 60.2372 238.406 61.6186C239.594 62.9999 240.248 64.7614 240.248 66.5834Z" fill="#FFB0B1"/>
<path opacity="0.1" d="M253.539 92.1982C252.496 91.5567 251.647 90.6444 251.082 89.5584C250.653 88.711 250.368 87.7326 249.636 87.1317C248.976 86.5925 248.095 86.4615 247.274 86.2201C244.572 85.4215 242.307 82.9563 242.223 80.1419C242.181 78.8169 242.595 77.4944 242.407 76.1822C242.301 75.4395 242.006 74.7367 241.55 74.1407C241.323 73.8557 241.075 73.5887 240.808 73.3421C240.448 73.0031 240.071 72.6744 239.742 72.3149C239.535 72.0923 239.354 71.8468 239.203 71.5831C239.081 71.3673 238.982 71.1392 238.907 70.9026C238.394 69.331 238.861 67.4667 238.296 65.8772L238.265 65.7899C238.052 65.225 237.618 64.66 237.015 64.6164C236.411 64.5727 235.895 65.0735 235.32 65.2969C234.116 65.7642 232.816 64.9682 231.812 64.1567C230.808 63.3453 229.676 62.4182 228.4 62.598C227.555 62.7187 226.887 63.2939 226.109 63.5918C225.933 63.6598 225.752 63.7122 225.567 63.7484C226.226 62.1063 227.435 60.7447 228.989 59.8976C230.542 59.0506 232.342 58.7709 234.079 59.1066C235.816 59.4424 237.382 60.3726 238.508 61.7375C239.633 63.1024 240.249 64.8167 240.248 66.5859C240.249 67.1202 240.193 67.653 240.081 68.1755C240.094 68.2114 240.107 68.2448 240.122 68.2808C240.42 69.0511 240.756 69.842 241.052 70.5251L242.502 71.8399C242.502 71.8399 243.119 72.3535 244.043 73.1238C246.054 74.8186 249.528 77.8025 251.321 79.6283C252.897 81.241 253.39 87.4912 253.539 92.1982Z" fill="black"/>
<path d="M226.019 58.9001C226.386 58.1528 226.569 57.3157 227.008 56.6069C227.652 55.5798 228.777 54.9224 229.933 54.5244C232.95 53.4844 239.326 51.9744 241.231 54.5244C241.606 55.038 241.917 55.608 242.436 55.9624C242.831 56.232 243.309 56.3476 243.743 56.5505C244.957 57.1205 245.733 58.3634 246.146 59.6319C246.56 60.9005 246.683 62.2615 246.986 63.5685C247.374 65.2454 248.054 66.8349 248.732 68.4142C249.531 70.2785 250.378 72.2121 251.919 73.5294C254.022 75.327 254.487 77.8717 256.438 79.8439C258.75 82.1858 258.675 86.0505 257.484 89.1192C257.327 89.5223 257.15 89.9435 257.211 90.3723C257.273 90.8011 257.591 91.1915 257.892 91.533L259.155 92.9582C256.166 93.6798 252.784 92.1185 251.392 89.3785C250.964 88.5311 250.679 87.5553 249.944 86.9518C249.287 86.4126 248.403 86.2842 247.584 86.0428C244.883 85.2416 242.618 82.7739 242.533 79.9595C242.492 78.637 242.906 77.3145 242.718 76.0049C242.614 75.2572 242.317 74.5494 241.858 73.9506C241.152 73.0287 240.086 72.4098 239.511 71.3827C238.538 69.6647 239.277 67.4332 238.576 65.5895C238.36 65.0245 237.929 64.4596 237.326 64.4159C236.722 64.3723 236.206 64.873 235.628 65.0964C234.426 65.5638 233.127 64.7703 232.123 63.9563C231.119 63.1423 229.986 62.2178 228.708 62.4001C227.863 62.5183 227.198 63.0935 226.42 63.3939C225.844 63.6148 224.679 63.8125 224.175 63.3271C223.112 62.3488 225.575 59.8143 226.019 58.9001Z" fill="#591D4B"/>
<path opacity="0.1" d="M252.106 88.5308C251.675 87.6834 251.392 86.7076 250.658 86.1067C250.001 85.5675 249.117 85.4365 248.296 85.1951C245.597 84.3965 243.332 81.9288 243.244 79.1143C243.203 77.7919 243.617 76.4668 243.432 75.1572C243.324 74.4144 243.028 73.7115 242.572 73.1157C241.863 72.1938 240.797 71.575 240.225 70.5478C239.251 68.8325 239.991 66.601 239.287 64.7546C239.074 64.1923 238.64 63.6273 238.039 63.5811C237.438 63.5349 236.917 64.0408 236.342 64.2642C235.14 64.7315 233.838 63.9355 232.837 63.124C231.835 62.3126 230.698 61.3855 229.421 61.5653C228.577 61.686 227.909 62.2612 227.133 62.5591C226.558 62.7799 225.39 62.9802 224.887 62.4949C223.829 61.4677 226.291 58.9383 226.733 58.0293C227.1 57.2795 227.282 56.4449 227.724 55.7362C227.747 55.6976 227.773 55.6591 227.799 55.6206C227.468 55.8943 227.183 56.2184 226.954 56.581C226.515 57.2897 226.332 58.1217 225.965 58.8741C225.521 59.7832 223.058 62.3203 224.119 63.3397C224.632 63.8276 225.788 63.6273 226.363 63.4065C227.133 63.106 227.806 62.5308 228.651 62.4127C229.935 62.2304 231.065 63.1574 232.066 63.9689C233.068 64.7803 234.378 65.5764 235.574 65.109C236.149 64.8856 236.653 64.3823 237.269 64.4285C237.885 64.4747 238.296 65.0371 238.52 65.602C239.221 67.4458 238.481 69.6773 239.454 71.3952C240.029 72.4044 241.095 73.0361 241.801 73.9631C242.261 74.562 242.557 75.2698 242.662 76.0175C242.849 77.3271 242.436 78.6496 242.477 79.972C242.561 82.7967 244.826 85.2542 247.528 86.0554C248.342 86.2968 249.23 86.4252 249.888 86.9644C250.625 87.5679 250.915 88.5437 251.336 89.3911C252.728 92.131 256.11 93.6923 259.099 92.9707L258.503 92.298C255.912 92.3365 253.29 90.8625 252.106 88.5308Z" fill="black"/>
<path opacity="0.1" d="M234.403 76.8109C234.067 77.3245 233.104 79.9541 232.3 82.2498C231.548 81.957 230.865 80.0902 230.865 80.0902L234.876 74.3843C235.287 74.9492 235.017 75.8865 234.403 76.8109Z" fill="black"/>
<path d="M234.557 76.657C234.221 77.1706 233.258 79.8001 232.454 82.0958C231.702 81.8057 231.019 79.9362 231.019 79.9362L235.03 74.2329C235.441 74.7953 235.171 75.7351 234.557 76.657Z" fill="#DCE7FF"/>
<path d="M211.236 102.891L209.012 95.8776C208.985 95.7955 208.976 95.709 208.983 95.6231C208.99 95.5372 209.014 95.4535 209.054 95.3769C209.093 95.3003 209.148 95.2323 209.214 95.1768C209.28 95.1212 209.356 95.0793 209.438 95.0533C209.604 95.0016 209.783 95.0174 209.937 95.0973C210.091 95.1771 210.207 95.3145 210.26 95.4796L212.484 102.485L212.263 103.951L211.236 102.891Z" fill="#BE8B87"/>
<path opacity="0.1" d="M209.223 95.2613C209.388 95.2088 209.568 95.2242 209.723 95.3041C209.877 95.384 209.994 95.5219 210.047 95.6876L212.271 102.693L212.104 103.792L212.265 103.961L212.486 102.495L210.25 95.4898C210.197 95.3248 210.08 95.1874 209.927 95.1075C209.773 95.0277 209.593 95.0119 209.428 95.0636C209.289 95.1087 209.168 95.1991 209.086 95.3204C209.13 95.2969 209.176 95.2772 209.223 95.2613Z" fill="white"/>
<path d="M211.236 102.891L212.484 102.495L212.301 103.697L212.263 103.961L211.898 103.581L211.236 102.891Z" fill="#EFC8C4"/>
<path d="M211.898 103.581C211.92 103.554 211.947 103.531 211.978 103.515C211.996 103.503 212.017 103.497 212.038 103.497C212.06 103.497 212.08 103.503 212.098 103.515C212.116 103.536 212.131 103.559 212.142 103.584C212.159 103.612 212.182 103.636 212.21 103.655C212.237 103.673 212.269 103.685 212.301 103.689L212.263 103.946L211.898 103.581Z" fill="#727A9C"/>
<path d="M208.999 98.3687C208.999 98.3687 213.459 98.343 212.409 100.241C211.359 102.138 209.718 102.367 209.718 102.367L208.999 98.3687Z" fill="#FFB0B1"/>
<path d="M181.258 13.2041H181.065C173.403 13.2041 166.626 17.2588 162.728 23.242C158.83 17.2588 152.053 13.2041 144.391 13.2041H144.198C138.447 13.2589 132.951 15.581 128.903 19.6656C124.855 23.7503 122.582 29.2676 122.579 35.0184C122.579 42.1598 125.707 52.2927 131.805 60.6307C143.425 76.5183 162.728 90.4184 162.728 90.4184C162.728 90.4184 182.031 76.5209 193.648 60.6307C199.749 52.2927 202.875 42.1598 202.875 35.0184C202.871 29.268 200.599 23.7512 196.552 19.6665C192.504 15.5819 187.008 13.2596 181.258 13.2041ZM178.503 61.853C177.63 61.8497 176.779 61.5826 176.061 61.0867C175.342 60.5909 174.791 59.8894 174.479 59.0745H169.898C169.596 59.0727 169.302 58.9766 169.058 58.7999C168.813 58.6231 168.63 58.3744 168.534 58.0885L167.127 53.8489L162.674 69.4078C162.587 69.7073 162.406 69.9706 162.157 70.1581C161.908 70.3457 161.604 70.4473 161.293 70.4478H161.203C160.877 70.4321 160.567 70.3052 160.324 70.0883C160.081 69.8714 159.92 69.5777 159.867 69.2563L155.279 41.6565L151.925 57.9883C151.848 58.2986 151.669 58.5741 151.418 58.771C151.166 58.9679 150.855 59.0747 150.536 59.0745H144.082C143.889 59.0827 143.696 59.0517 143.515 58.9833C143.334 58.9149 143.168 58.8106 143.028 58.6766C142.889 58.5426 142.777 58.3818 142.701 58.2037C142.625 58.0256 142.586 57.834 142.586 57.6404C142.586 57.4468 142.625 57.2551 142.701 57.077C142.777 56.899 142.889 56.7381 143.028 56.6041C143.168 56.4701 143.334 56.3658 143.515 56.2974C143.696 56.229 143.889 56.198 144.082 56.2062H149.406L154.156 34.2481C154.234 33.9234 154.423 33.6359 154.689 33.4348C154.956 33.2336 155.284 33.1313 155.617 33.1452C155.951 33.1592 156.269 33.2886 156.518 33.5113C156.767 33.734 156.93 34.0362 156.981 34.3662L161.667 62.5207L165.658 48.6001C165.741 48.3069 165.917 48.0484 166.159 47.8633C166.401 47.6782 166.696 47.5763 167.001 47.5729H167.029C167.331 47.573 167.625 47.6684 167.869 47.8455C168.114 48.0225 168.296 48.2722 168.39 48.559L170.935 56.2139H174.422C174.67 55.4606 175.121 54.7905 175.726 54.2775C176.331 53.7645 177.066 53.4286 177.849 53.3068C178.633 53.1849 179.435 53.282 180.167 53.5872C180.899 53.8924 181.532 54.394 181.997 55.0364C182.462 55.6789 182.74 56.4373 182.801 57.2279C182.862 58.0186 182.704 58.8108 182.343 59.517C181.982 60.2232 181.434 60.8161 180.757 61.2301C180.081 61.6442 179.303 61.8633 178.51 61.8633L178.503 61.853Z" fill="#1ABFB5"/>
</g>
<defs>
<linearGradient id="paint0_linear_601_168" x1="91.502" y1="198.979" x2="91.502" y2="40.9656" gradientUnits="userSpaceOnUse">
<stop stop-color="#808080" stop-opacity="0.25"/>
<stop offset="0.54" stop-color="#808080" stop-opacity="0.12"/>
<stop offset="1" stop-color="#808080" stop-opacity="0.1"/>
</linearGradient>
<linearGradient id="paint1_linear_601_168" x1="229.424" y1="196.981" x2="229.424" y2="52.665" gradientUnits="userSpaceOnUse">
<stop stop-color="#808080" stop-opacity="0.25"/>
<stop offset="0.54" stop-color="#808080" stop-opacity="0.12"/>
<stop offset="1" stop-color="#808080" stop-opacity="0.1"/>
</linearGradient>
<clipPath id="clip0_601_168">
<rect width="283.764" height="201" fill="white"/>
</clipPath>
</defs>
</svg>
