<svg width="230" height="201" viewBox="0 0 230 201" fill="none" xmlns="http://www.w3.org/2000/svg">
<g clip-path="url(#clip0_601_341)">
<path d="M11.0818 68.4944L0.00807388 62.2573C-0.141299 55.5841 1.34054 48.9754 4.32491 43.0049C6.87802 54.5928 20.3141 60.106 26.5134 70.2237C28.4227 73.3942 29.5941 76.9537 29.9408 80.6384C30.2874 84.3231 29.8005 88.0385 28.516 91.5094L29.2443 100.494C23.521 98.7797 18.2374 95.8451 13.7574 91.8923C9.27751 87.9394 5.70777 83.0623 3.29418 77.597C1.97054 74.5176 1.03996 71.2837 0.52441 67.9718C5.68747 68.5212 11.0818 68.4944 11.0818 68.4944Z" fill="#F2F2F2"/>
<path d="M210.151 181.966L210.491 174.331C214.03 172.438 217.979 171.439 221.992 171.419C216.468 175.935 217.159 184.641 213.413 190.715C212.231 192.6 210.639 194.195 208.756 195.382C206.873 196.568 204.748 197.316 202.537 197.569L197.914 200.399C197.28 196.863 197.419 193.231 198.324 189.754C199.228 186.277 200.876 183.038 203.153 180.259C204.445 178.713 205.928 177.335 207.565 176.159C208.672 179.079 210.151 181.966 210.151 181.966Z" fill="#F2F2F2"/>
<path d="M198.24 196.47L194.054 196.47L192.063 180.325L198.241 180.325L198.24 196.47Z" fill="#FFB6B6"/>
<path d="M199.307 200.528L185.811 200.527V200.357C185.811 198.963 186.364 197.627 187.349 196.642C188.335 195.657 189.671 195.103 191.064 195.103L193.53 193.233L198.13 195.104L199.308 195.104L199.307 200.528Z" fill="#2F2E41"/>
<path d="M178.793 196.47L174.607 196.47L172.616 180.325L178.794 180.325L178.793 196.47Z" fill="#FFB6B6"/>
<path d="M179.861 200.528L166.364 200.527V200.357C166.364 198.963 166.917 197.627 167.903 196.642C168.888 195.657 170.224 195.103 171.617 195.103L174.083 193.233L178.683 195.104L179.861 195.104L179.861 200.528Z" fill="#2F2E41"/>
<path d="M176.981 108.202L204.208 108.883C209.379 111.691 209.457 117.77 207.763 124.987C207.763 124.987 208.335 129.277 207.191 130.421C206.047 131.565 205.475 131.565 206.047 133.567C206.619 135.569 203.597 138.838 203.964 139.205C204.331 139.572 205.189 141.574 205.189 141.574L202.329 157.875C202.329 157.875 200.328 186.187 199.756 186.759C199.184 187.331 198.612 186.759 199.184 188.189C199.756 189.619 200.328 189.047 199.756 189.619C199.249 190.165 198.772 190.738 198.326 191.335H191.412C191.412 191.335 190.89 188.475 190.89 188.189C190.89 187.903 190.318 186.187 190.318 185.901C190.318 185.615 190.824 185.11 190.824 185.11C190.998 184.528 191.116 183.932 191.176 183.328C191.176 182.756 192.892 160.735 192.892 160.735L189.46 132.137L181.167 160.163C181.167 160.163 181.167 184.757 180.595 185.329C180.023 185.901 180.023 185.615 180.309 186.759C180.595 187.903 181.739 187.617 180.881 188.475C180.023 189.333 179.737 187.903 180.023 189.333L180.309 190.763L171.729 190.886C171.729 190.886 170.586 188.475 171.158 187.617C171.73 186.759 171.695 186.993 170.997 185.589C170.3 184.185 170.014 183.899 170.3 183.614C170.586 183.328 170.586 181.806 170.586 181.806L172.015 154.443C172.015 154.443 172.301 125.559 172.301 124.701C172.323 124.26 172.242 123.82 172.064 123.415V122.25L173.159 118.124L176.981 108.202Z" fill="#2F2E41"/>
<path d="M193.337 51.5884C198.009 51.5884 201.796 47.8009 201.796 43.1289C201.796 38.4569 198.009 34.6694 193.337 34.6694C188.665 34.6694 184.877 38.4569 184.877 43.1289C184.877 47.8009 188.665 51.5884 193.337 51.5884Z" fill="#FFB6B6"/>
<path d="M189.107 57.1799C187.285 58.2634 186.194 60.2541 185.568 62.2799C184.41 66.0303 183.712 69.9079 183.492 73.827L182.831 85.5601L174.644 110.543C181.739 116.547 208.408 111.907 208.408 111.907C208.408 111.907 209.227 111.635 208.408 110.816C207.59 109.997 206.793 110.723 207.611 109.904C208.43 109.085 207.866 109.997 207.593 109.179C207.32 108.36 207.593 108.906 207.866 108.633C208.138 108.36 205.753 105.904 205.753 105.904L207.936 91.5635L210.665 62.6376C207.39 58.5443 200.805 56.1314 200.805 56.1314L199.103 53.0684L190.595 53.749L189.107 57.1799Z" fill="#E6E6E6"/>
<path d="M187.947 38.1645C188.274 38.167 188.6 38.2098 188.917 38.2918C189.541 38.4419 190.176 38.5483 190.815 38.6102C192.774 38.7944 194.614 39.6296 196.042 40.9823C197.47 42.3351 198.403 44.1273 198.693 46.0729C199.185 45.6443 200.303 44.856 201.22 45.5886C201.234 45.6003 201.242 45.6063 201.275 45.591C201.883 45.3021 202.964 41.7469 202.997 38.6166C203.014 36.9552 202.753 34.8336 201.409 34.1617L201.338 34.1263L201.32 34.0494C201.23 33.6757 200.227 33.0377 198.484 32.5412C195.316 31.6388 190.593 29.881 187.934 32.4679C187.733 33.34 187.078 35.2063 186.417 35.4179C185.684 35.652 185.052 35.8541 184.952 36.7525C184.869 38.0309 184.875 39.3136 184.97 40.5912C185.219 39.8094 185.706 39.1251 186.363 38.6348C186.831 38.32 187.383 38.1559 187.947 38.1645Z" fill="#2F2E41"/>
<path d="M172.201 84.9065L186.02 76.0567L179.06 66.8047L172.187 75.2585L150.774 76.5719C150.211 76.0151 149.498 75.6343 148.722 75.4758C147.946 75.3173 147.141 75.388 146.404 75.6792C145.668 75.9705 145.032 76.4697 144.574 77.116C144.117 77.7624 143.857 78.5279 143.827 79.3193C143.797 80.1106 143.998 80.8937 144.405 81.5729C144.812 82.2521 145.408 82.7981 146.121 83.1444C146.833 83.4906 147.63 83.6222 148.416 83.523C149.202 83.4238 149.942 83.0982 150.545 82.5858L172.201 84.9065Z" fill="#FFB6B6"/>
<path d="M198.845 63.7043C199.647 68.558 184.502 77.8265 184.502 77.8265C184.502 76.6873 175.462 85.2878 175.054 84.343C173.894 81.6576 173.079 75.2973 171.459 74.2793C170.532 73.6971 177.04 68.2279 177.04 68.2279C177.04 68.2279 180.446 64.7961 184.917 60.4673C186.158 59.22 187.694 58.3071 189.383 57.8134C191.072 57.3197 192.859 57.2614 194.576 57.6438C194.576 57.6438 198.043 58.8506 198.845 63.7043Z" fill="#E6E6E6"/>
<path d="M227.328 87.2297L218.187 73.6016L209.085 80.7559L217.682 87.4479L219.449 108.829C218.904 109.403 218.538 110.124 218.396 110.903C218.254 111.683 218.342 112.486 218.649 113.216C218.955 113.946 219.468 114.571 220.124 115.015C220.78 115.459 221.551 115.703 222.343 115.716C223.134 115.729 223.913 115.512 224.583 115.09C225.254 114.669 225.787 114.061 226.118 113.342C226.449 112.622 226.564 111.822 226.448 111.039C226.332 110.255 225.991 109.522 225.466 108.93L227.328 87.2297Z" fill="#FFB6B6"/>
<path d="M205.566 61.0404C210.401 60.1358 219.989 75.0817 219.989 75.0817C218.85 75.1061 227.64 83.9616 226.704 84.3895C224.043 85.6058 217.702 86.5556 216.718 88.1972C216.156 89.1361 210.55 82.7454 210.55 82.7454C210.55 82.7454 207.047 79.4123 202.625 75.0345C201.351 73.8201 200.406 72.3032 199.877 70.6251C199.347 68.9471 199.251 67.1624 199.597 65.4371C199.597 65.4371 200.73 61.945 205.566 61.0404Z" fill="#E6E6E6"/>
<path d="M229.663 200.595C229.663 200.648 229.653 200.701 229.632 200.75C229.612 200.799 229.582 200.844 229.545 200.882C229.507 200.919 229.462 200.949 229.413 200.969C229.364 200.99 229.311 201 229.258 201H133.866C133.759 201 133.655 200.957 133.58 200.881C133.504 200.805 133.461 200.702 133.461 200.595C133.461 200.488 133.504 200.385 133.58 200.309C133.655 200.233 133.759 200.19 133.866 200.19H229.258C229.311 200.19 229.364 200.2 229.413 200.22C229.462 200.241 229.507 200.271 229.545 200.308C229.582 200.346 229.612 200.391 229.632 200.44C229.653 200.489 229.663 200.542 229.663 200.595Z" fill="#CCCCCC"/>
<path d="M141.293 77.8652H25.5222C23.7134 77.8673 21.9794 78.5867 20.7004 79.8657C19.4214 81.1447 18.702 82.8787 18.7 84.6875V156.766C18.702 158.575 19.4214 160.309 20.7004 161.588C21.9794 162.867 23.7134 163.586 25.5222 163.588H141.293C143.102 163.586 144.836 162.867 146.115 161.588C147.394 160.309 148.113 158.575 148.115 156.766V84.6875C148.113 82.8787 147.394 81.1446 146.115 79.8657C144.836 78.5867 143.102 77.8673 141.293 77.8652Z" fill="#1ABFB5"/>
<path d="M141.293 77.8652H25.5222C23.7134 77.8673 21.9794 78.5867 20.7004 79.8657C19.4214 81.1447 18.702 82.8787 18.7 84.6875V156.766C18.702 158.575 19.4214 160.309 20.7004 161.588C21.9794 162.867 23.7134 163.586 25.5222 163.588H141.293C143.102 163.586 144.836 162.867 146.115 161.588C147.394 160.309 148.113 158.575 148.115 156.766V84.6875C148.113 82.8787 147.394 81.1446 146.115 79.8657C144.836 78.5867 143.102 77.8673 141.293 77.8652ZM143.532 129.64C143.504 136.978 140.602 144.013 135.447 149.236C130.292 154.458 123.296 157.452 115.959 157.576C104.212 157.729 122.458 157.788 108.291 157.788C75.8933 157.788 42.1121 157.479 29.5079 157.278C27.8496 157.244 26.2703 156.563 25.1073 155.38C23.9443 154.197 23.2897 152.607 23.2833 150.948V84.6928C23.284 84.0988 23.5198 83.5293 23.9393 83.1088C24.3588 82.6883 24.9278 82.451 25.5217 82.4489H141.288C141.882 82.4496 142.452 82.6854 142.872 83.1048C143.293 83.5242 143.53 84.093 143.532 84.6868V129.64Z" fill="#3F3D56"/>
<path d="M127.042 36.3604H38.8366C38.0561 36.3615 37.2951 36.6034 36.6573 37.0532C36.0195 37.5029 35.536 38.1386 35.2729 38.8733L21.6502 77.0926C21.4469 77.6631 21.3835 78.274 21.4654 78.874C21.5472 79.4741 21.7719 80.0457 22.1206 80.5409C22.4693 81.0361 22.9317 81.4403 23.469 81.7197C24.0064 81.999 24.6029 82.1452 25.2086 82.1461L143.506 82.356H143.512C144.138 82.356 144.754 82.2006 145.305 81.9038C145.856 81.607 146.325 81.178 146.67 80.6554C147.015 80.1327 147.224 79.5327 147.28 78.9092C147.335 78.2856 147.235 77.658 146.989 77.0825L130.519 38.6533C130.228 37.9724 129.743 37.3921 129.125 36.9844C128.507 36.5768 127.782 36.3598 127.042 36.3604Z" fill="#3F3D56"/>
<path d="M147.295 77.9124C147.295 78.4249 147.191 78.932 146.989 79.4031L130.52 108.985C130.227 109.664 129.742 110.243 129.124 110.65C128.506 111.057 127.782 111.274 127.042 111.275H38.8381C38.0574 111.274 37.2959 111.033 36.6576 110.583C36.0193 110.134 35.5352 109.498 35.2714 108.764L21.6513 79.3929C21.4843 78.9249 21.4112 78.4287 21.4362 77.9325C21.4611 77.4363 21.5836 76.9499 21.7966 76.5011C22.0097 76.0523 22.3091 75.6499 22.6777 75.3168C23.0464 74.9838 23.477 74.7266 23.9451 74.5601C24.35 74.4139 24.7772 74.3391 25.2077 74.3389L39.6583 74.3117L45.5562 74.3015L123.166 74.1654L129.067 74.1552L143.507 74.1279H143.511C144.514 74.1281 145.477 74.5269 146.187 75.2366C146.896 75.9463 147.295 76.9088 147.295 77.9124Z" fill="#3F3D56"/>
<path d="M34.2012 131.933C35.9503 131.933 59.9691 133.401 59.9691 135.15C59.9691 136.899 35.9503 138.267 34.2012 138.267C33.3612 138.267 32.5557 137.933 31.9618 137.339C31.3678 136.745 31.0342 135.94 31.0342 135.1C31.0342 134.26 31.3678 133.454 31.9618 132.86C32.5557 132.266 33.3612 131.933 34.2012 131.933Z" fill="#3F3D56"/>
<path d="M121.549 13.1099H47.1761C45.183 13.1122 43.2721 13.905 41.8627 15.3144C40.4533 16.7238 39.6605 18.6346 39.6582 20.6278V111.275H127.042C127.76 111.278 128.463 111.073 129.067 110.687V20.6278C129.065 18.6346 128.272 16.7238 126.862 15.3144C125.453 13.905 123.542 13.1122 121.549 13.1099Z" fill="#E6E6E6"/>
<path d="M93.1619 19.2051H52.4037C50.5887 19.2068 48.8486 19.9284 47.5649 21.2114C46.2812 22.4945 45.5588 24.2342 45.5562 26.0492V111.275H123.166V49.2088C123.156 41.2541 119.992 33.6279 114.368 28.0031C108.743 22.3783 101.117 19.2143 93.1619 19.2051Z" fill="white"/>
<path d="M109.944 103.707H58.778C58.3357 103.707 57.9115 103.882 57.5988 104.195C57.286 104.508 57.1104 104.932 57.1104 105.374C57.1104 105.816 57.286 106.241 57.5988 106.553C57.9115 106.866 58.3357 107.042 58.778 107.042H109.944C110.386 107.042 110.81 106.866 111.123 106.553C111.436 106.241 111.611 105.816 111.611 105.374C111.611 104.932 111.436 104.508 111.123 104.195C110.81 103.882 110.386 103.707 109.944 103.707Z" fill="#E4E4E4"/>
<path d="M109.944 97.1108H58.778C58.3352 97.1108 57.9106 97.2867 57.5976 97.5998C57.2845 97.9128 57.1086 98.3374 57.1086 98.7802C57.1086 99.2229 57.2845 99.6475 57.5976 99.9606C57.9106 100.274 58.3352 100.45 58.778 100.45H109.944C110.386 100.45 110.811 100.274 111.124 99.9606C111.437 99.6475 111.613 99.2229 111.613 98.7802C111.613 98.3374 111.437 97.9128 111.124 97.5998C110.811 97.2867 110.386 97.1108 109.944 97.1108Z" fill="#E4E4E4"/>
<path d="M80.9574 90.5186H58.778C58.3357 90.5186 57.9115 90.6943 57.5988 91.007C57.286 91.3197 57.1104 91.7439 57.1104 92.1862C57.1104 92.6285 57.286 93.0526 57.5988 93.3654C57.9115 93.6781 58.3357 93.8538 58.778 93.8538H80.9574C81.3997 93.8538 81.8239 93.6781 82.1366 93.3654C82.4494 93.0526 82.6251 92.6285 82.6251 92.1862C82.6251 91.7439 82.4494 91.3197 82.1366 91.007C81.8239 90.6943 81.3997 90.5186 80.9574 90.5186Z" fill="#E4E4E4"/>
<path d="M109.944 76.7075H58.778C58.3352 76.7075 57.9106 76.8834 57.5976 77.1965C57.2845 77.5095 57.1086 77.9341 57.1086 78.3769C57.1086 78.8196 57.2845 79.2442 57.5976 79.5572C57.9106 79.8703 58.3352 80.0462 58.778 80.0462H109.944C110.386 80.0462 110.811 79.8703 111.124 79.5572C111.437 79.2442 111.613 78.8196 111.613 78.3769C111.613 77.9341 111.437 77.5095 111.124 77.1965C110.811 76.8834 110.386 76.7075 109.944 76.7075Z" fill="#E4E4E4"/>
<path d="M109.944 70.1157H58.778C58.3357 70.1157 57.9115 70.2914 57.5988 70.6042C57.286 70.9169 57.1104 71.3411 57.1104 71.7834C57.1104 72.2256 57.286 72.6498 57.5988 72.9625C57.9115 73.2753 58.3357 73.451 58.778 73.451H109.944C110.386 73.451 110.81 73.2753 111.123 72.9625C111.436 72.6498 111.611 72.2256 111.611 71.7834C111.611 71.3411 111.436 70.9169 111.123 70.6042C110.81 70.2914 110.386 70.1157 109.944 70.1157Z" fill="#E4E4E4"/>
<path d="M80.9574 63.52H58.778C58.3352 63.52 57.9106 63.6959 57.5976 64.009C57.2845 64.322 57.1086 64.7466 57.1086 65.1894C57.1086 65.6321 57.2845 66.0567 57.5976 66.3697C57.9106 66.6828 58.3352 66.8587 58.778 66.8587H80.9574C81.4002 66.8587 81.8248 66.6828 82.1378 66.3697C82.4509 66.0567 82.6268 65.6321 82.6268 65.1894C82.6268 64.7466 82.4509 64.322 82.1378 64.009C81.8248 63.6959 81.4002 63.52 80.9574 63.52Z" fill="#E4E4E4"/>
<path d="M109.944 49.709H58.778C58.3352 49.709 57.9106 49.8849 57.5976 50.1979C57.2845 50.511 57.1086 50.9356 57.1086 51.3783C57.1086 51.821 57.2845 52.2456 57.5976 52.5587C57.9106 52.8718 58.3352 53.0476 58.778 53.0476H109.944C110.386 53.0476 110.811 52.8718 111.124 52.5587C111.437 52.2456 111.613 51.821 111.613 51.3783C111.613 50.9356 111.437 50.511 111.124 50.1979C110.811 49.8849 110.386 49.709 109.944 49.709Z" fill="#1ABFB5"/>
<path d="M109.944 43.1167H58.778C58.3352 43.1167 57.9106 43.2926 57.5976 43.6056C57.2845 43.9187 57.1086 44.3433 57.1086 44.786C57.1086 45.2288 57.2845 45.6534 57.5976 45.9664C57.9106 46.2795 58.3352 46.4554 58.778 46.4554H109.944C110.386 46.4554 110.811 46.2795 111.124 45.9664C111.437 45.6534 111.613 45.2288 111.613 44.786C111.613 44.3433 111.437 43.9187 111.124 43.6056C110.811 43.2926 110.386 43.1167 109.944 43.1167Z" fill="#1ABFB5"/>
<path d="M80.9574 36.5215H58.778C58.3352 36.5215 57.9106 36.6974 57.5976 37.0104C57.2845 37.3235 57.1086 37.7481 57.1086 38.1908C57.1086 38.6335 57.2845 39.0581 57.5976 39.3712C57.9106 39.6843 58.3352 39.8601 58.778 39.8601H80.9574C81.4002 39.8601 81.8248 39.6843 82.1378 39.3712C82.4509 39.0581 82.6268 38.6335 82.6268 38.1908C82.6268 37.7481 82.4509 37.3235 82.1378 37.0104C81.8248 36.6974 81.4002 36.5215 80.9574 36.5215Z" fill="#1ABFB5"/>
<path d="M126.279 25.9761C133.452 25.9761 139.267 20.1612 139.267 12.9881C139.267 5.81495 133.452 0 126.279 0C119.105 0 113.291 5.81495 113.291 12.9881C113.291 20.1612 119.105 25.9761 126.279 25.9761Z" fill="#1ABFB5"/>
<path d="M124.507 19.7476C124.283 19.7476 124.061 19.6954 123.861 19.5951C123.66 19.4947 123.486 19.3491 123.351 19.1696L119.808 14.4451C119.693 14.2933 119.61 14.1205 119.563 13.9365C119.515 13.7525 119.504 13.5609 119.531 13.3727C119.557 13.1845 119.621 13.0035 119.718 12.8399C119.814 12.6763 119.942 12.5333 120.095 12.4193C120.247 12.3053 120.42 12.2224 120.604 12.1753C120.788 12.1283 120.98 12.1181 121.168 12.1452C121.356 12.1724 121.537 12.2363 121.7 12.3335C121.863 12.4307 122.006 12.5591 122.119 12.7115L124.438 15.8022L130.392 6.87138C130.604 6.55256 130.935 6.33124 131.31 6.25609C131.686 6.18094 132.076 6.25813 132.395 6.47068C132.714 6.68323 132.935 7.01372 133.01 7.38946C133.086 7.7652 133.008 8.15539 132.796 8.47421L125.709 19.1042C125.581 19.2965 125.409 19.4552 125.206 19.5671C125.004 19.6789 124.778 19.7407 124.547 19.7472C124.534 19.7474 124.52 19.7476 124.507 19.7476Z" fill="white"/>
</g>
<defs>
<clipPath id="clip0_601_341">
<rect width="229.663" height="201" fill="white"/>
</clipPath>
</defs>
</svg>
